<?xml version='1.0' encoding='UTF-8'?>
<!DOCTYPE svg PUBLIC "-//W3C//DTD SVG 1.0//EN" "http://www.w3.org/TR/2001/REC-SVG-20010904/DTD/svg10.dtd ">
<svg height="480" viewBox="0 0 640 480" width="640" xmlns="http://www.w3.org/2000/svg" >
	<defs>
		<style type="text/css">
			<![CDATA[
				.data {
					fill: none;
					stroke: black;
					stroke-linecap: round;
					stroke-width: 1.5;
				}
				[class~="density"][id="allArea"] {
					fill: none;
					stroke: rgb(255, 147, 0);
				}
				[class~="density"][id="hemAreas"] {
					fill: none;
					stroke: rgb(67, 0, 246);
				}
				[class~="legend"][id="allArea"] {
					fill: none;
					stroke: rgb(255, 147, 0);
				}
				[class~="legend"][id="hemAreas"] {
					fill: none;
					stroke: rgb(67, 0, 246);
				}
				line.axis {
					stroke: dimgrey;
					stroke-width: 0.75;
				}
				line.colorbar.tic {
					stroke: black;
					stroke-linecap: butt;
					stroke-width: 0.5;
				}
				line.scalebar {
					stroke: black;
					stroke-width: 0.75;
				}
				line.tic {
					stroke-linecap: round;
				}
				rect.colorbar {
					fill: none;
					stroke: black;
					stroke-width: 0.5;
				}
				rect.plot {
					fill: none;
					stroke: none;
				}
				text {
					font-family: Times;
				}
				text.axis {
					fill: dimgrey;
				}
				text.colorbar.label {
					fill: black;
				}
				text.label {
					font-weight: normal;
				}
				text.title {
					font-weight: bold;
				}
			]]>
		</style>
	</defs>
	<g id="axes" class="layer">
		<g id="x-axis">
			<line id="x-axis" class="axis" x1="24" x2="606" y1="432" y2="432"/>
			<g id="x-axis tics">
				<line id="tic at 0" class="axis tic" x1="48.772444" x2="48.772444" y1="429" y2="435"/>
				<line id="tic at 5000" class="axis tic" x1="102.02441" x2="102.02441" y1="429" y2="435"/>
				<line id="tic at 10000" class="axis tic" x1="155.27638" x2="155.27638" y1="429" y2="435"/>
				<line id="tic at 15000" class="axis tic" x1="208.52835" x2="208.52835" y1="429" y2="435"/>
				<line id="tic at 20000" class="axis tic" x1="261.78031" x2="261.78031" y1="429" y2="435"/>
				<line id="tic at 25000" class="axis tic" x1="315.03228" x2="315.03228" y1="429" y2="435"/>
				<line id="tic at 30000" class="axis tic" x1="368.28425" x2="368.28425" y1="429" y2="435"/>
				<line id="tic at 35000" class="axis tic" x1="421.53622" x2="421.53622" y1="429" y2="435"/>
				<line id="tic at 40000" class="axis tic" x1="474.78818" x2="474.78818" y1="429" y2="435"/>
				<line id="tic at 45000" class="axis tic" x1="528.04015" x2="528.04015" y1="429" y2="435"/>
				<line id="tic at 50000" class="axis tic" x1="581.29212" x2="581.29212" y1="429" y2="435"/>
			</g>
			<g id="x-axis small tics">
				<line id="small tic at 2500" class="axis tic small" x1="75.398428" x2="75.398428" y1="430.5" y2="433.5"/>
				<line id="small tic at 7500" class="axis tic small" x1="128.6504" x2="128.6504" y1="430.5" y2="433.5"/>
				<line id="small tic at 12500" class="axis tic small" x1="181.90236" x2="181.90236" y1="430.5" y2="433.5"/>
				<line id="small tic at 17500" class="axis tic small" x1="235.15433" x2="235.15433" y1="430.5" y2="433.5"/>
				<line id="small tic at 22500" class="axis tic small" x1="288.4063" x2="288.4063" y1="430.5" y2="433.5"/>
				<line id="small tic at 27500" class="axis tic small" x1="341.65827" x2="341.65827" y1="430.5" y2="433.5"/>
				<line id="small tic at 32500" class="axis tic small" x1="394.91023" x2="394.91023" y1="430.5" y2="433.5"/>
				<line id="small tic at 37500" class="axis tic small" x1="448.1622" x2="448.1622" y1="430.5" y2="433.5"/>
				<line id="small tic at 42500" class="axis tic small" x1="501.41417" x2="501.41417" y1="430.5" y2="433.5"/>
				<line id="small tic at 47500" class="axis tic small" x1="554.66614" x2="554.66614" y1="430.5" y2="433.5"/>
			</g>
		</g>
		<g id="x-axis labels">
			<text font-size="12" class="axis label" text-anchor="middle" x="48.772444" y="450">0</text>
			<text font-size="12" class="axis label" text-anchor="middle" x="102.02441" y="450">5000</text>
			<text font-size="12" class="axis label" text-anchor="middle" x="155.27638" y="450">10000</text>
			<text font-size="12" class="axis label" text-anchor="middle" x="208.52835" y="450">15000</text>
			<text font-size="12" class="axis label" text-anchor="middle" x="261.78031" y="450">20000</text>
			<text font-size="12" class="axis label" text-anchor="middle" x="315.03228" y="450">25000</text>
			<text font-size="12" class="axis label" text-anchor="middle" x="368.28425" y="450">30000</text>
			<text font-size="12" class="axis label" text-anchor="middle" x="421.53622" y="450">35000</text>
			<text font-size="12" class="axis label" text-anchor="middle" x="474.78818" y="450">40000</text>
			<text font-size="12" class="axis label" text-anchor="middle" x="528.04015" y="450">45000</text>
			<text font-size="12" class="axis label" text-anchor="middle" x="581.29212" y="450">50000</text>
		</g>
		<g id="y-axis">
			<line id="y-axis" class="axis" x1="48.772444" x2="48.772444" y1="432" y2="24"/>
			<g id="y-axis tics">
				<line id="tic at 1e-05" class="axis tic" x1="51.772444" x2="45.772444" y1="370.53071" y2="370.53071"/>
				<line id="tic at 2e-05" class="axis tic" x1="51.772444" x2="45.772444" y1="309.06143" y2="309.06143"/>
				<line id="tic at 3e-05" class="axis tic" x1="51.772444" x2="45.772444" y1="247.59214" y2="247.59214"/>
				<line id="tic at 4e-05" class="axis tic" x1="51.772444" x2="45.772444" y1="186.12286" y2="186.12286"/>
				<line id="tic at 5e-05" class="axis tic" x1="51.772444" x2="45.772444" y1="124.65357" y2="124.65357"/>
				<line id="tic at 6e-05" class="axis tic" x1="51.772444" x2="45.772444" y1="63.184284" y2="63.184284"/>
			</g>
			<g id="y-axis small tics">
				<line id="small tic at 5e-06" class="axis tic small" x1="50.272444" x2="47.272444" y1="401.26536" y2="401.26536"/>
				<line id="small tic at 5e-06" class="axis tic small" x1="50.272444" x2="47.272444" y1="401.26536" y2="401.26536"/>
				<line id="small tic at 1.5e-05" class="axis tic small" x1="50.272444" x2="47.272444" y1="339.79607" y2="339.79607"/>
				<line id="small tic at 2.5e-05" class="axis tic small" x1="50.272444" x2="47.272444" y1="278.32678" y2="278.32678"/>
				<line id="small tic at 3.5e-05" class="axis tic small" x1="50.272444" x2="47.272444" y1="216.8575" y2="216.8575"/>
				<line id="small tic at 4.5e-05" class="axis tic small" x1="50.272444" x2="47.272444" y1="155.38821" y2="155.38821"/>
				<line id="small tic at 5.5e-05" class="axis tic small" x1="50.272444" x2="47.272444" y1="93.918927" y2="93.918927"/>
				<line id="small tic at 6.5e-05" class="axis tic small" x1="50.272444" x2="47.272444" y1="32.449641" y2="32.449641"/>
			</g>
		</g>
		<g id="y-axis labels">
			<text font-size="12" class="axis label" text-anchor="end" x="42.772444" y="375.03071">1e-05</text>
			<text font-size="12" class="axis label" text-anchor="end" x="42.772444" y="313.56143">2e-05</text>
			<text font-size="12" class="axis label" text-anchor="end" x="42.772444" y="252.09214">3e-05</text>
			<text font-size="12" class="axis label" text-anchor="end" x="42.772444" y="190.62286">4e-05</text>
			<text font-size="12" class="axis label" text-anchor="end" x="42.772444" y="129.15357">5e-05</text>
			<text font-size="12" class="axis label" text-anchor="end" x="42.772444" y="67.684284">6e-05</text>
		</g>
	</g>
	<g id="hemAreas" class="layer">
		<path d="M 56.616831 401.43349 C60.127578,396.97612 63.638325,392.41371 67.149073,388.51433 C68.904446,386.56463 70.65982,384.78069 72.415193,383.24438 C74.170567,381.70806 75.925941,380.41937 77.681314,379.42986 C79.436688,378.44034 81.192061,377.75002 82.947435,377.37122 C84.702809,376.99243 86.458182,376.92518 88.213556,377.14196 C89.968929,377.35874 91.724303,377.85955 93.479677,378.58481 C95.23505,379.31007 96.990424,380.25978 98.745797,381.3559 C100.50117,382.45203 102.25654,383.69455 104.01192,385.00256 C105.76729,386.31056 107.52267,387.68404 109.27804,389.05274 C111.03341,390.42145 112.78879,391.78538 114.54416,393.0937 C116.29953,394.40203 118.05491,395.65476 119.81028,396.82333 C121.56565,397.99189 123.32103,399.0763 125.0764,400.06788 C126.83177,401.05946 128.58715,401.95821 130.34252,402.76962 C132.0979,403.58104 133.85327,404.30512 135.60864,404.95459 C137.36402,405.60406 139.11939,406.17892 140.87476,406.69264 C142.63014,407.20635 144.38551,407.65893 146.14088,408.05928 C147.89626,408.45963 149.65163,408.80775 151.40701,409.10371 C153.16238,409.39967 154.91775,409.64347 156.67313,409.82253 C158.4285,410.00159 160.18387,410.11589 161.93925,410.1365 C163.69462,410.1571 165.44999,410.08401 167.20537,409.86863 C168.96074,409.65326 170.71611,409.2956 172.47149,408.72565 C174.22686,408.1557 175.98224,407.37345 177.73761,406.28857 C179.49298,405.20368 181.24836,403.81616 183.00373,402.02057 C184.7591,400.22498 186.51448,398.02131 188.26985,395.29888 C190.02522,392.57645 191.7806,389.33526 193.53597,385.47314 C195.29135,381.61102 197.04672,377.12798 198.80209,371.94648 C200.55747,366.76497 202.31284,360.88501 204.06821,354.26976 C205.82359,347.65451 207.57896,340.30397 209.33433,332.23559 C211.08971,324.16722 212.84508,315.38101 214.60045,305.95741 C216.35583,296.5338 218.1112,286.47279 219.86658,275.91953 C221.62195,265.36627 223.37732,254.32075 225.1327,242.98599 C226.88807,231.65123 228.64344,220.02724 230.39882,208.35883 C232.15419,196.69042 233.90956,184.97758 235.66494,173.48252 C237.42031,161.98746 239.17569,150.71018 240.93106,139.90072 C242.68643,129.09126 244.44181,118.74961 246.19718,109.08443 C247.95255,99.419253 249.70793,90.430534 251.4633,82.263048 C253.21867,74.095561 254.97405,66.749307 256.72942,60.294929 C258.48479,53.840551 260.24017,48.278049 261.99554,43.608111 C263.75092,38.938173 265.50629,35.160799 267.26166,32.223193 C269.01704,29.285587 270.77241,27.187749 272.52778,25.846373 C274.28316,24.504997 276.03853,23.920082 277.7939,24 C279.54928,24.079918 281.30465,24.824667 283.06003,26.149645 C284.8154,27.474622 286.57077,29.379826 288.32615,31.793356 C290.08152,34.206886 291.83689,37.128741 293.59227,40.496707 C295.34764,43.864673 297.10301,47.67875 298.85839,51.878564 C300.61376,56.078377 302.36913,60.663927 304.12451,65.568927 C305.87988,70.473927 307.63526,75.698377 309.39063,81.16645 C311.146,86.634523 312.90138,92.346219 314.65675,98.21843 C316.41212,104.09064 318.1675,110.12337 319.92287,116.23349 C321.67824,122.34361 323.43362,128.53113 325.18899,134.72236 C326.94436,140.91359 328.69974,147.10854 330.45511,153.25104 C332.21049,159.39355 333.96586,165.48361 335.72123,171.48652 C337.47661,177.48943 339.23198,183.40517 340.98735,189.21888 C342.74273,195.0326 344.4981,200.74428 346.25347,206.35245 C348.00885,211.96061 349.76422,217.46526 351.5196,222.86907 C353.27497,228.27288 355.03034,233.57584 356.78572,238.77585 C358.54109,243.97587 360.29646,249.07293 362.05184,254.05449 C363.80721,259.03605 365.56258,263.9021 367.31796,268.62918 C369.07333,273.35625 370.8287,277.94436 372.58408,282.36398 C374.33945,286.78361 376.09483,291.03475 377.8502,295.09013 C379.60557,299.1455 381.36095,303.00511 383.11632,306.65232 C384.87169,310.29953 386.62707,313.73435 388.38244,316.95606 C390.13781,320.17778 391.89319,323.18639 393.64856,325.99732 C395.40394,328.80825 397.15931,331.42149 398.91468,333.86382 C400.67006,336.30616 402.42543,338.57758 404.1808,340.70866 C405.93618,342.83974 407.69155,344.83047 409.44692,346.70768 C411.2023,348.5849 412.95767,350.3486 414.71304,352.01701 C416.46842,353.68543 418.22379,355.25856 419.97917,356.74493 C421.73454,358.23131 423.48991,359.63093 425.24529,360.94501 C427.00066,362.25908 428.75603,363.48761 430.51141,364.62889 C432.26678,365.77016 434.02215,366.82418 435.77753,367.79106 C437.5329,368.75794 439.28828,369.63769 441.04365,370.43591 C442.79902,371.23413 444.5544,371.95083 446.30977,372.59895 C448.06514,373.24707 449.82052,373.82661 451.57589,374.35764 C453.33126,374.88867 455.08664,375.3712 456.84201,375.83042 C458.59738,376.28964 460.35276,376.72554 462.10813,377.1651 C463.86351,377.60465 465.61888,378.04786 467.37425,378.51935 C469.12963,378.99085 470.885,379.49064 472.64037,380.03704 C474.39575,380.58343 476.15112,381.17645 477.90649,381.82497 C479.66187,382.4735 481.41724,383.17754 483.17261,383.93518 C484.92799,384.69283 486.68336,385.50408 488.43874,386.35702 C490.19411,387.20995 491.94948,388.10455 493.70486,389.02179 C495.46023,389.93903 497.2156,390.8789 498.97098,391.81962 C500.72635,392.76033 502.48172,393.7019 504.2371,394.62449 C505.99247,395.54708 507.74785,396.45069 509.50322,397.32122 C511.25859,398.19176 513.01397,399.02922 514.76934,399.82714 C516.52471,400.62506 518.28009,401.38344 520.03546,402.10337 C521.79083,402.8233 523.54621,403.50477 525.30158,404.15476 C527.05695,404.80475 528.81233,405.42327 530.5677,406.0209 C532.32308,406.61853 534.07845,407.19527 535.83382,407.76309 C537.5892,408.33092 539.34457,408.88983 541.09994,409.45134 C542.85532,410.01285 544.61069,410.57696 546.36606,411.15313 C548.12144,411.7293 549.87681,412.31754 551.63219,412.9238 C553.38756,413.53005 555.14293,414.15433 556.89831,414.79777 C558.65368,415.44122 560.40905,416.10385 562.16443,416.78127 C563.9198,417.45869 565.67517,418.1509 567.43055,418.84844 C570.94129,420.24351 574.45204,421.65984 577.96279,422.99025" id="hemAreas" class="data density"/>
	</g>
	<g id="allArea" class="layer">
		<path d="M 50.454546 410.26389 C54.017447,406.94171 57.580349,403.32254 61.143251,399.83416 C62.924702,398.08997 64.706153,396.37848 66.487604,394.76025 C68.269054,393.14202 70.050505,391.61706 71.831956,390.24146 C73.613407,388.86586 75.394858,387.63962 77.176309,386.60677 C78.95776,385.57392 80.739211,384.73447 82.520661,384.11296 C84.302112,383.49145 86.083563,383.08788 87.865014,382.90352 C89.646465,382.71916 91.427916,382.75401 93.209367,382.98654 C94.990817,383.21908 96.772268,383.64931 98.553719,384.23785 C100.33517,384.82639 102.11662,385.57323 103.89807,386.42901 C105.67952,387.28479 107.46097,388.2495 109.24242,389.27247 C111.02388,390.29545 112.80533,391.37669 114.58678,392.47155 C116.36823,393.56641 118.14968,394.67489 119.93113,395.76282 C121.71258,396.85074 123.49403,397.91811 125.27548,398.94246 C127.05693,399.96681 128.83838,400.94814 130.61983,401.87444 C132.40129,402.80073 134.18274,403.67199 135.96419,404.48408 C137.74564,405.29617 139.52709,406.04909 141.30854,406.74387 C143.08999,407.43866 144.87144,408.07532 146.65289,408.65796 C148.43434,409.24061 150.21579,409.76924 151.99725,410.24972 C153.7787,410.7302 155.56015,411.16252 157.3416,411.55353 C159.12305,411.94455 160.9045,412.29425 162.68595,412.61 C164.4674,412.92574 166.24885,413.20753 168.0303,413.46263 C169.81175,413.71773 171.5932,413.94615 173.37466,414.15431 C175.15611,414.36246 176.93756,414.55036 178.71901,414.72245 C180.50046,414.89454 182.28191,415.05082 184.06336,415.19256 C185.84481,415.3343 187.62626,415.46149 189.40771,415.5711 C191.18916,415.6807 192.97062,415.77272 194.75207,415.83935 C196.53352,415.90597 198.31497,415.94719 200.09642,415.95094 C201.87787,415.95469 203.65932,415.92097 205.44077,415.83506 C207.22222,415.74915 209.00367,415.61106 210.78512,415.40587 C212.56657,415.20068 214.34803,414.92839 216.12948,414.57636 C217.91093,414.22433 219.69238,413.79256 221.47383,413.27234 C223.25528,412.75211 225.03673,412.14342 226.81818,411.44161 C228.59963,410.7398 230.38108,409.94486 232.16253,409.05477 C233.94399,408.16467 235.72544,407.17941 237.50689,406.09727 C239.28834,405.01512 241.06979,403.83608 242.85124,402.5566 C244.63269,401.27712 246.41414,399.89719 248.19559,398.41056 C249.97704,396.92393 251.75849,395.3306 253.53994,393.62239 C255.3214,391.91419 257.10285,390.09111 258.8843,388.14505 C260.66575,386.19899 262.4472,384.12996 264.22865,381.93197 C266.0101,379.73398 267.79155,377.40702 269.573,374.94816 C271.35445,372.4893 273.1359,369.89854 274.91736,367.17524 C276.69881,364.45195 278.48026,361.59613 280.26171,358.60768 C282.04316,355.61923 283.82461,352.49816 285.60606,349.24333 C287.38751,345.98849 289.16896,342.59988 290.95041,339.07536 C292.73186,335.55083 294.51331,331.89039 296.29477,328.0931 C298.07622,324.29581 299.85767,320.36167 301.63912,316.29481 C303.42057,312.22794 305.20202,308.02835 306.98347,303.70902 C308.76492,299.3897 310.54637,294.95065 312.32782,290.41589 C314.10927,285.88113 315.89073,281.25066 317.67218,276.55878 C319.45363,271.8669 321.23508,267.11361 323.01653,262.33991 C324.79798,257.56621 326.57943,252.77209 328.36088,247.99986 C330.14233,243.22762 331.92378,238.47726 333.70523,233.78691 C335.48669,229.09656 337.26814,224.46621 339.04959,219.92606 C340.83104,215.3859 342.61249,210.93593 344.39394,206.59753 C346.17539,202.25913 347.95684,198.0323 349.73829,193.93197 C351.51974,189.83163 353.30119,185.85779 355.08264,182.02364 C356.8641,178.1895 358.64555,174.49504 360.427,170.95712 C362.20845,167.4192 363.9899,164.03781 365.77135,160.8372 C367.5528,157.63659 369.33425,154.61676 371.1157,151.80965 C372.89715,149.00254 374.6786,146.40816 376.46006,144.06204 C378.24151,141.71592 380.02296,139.61806 381.80441,137.79981 C383.58586,135.98157 385.36731,134.44295 387.14876,133.20192 C388.93021,131.96089 390.71166,131.01746 392.49311,130.36876 C394.27456,129.72007 396.05601,129.36611 397.83747,129.28062 C399.61892,129.19512 401.40037,129.37809 403.18182,129.78384 C404.96327,130.18959 406.74472,130.81811 408.52617,131.61452 C410.30762,132.41092 412.08907,133.3752 413.87052,134.45681 C415.65197,135.53842 417.43343,136.73737 419.21488,138.02004 C420.99633,139.30271 422.77778,140.66911 424.55923,142.10985 C426.34068,143.55058 428.12213,145.06564 429.90358,146.66925 C431.68503,148.27285 433.46648,149.965 435.24793,151.77537 C437.02938,153.58575 438.81084,155.51436 440.59229,157.59388 C442.37374,159.67341 444.15519,161.90385 445.93664,164.3085 C447.71809,166.71315 449.49954,169.29202 451.28099,172.05076 C453.06244,174.8095 454.84389,177.74811 456.62534,180.85235 C458.4068,183.95659 460.18825,187.22646 461.9697,190.63112 C463.75115,194.03578 465.5326,197.57522 467.31405,201.20863 C469.0955,204.84204 470.87695,208.56943 472.6584,212.3474 C474.43985,216.12537 476.2213,219.95393 478.00275,223.79332 C479.78421,227.63271 481.56566,231.48293 483.34711,235.31183 C485.12856,239.14072 486.91001,242.9483 488.69146,246.71171 C490.47291,250.47512 492.25436,254.19437 494.03581,257.85569 C495.81726,261.51701 497.59871,265.12041 499.38017,268.65965 C501.16162,272.19889 502.94307,275.67398 504.72452,279.08397 C506.50597,282.49396 508.28742,285.83885 510.06887,289.12074 C511.85032,292.40264 513.63177,295.62152 515.41322,298.78085 C517.19467,301.94018 518.97612,305.03995 520.75758,308.08424 C522.53903,311.12852 524.32048,314.11731 526.10193,317.05551 C527.88338,319.99372 529.66483,322.88134 531.44628,325.72491 C533.22773,328.56848 535.00918,331.368 536.79063,334.13234 C538.57208,336.89668 540.35354,339.62584 542.13499,342.3309 C543.91644,345.03596 545.69789,347.71692 547.47934,350.3856 C549.26079,353.05428 551.04224,355.71068 552.82369,358.36444 C554.60514,361.01819 556.38659,363.66931 558.16804,366.32152 C559.94949,368.97373 561.73095,371.62704 563.5124,374.27564 C565.29385,376.92424 567.0753,379.56813 568.85675,382.1907 C572.41965,387.43585 575.98255,392.59574 579.54545,397.44163" id="allArea" class="data density"/>
	</g>
	<g id="axis titles" class="layer">
		<text font-size="12" class="axis title" text-anchor="middle" x="606" y="426">Area</text>
	</g>
	<g id="legend" class="layer">
		<g id="hemAreas row">
			<line id="hemAreas" class="data legend" x1="550" x2="600" y1="19" y2="19"/>
			<text font-size="12" class="legend label" text-anchor="start" x="603" y="22">hemAreas</text>
		</g>
		<g id="allArea row">
			<line id="allArea" class="data legend" x1="550" x2="600" y1="34" y2="34"/>
			<text font-size="12" class="legend label" text-anchor="start" x="603" y="37">allArea</text>
		</g>
	</g>
</svg>
