<?xml version='1.0' encoding='UTF-8'?>
<!DOCTYPE svg PUBLIC "-//W3C//DTD SVG 1.0//EN" "http://www.w3.org/TR/2001/REC-SVG-20010904/DTD/svg10.dtd ">
<svg height="480" viewBox="0 0 640 480" width="640" xmlns="http://www.w3.org/2000/svg" >
	<defs>
		<style type="text/css">
			<![CDATA[
				.data {
					fill: none;
					stroke: black;
					stroke-linecap: round;
					stroke-width: 1.5;
				}
				[class~="density"][id="all2Area"] {
					fill: none;
					stroke: rgb(255, 147, 0);
				}
				[class~="density"][id="allArea"] {
					fill: none;
					stroke: rgb(255, 20, 247);
				}
				[class~="density"][id="hem2Area"] {
					fill: none;
					stroke: rgb(67, 0, 246);
				}
				[class~="density"][id="hemAreas"] {
					fill: none;
					stroke: rgb(31, 234, 181);
				}
				[class~="legend"][id="all2Area"] {
					fill: none;
					stroke: rgb(255, 147, 0);
				}
				[class~="legend"][id="allArea"] {
					fill: none;
					stroke: rgb(255, 20, 247);
				}
				[class~="legend"][id="hem2Area"] {
					fill: none;
					stroke: rgb(67, 0, 246);
				}
				[class~="legend"][id="hemAreas"] {
					fill: none;
					stroke: rgb(31, 234, 181);
				}
				line.axis {
					stroke: dimgrey;
					stroke-width: 0.75;
				}
				line.colorbar.tic {
					stroke: black;
					stroke-linecap: butt;
					stroke-width: 0.5;
				}
				line.scalebar {
					stroke: black;
					stroke-width: 0.75;
				}
				line.tic {
					stroke-linecap: round;
				}
				rect.colorbar {
					fill: none;
					stroke: black;
					stroke-width: 0.5;
				}
				rect.plot {
					fill: none;
					stroke: none;
				}
				text {
					font-family: Times;
				}
				text.axis {
					fill: dimgrey;
				}
				text.colorbar.label {
					fill: black;
				}
				text.label {
					font-weight: normal;
				}
				text.title {
					font-weight: bold;
				}
			]]>
		</style>
	</defs>
	<g id="axes" class="layer">
		<g id="x-axis">
			<line id="x-axis" class="axis" x1="24" x2="606" y1="432" y2="432"/>
			<g id="x-axis tics">
				<line id="tic at 0" class="axis tic" x1="48.936455" x2="48.936455" y1="429" y2="435"/>
				<line id="tic at 10000" class="axis tic" x1="145.05587" x2="145.05587" y1="429" y2="435"/>
				<line id="tic at 20000" class="axis tic" x1="241.17529" x2="241.17529" y1="429" y2="435"/>
				<line id="tic at 30000" class="axis tic" x1="337.29471" x2="337.29471" y1="429" y2="435"/>
				<line id="tic at 40000" class="axis tic" x1="433.41413" x2="433.41413" y1="429" y2="435"/>
				<line id="tic at 50000" class="axis tic" x1="529.53354" x2="529.53354" y1="429" y2="435"/>
			</g>
			<g id="x-axis small tics">
				<line id="small tic at 5000" class="axis tic small" x1="96.996164" x2="96.996164" y1="430.5" y2="433.5"/>
				<line id="small tic at 15000" class="axis tic small" x1="193.11558" x2="193.11558" y1="430.5" y2="433.5"/>
				<line id="small tic at 25000" class="axis tic small" x1="289.235" x2="289.235" y1="430.5" y2="433.5"/>
				<line id="small tic at 35000" class="axis tic small" x1="385.35442" x2="385.35442" y1="430.5" y2="433.5"/>
				<line id="small tic at 45000" class="axis tic small" x1="481.47384" x2="481.47384" y1="430.5" y2="433.5"/>
				<line id="small tic at 55000" class="axis tic small" x1="577.59325" x2="577.59325" y1="430.5" y2="433.5"/>
			</g>
		</g>
		<g id="x-axis labels">
			<text font-size="12" class="axis label" text-anchor="middle" x="48.936455" y="450">0</text>
			<text font-size="12" class="axis label" text-anchor="middle" x="145.05587" y="450">10000</text>
			<text font-size="12" class="axis label" text-anchor="middle" x="241.17529" y="450">20000</text>
			<text font-size="12" class="axis label" text-anchor="middle" x="337.29471" y="450">30000</text>
			<text font-size="12" class="axis label" text-anchor="middle" x="433.41413" y="450">40000</text>
			<text font-size="12" class="axis label" text-anchor="middle" x="529.53354" y="450">50000</text>
		</g>
		<g id="y-axis">
			<line id="y-axis" class="axis" x1="48.936455" x2="48.936455" y1="432" y2="24"/>
			<g id="y-axis tics">
				<line id="tic at 1e-05" class="axis tic" x1="51.936455" x2="45.936455" y1="370.53071" y2="370.53071"/>
				<line id="tic at 2e-05" class="axis tic" x1="51.936455" x2="45.936455" y1="309.06143" y2="309.06143"/>
				<line id="tic at 3e-05" class="axis tic" x1="51.936455" x2="45.936455" y1="247.59214" y2="247.59214"/>
				<line id="tic at 4e-05" class="axis tic" x1="51.936455" x2="45.936455" y1="186.12286" y2="186.12286"/>
				<line id="tic at 5e-05" class="axis tic" x1="51.936455" x2="45.936455" y1="124.65357" y2="124.65357"/>
				<line id="tic at 6e-05" class="axis tic" x1="51.936455" x2="45.936455" y1="63.184284" y2="63.184284"/>
			</g>
			<g id="y-axis small tics">
				<line id="small tic at 5e-06" class="axis tic small" x1="50.436455" x2="47.436455" y1="401.26536" y2="401.26536"/>
				<line id="small tic at 5e-06" class="axis tic small" x1="50.436455" x2="47.436455" y1="401.26536" y2="401.26536"/>
				<line id="small tic at 1.5e-05" class="axis tic small" x1="50.436455" x2="47.436455" y1="339.79607" y2="339.79607"/>
				<line id="small tic at 2.5e-05" class="axis tic small" x1="50.436455" x2="47.436455" y1="278.32678" y2="278.32678"/>
				<line id="small tic at 3.5e-05" class="axis tic small" x1="50.436455" x2="47.436455" y1="216.8575" y2="216.8575"/>
				<line id="small tic at 4.5e-05" class="axis tic small" x1="50.436455" x2="47.436455" y1="155.38821" y2="155.38821"/>
				<line id="small tic at 5.5e-05" class="axis tic small" x1="50.436455" x2="47.436455" y1="93.918927" y2="93.918927"/>
				<line id="small tic at 6.5e-05" class="axis tic small" x1="50.436455" x2="47.436455" y1="32.449641" y2="32.449641"/>
			</g>
		</g>
		<g id="y-axis labels">
			<text font-size="12" class="axis label" text-anchor="end" x="42.936455" y="375.03071">1e-05</text>
			<text font-size="12" class="axis label" text-anchor="end" x="42.936455" y="313.56143">2e-05</text>
			<text font-size="12" class="axis label" text-anchor="end" x="42.936455" y="252.09214">3e-05</text>
			<text font-size="12" class="axis label" text-anchor="end" x="42.936455" y="190.62286">4e-05</text>
			<text font-size="12" class="axis label" text-anchor="end" x="42.936455" y="129.15357">5e-05</text>
			<text font-size="12" class="axis label" text-anchor="end" x="42.936455" y="67.684284">6e-05</text>
		</g>
	</g>
	<g id="hem2Area" class="layer">
		<path d="M 53.672355 395.76303 C56.858437,391.5524 60.04452,387.36278 63.230603,383.76134 C64.823645,381.96062 66.416686,380.30695 68.009728,378.86373 C69.602769,377.42051 71.195811,376.18774 72.788852,375.21206 C74.381894,374.23637 75.974935,373.51778 77.567976,373.07966 C79.161018,372.64155 80.754059,372.4839 82.347101,372.60376 C83.940142,372.72362 85.533184,373.12098 87.126225,373.76753 C88.719267,374.41408 90.312308,375.30982 91.90535,376.40588 C93.498391,377.50194 95.091433,378.79832 96.684474,380.23304 C98.277515,381.66777 99.870557,383.24083 101.4636,384.88567 C103.05664,386.53051 104.64968,388.24712 106.24272,389.9723 C107.83576,391.69747 109.42881,393.43121 111.02185,395.11971 C112.61489,396.8082 114.20793,398.45146 115.80097,400.00844 C117.39401,401.56543 118.98705,403.03615 120.5801,404.39295 C122.17314,405.74975 123.76618,406.99262 125.35922,408.1055 C126.95226,409.21838 128.5453,410.20125 130.13834,411.04624 C131.73139,411.89123 133.32443,412.59832 134.91747,413.16371 C136.51051,413.7291 138.10355,414.15279 139.69659,414.43103 C141.28963,414.70927 142.88268,414.84208 144.47572,414.82254 C146.06876,414.803 147.6618,414.63111 149.25484,414.2947 C150.84788,413.95829 152.44093,413.45735 154.03397,412.77364 C155.62701,412.08993 157.22005,411.22345 158.81309,410.15046 C160.40613,409.07747 161.99917,407.79796 163.59222,406.28442 C165.18526,404.77089 166.7783,403.02333 168.37134,401.01324 C169.96438,399.00315 171.55742,396.73052 173.15046,394.16932 C174.74351,391.60811 176.33655,388.75834 177.92959,385.60036 C179.52263,382.44237 181.11567,378.97618 182.70871,375.19255 C184.30175,371.40892 185.8948,367.30786 187.48784,362.89429 C189.08088,358.48073 190.67392,353.75466 192.26696,348.73828 C193.86,343.72189 195.45304,338.41518 197.04609,332.85957 C198.63913,327.30396 200.23217,321.49944 201.82521,315.50714 C203.41825,309.51484 205.01129,303.33475 206.60433,297.04622 C208.19738,290.75769 209.79042,284.36071 211.38346,277.94916 C212.9765,271.53762 214.56954,265.1115 216.16258,258.77321 C217.75562,252.43493 219.34867,246.18448 220.94171,240.12485 C222.53475,234.06521 224.12779,228.19639 225.72083,222.61273 C227.31387,217.02907 228.90692,211.73058 230.49996,206.79378 C232.093,201.85698 233.68604,197.28187 235.27908,193.11945 C236.87212,188.95702 238.46516,185.20727 240.05821,181.8909 C241.65125,178.57453 243.24429,175.69153 244.83733,173.23167 C246.43037,170.7718 248.02341,168.73506 249.61645,167.08404 C251.2095,165.43302 252.80254,164.16771 254.39558,163.23116 C255.98862,162.29461 257.58166,161.68682 259.1747,161.34125 C260.76774,160.99568 262.36079,160.91234 263.95383,161.0254 C265.54687,161.13846 267.13991,161.44793 268.73295,161.89712 C270.32599,162.34632 271.91903,162.93525 273.51208,163.62151 C275.10512,164.30778 276.69816,165.09137 278.2912,165.94525 C279.88424,166.79913 281.47728,167.7233 283.07032,168.70369 C284.66337,169.68408 286.25641,170.72069 287.84945,171.80787 C289.44249,172.89505 291.03553,174.03281 292.62857,175.21895 C294.22162,176.40509 295.81466,177.63962 297.4077,178.92007 C299.00074,180.20053 300.59378,181.5269 302.18682,182.89488 C303.77986,184.26286 305.37291,185.67244 306.96595,187.11816 C308.55899,188.56388 310.15203,190.04575 311.74507,191.55952 C313.33811,193.07328 314.93115,194.61895 316.5242,196.19631 C318.11724,197.77367 319.71028,199.38271 321.30332,201.02927 C322.89636,202.67582 324.4894,204.35988 326.08244,206.09352 C327.67549,207.82715 329.26853,209.61037 330.86157,211.45953 C332.45461,213.30868 334.04765,215.22379 335.64069,217.22165 C337.23373,219.21951 338.82678,221.30012 340.41982,223.4758 C342.01286,225.65148 343.6059,227.92223 345.19894,230.29114 C346.79198,232.66005 348.38502,235.12711 349.97807,237.68283 C351.57111,240.23856 353.16415,242.88296 354.75719,245.59307 C356.35023,248.30318 357.94327,251.07901 359.53631,253.88607 C361.12936,256.69312 362.7224,259.53141 364.31544,262.35943 C365.90848,265.18746 367.50152,268.00522 369.09456,270.77042 C370.68761,273.53561 372.28065,276.24824 373.87369,278.87167 C375.46673,281.4951 377.05977,284.02933 378.65281,286.44877 C380.24585,288.86821 381.8389,291.17284 383.43194,293.35113 C385.02498,295.52941 386.61802,297.58135 388.21106,299.50961 C389.8041,301.43787 391.39714,303.24245 392.99019,304.93774 C394.58323,306.63303 396.17627,308.21902 397.76931,309.71747 C399.36235,311.21593 400.95539,312.62685 402.54843,313.97443 C404.14148,315.32201 405.73452,316.60625 407.32756,317.84946 C408.9206,319.09266 410.51364,320.29482 412.10668,321.47343 C413.69972,322.65203 415.29277,323.80708 416.88581,324.95008 C418.47885,326.09308 420.07189,327.22401 421.66493,328.34868 C423.25797,329.47334 424.85101,330.59172 426.44406,331.70508 C428.0371,332.81843 429.63014,333.92674 431.22318,335.02817 C432.81622,336.12959 434.40926,337.22412 436.00231,338.30815 C437.59535,339.39217 439.18839,340.46569 440.78143,341.52442 C442.37447,342.58315 443.96751,343.62709 445.56055,344.65232 C447.1536,345.67756 448.74664,346.68409 450.33968,347.66946 C451.93272,348.65484 453.52576,349.61907 455.1188,350.56242 C456.71184,351.50578 458.30489,352.42826 459.89793,353.33409 C461.49097,354.23993 463.08401,355.1291 464.67705,356.01054 C466.27009,356.89198 467.86313,357.76567 469.45618,358.64515 C471.04922,359.52463 472.64226,360.4099 474.2353,361.31783 C475.82834,362.22576 477.42138,363.15637 479.01442,364.12761 C480.60747,365.09884 482.20051,366.11071 483.79355,367.17923 C485.38659,368.24776 486.97963,369.37294 488.57267,370.56586 C490.16571,371.75879 491.75876,373.01945 493.3518,374.35159 C494.94484,375.68374 496.53788,377.08736 498.13092,378.55768 C499.72396,380.02799 501.317,381.56499 502.91005,383.15556 C504.50309,384.74612 506.09613,386.39025 507.68917,388.06796 C509.28221,389.74567 510.87525,391.45696 512.4683,393.17751 C514.06134,394.89806 515.65438,396.62788 517.24742,398.34081 C520.4335,401.76667 523.61959,405.12502 526.80567,408.22424" id="hem2Area" class="data density"/>
	</g>
	<g id="all2Area" class="layer">
		<path d="M 50.661866 409.9387 C54.223371,406.60172 57.784877,402.94871 61.346383,399.35488 C63.127135,397.55797 64.907888,395.77585 66.688641,394.06244 C68.469394,392.34903 70.250147,390.70434 72.0309,389.17979 C73.811652,387.65524 75.592405,386.25085 77.373158,385.00983 C79.153911,383.76882 80.934664,382.6912 82.715416,381.80625 C84.496169,380.9213 86.276922,380.22903 88.057675,379.74149 C89.838428,379.25396 91.619181,378.97117 93.399933,378.88738 C95.180686,378.80359 96.961439,378.9188 98.742192,379.21156 C100.52294,379.50431 102.3037,379.97462 104.08445,380.58934 C105.8652,381.20405 107.64596,381.96318 109.42671,382.82682 C111.20746,383.69047 112.98821,384.65863 114.76897,385.68952 C116.54972,386.72042 118.33047,387.81405 120.11123,388.93087 C121.89198,390.04768 123.67273,391.18769 125.45348,392.31667 C127.23424,393.44564 129.01499,394.56359 130.79574,395.64358 C132.5765,396.72358 134.35725,397.76564 136.138,398.75117 C137.91875,399.73669 139.69951,400.66569 141.48026,401.52799 C143.26101,402.3903 145.04177,403.1859 146.82252,403.91229 C148.60327,404.63867 150.38402,405.29584 152.16478,405.88722 C153.94553,406.47861 155.72628,407.00421 157.50704,407.47092 C159.28779,407.93763 161.06854,408.34545 162.84929,408.70159 C164.63005,409.05773 166.4108,409.36219 168.19155,409.61928 C169.9723,409.87637 171.75306,410.08609 173.53381,410.24723 C175.31456,410.40838 177.09532,410.52095 178.87607,410.57699 C180.65682,410.63302 182.43757,410.63252 184.21833,410.5614 C185.99908,410.49029 187.77983,410.34857 189.56059,410.11853 C191.34134,409.8885 193.12209,409.57015 194.90284,409.14577 C196.6836,408.72139 198.46435,408.19097 200.2451,407.54033 C202.02586,406.88969 203.80661,406.11882 205.58736,405.21919 C207.36811,404.31956 209.14887,403.29117 210.92962,402.13111 C212.71037,400.97105 214.49113,399.67931 216.27188,398.25642 C218.05263,396.83353 219.83338,395.27948 221.61414,393.59507 C223.39489,391.91065 225.17564,390.09587 226.9564,388.14932 C228.73715,386.20276 230.5179,384.12444 232.29865,381.91067 C234.07941,379.6969 235.86016,377.34768 237.64091,374.86012 C239.42166,372.37255 241.20242,369.74664 242.98317,366.98581 C244.76392,364.22499 246.54468,361.32924 248.32543,358.31461 C250.10618,355.29998 251.88693,352.16645 253.66769,348.94712 C255.44844,345.72779 257.22919,342.42265 259.00995,339.08239 C260.7907,335.74214 262.57145,332.36676 264.3522,329.0202 C266.13296,325.67364 267.91371,322.35589 269.69446,319.13543 C271.47522,315.91496 273.25597,312.79178 275.03672,309.82785 C276.81747,306.86393 278.59823,304.05926 280.37898,301.45871 C282.15973,298.85816 283.94049,296.46173 285.72124,294.28959 C287.50199,292.11744 289.28274,290.16959 291.0635,288.43868 C292.84425,286.70778 294.625,285.19383 296.40576,283.8643 C298.18651,282.53476 299.96726,281.38964 301.74801,280.37761 C303.52877,279.36558 305.30952,278.48665 307.09027,277.67934 C308.87103,276.87204 310.65178,276.13637 312.43253,275.40954 C314.21328,274.68271 315.99404,273.96471 317.77479,273.19871 C319.55554,272.43271 321.33629,271.6187 323.11705,270.71082 C324.8978,269.80294 326.67855,268.80117 328.45931,267.67349 C330.24006,266.5458 332.02081,265.2922 333.80156,263.89573 C335.58232,262.49926 337.36307,260.95994 339.14382,259.27631 C340.92458,257.59267 342.70533,255.76474 344.48608,253.80621 C346.26683,251.84769 348.04759,249.75859 349.82834,247.56653 C351.60909,245.37446 353.38985,243.07945 355.1706,240.72025 C356.95135,238.36105 358.7321,235.93768 360.51286,233.49548 C362.29361,231.05327 364.07436,228.59225 365.85512,226.15831 C367.63587,223.72437 369.41662,221.31752 371.19737,218.97785 C372.97813,216.63818 374.75888,214.3657 376.53963,212.18971 C378.32039,210.01372 380.10114,207.93422 381.88189,205.96765 C383.66264,204.00108 385.4434,202.14744 387.22415,200.41189 C389.0049,198.67635 390.78566,197.0589 392.56641,195.55821 C394.34716,194.05752 396.12791,192.67359 397.90867,191.40485 C399.68942,190.13612 401.47017,188.98257 403.25092,187.948 C405.03168,186.91343 406.81243,185.99783 408.59318,185.21335 C410.37394,184.42887 412.15469,183.7755 413.93544,183.27328 C415.71619,182.77107 417.49695,182.42001 419.2777,182.24446 C421.05845,182.06891 422.83921,182.06887 424.61996,182.26751 C426.40071,182.46616 428.18146,182.8635 429.96222,183.47588 C431.74297,184.08827 433.52372,184.91569 435.30448,185.96335 C437.08523,187.01101 438.86598,188.2789 440.64673,189.75907 C442.42749,191.23924 444.20824,192.93169 445.98899,194.81617 C447.76975,196.70064 449.5505,198.77714 451.33125,201.01649 C453.112,203.25584 454.89276,205.65804 456.67351,208.19034 C458.45426,210.72263 460.23502,213.38501 462.01577,216.14717 C463.79652,218.90933 465.57727,221.77128 467.35803,224.71075 C469.13878,227.65022 470.91953,230.66721 472.70028,233.75136 C474.48104,236.83551 476.26179,239.98682 478.04254,243.20813 C479.8233,246.42944 481.60405,249.72075 483.3848,253.09646 C485.16555,256.47218 486.94631,259.9323 488.72706,263.49835 C490.50781,267.06441 492.28857,270.73641 494.06932,274.53629 C495.85007,278.33617 497.63082,282.26394 499.41158,286.33393 C501.19233,290.40392 502.97308,294.61613 504.75384,298.96926 C506.53459,303.32239 508.31534,307.81644 510.09609,312.42826 C511.87685,317.04009 513.6576,321.76969 515.43835,326.5695 C517.21911,331.36932 518.99986,336.23935 520.78061,341.11019 C522.56136,345.98103 524.34212,350.85267 526.12287,355.6418 C527.90362,360.43093 529.68438,365.13755 531.46513,369.67648 C533.24588,374.2154 535.02663,378.58663 536.80739,382.71645 C538.58814,386.84628 540.36889,390.73469 542.14965,394.33073 C543.9304,397.92676 545.71115,401.23042 547.4919,404.21982 C549.27266,407.20922 551.05341,409.88435 552.83416,412.25262 C554.61491,414.62089 556.39567,416.68228 558.17642,418.46813 C559.95717,420.25399 561.73793,421.7643 563.51868,423.04539 C565.29943,424.32647 567.08018,425.37832 568.86094,426.25335 C572.42244,428.0034 575.98395,429.04617 579.54545,429.7643" id="all2Area" class="data density"/>
	</g>
	<g id="hemAreas" class="layer">
		<path d="M 56.015986 401.43349 C59.184423,396.97612 62.352859,392.41371 65.521296,388.51433 C67.105515,386.56463 68.689733,384.78069 70.273951,383.24438 C71.85817,381.70806 73.442388,380.41937 75.026606,379.42986 C76.610825,378.44034 78.195043,377.75002 79.779261,377.37122 C81.36348,376.99243 82.947698,376.92518 84.531916,377.14196 C86.116135,377.35874 87.700353,377.85955 89.284571,378.58481 C90.86879,379.31007 92.453008,380.25978 94.037227,381.3559 C95.621445,382.45203 97.205663,383.69455 98.789882,385.00256 C100.3741,386.31056 101.95832,387.68404 103.54254,389.05274 C105.12676,390.42145 106.71097,391.78538 108.29519,393.0937 C109.87941,394.40203 111.46363,395.65476 113.04785,396.82333 C114.63207,397.99189 116.21628,399.0763 117.8005,400.06788 C119.38472,401.05946 120.96894,401.95821 122.55316,402.76962 C124.13738,403.58104 125.72159,404.30512 127.30581,404.95459 C128.89003,405.60406 130.47425,406.17892 132.05847,406.69264 C133.64269,407.20635 135.2269,407.65893 136.81112,408.05928 C138.39534,408.45963 139.97956,408.80775 141.56378,409.10371 C143.148,409.39967 144.73221,409.64347 146.31643,409.82253 C147.90065,410.00159 149.48487,410.11589 151.06909,410.1365 C152.65331,410.1571 154.23752,410.08401 155.82174,409.86863 C157.40596,409.65326 158.99018,409.2956 160.5744,408.72565 C162.15862,408.1557 163.74283,407.37345 165.32705,406.28857 C166.91127,405.20368 168.49549,403.81616 170.07971,402.02057 C171.66393,400.22498 173.24814,398.02131 174.83236,395.29888 C176.41658,392.57645 178.0008,389.33526 179.58502,385.47314 C181.16924,381.61102 182.75345,377.12798 184.33767,371.94648 C185.92189,366.76497 187.50611,360.88501 189.09033,354.26976 C190.67455,347.65451 192.25876,340.30397 193.84298,332.23559 C195.4272,324.16722 197.01142,315.38101 198.59564,305.95741 C200.17986,296.5338 201.76407,286.47279 203.34829,275.91953 C204.93251,265.36627 206.51673,254.32075 208.10095,242.98599 C209.68517,231.65123 211.26938,220.02724 212.8536,208.35883 C214.43782,196.69042 216.02204,184.97758 217.60626,173.48252 C219.19048,161.98746 220.77469,150.71018 222.35891,139.90072 C223.94313,129.09126 225.52735,118.74961 227.11157,109.08443 C228.69579,99.419253 230.28,90.430534 231.86422,82.263048 C233.44844,74.095561 235.03266,66.749307 236.61688,60.294929 C238.2011,53.840551 239.78532,48.278049 241.36953,43.608111 C242.95375,38.938173 244.53797,35.160799 246.12219,32.223193 C247.70641,29.285587 249.29063,27.187749 250.87484,25.846373 C252.45906,24.504997 254.04328,23.920082 255.6275,24 C257.21172,24.079918 258.79594,24.824667 260.38015,26.149645 C261.96437,27.474622 263.54859,29.379826 265.13281,31.793356 C266.71703,34.206886 268.30125,37.128741 269.88546,40.496707 C271.46968,43.864673 273.0539,47.67875 274.63812,51.878564 C276.22234,56.078377 277.80656,60.663927 279.39077,65.568927 C280.97499,70.473927 282.55921,75.698377 284.14343,81.16645 C285.72765,86.634523 287.31187,92.346219 288.89608,98.21843 C290.4803,104.09064 292.06452,110.12337 293.64874,116.23349 C295.23296,122.34361 296.81718,128.53113 298.40139,134.72236 C299.98561,140.91359 301.56983,147.10854 303.15405,153.25104 C304.73827,159.39355 306.32249,165.48361 307.9067,171.48652 C309.49092,177.48943 311.07514,183.40517 312.65936,189.21888 C314.24358,195.0326 315.8278,200.74428 317.41201,206.35245 C318.99623,211.96061 320.58045,217.46526 322.16467,222.86907 C323.74889,228.27288 325.33311,233.57584 326.91732,238.77585 C328.50154,243.97587 330.08576,249.07293 331.66998,254.05449 C333.2542,259.03605 334.83842,263.9021 336.42263,268.62918 C338.00685,273.35625 339.59107,277.94436 341.17529,282.36398 C342.75951,286.78361 344.34373,291.03475 345.92794,295.09013 C347.51216,299.1455 349.09638,303.00511 350.6806,306.65232 C352.26482,310.29953 353.84904,313.73435 355.43325,316.95606 C357.01747,320.17778 358.60169,323.18639 360.18591,325.99732 C361.77013,328.80825 363.35435,331.42149 364.93856,333.86382 C366.52278,336.30616 368.107,338.57758 369.69122,340.70866 C371.27544,342.83974 372.85966,344.83047 374.44388,346.70768 C376.02809,348.5849 377.61231,350.3486 379.19653,352.01701 C380.78075,353.68543 382.36497,355.25856 383.94919,356.74493 C385.5334,358.23131 387.11762,359.63093 388.70184,360.94501 C390.28606,362.25908 391.87028,363.48761 393.4545,364.62889 C395.03871,365.77016 396.62293,366.82418 398.20715,367.79106 C399.79137,368.75794 401.37559,369.63769 402.95981,370.43591 C404.54402,371.23413 406.12824,371.95083 407.71246,372.59895 C409.29668,373.24707 410.8809,373.82661 412.46512,374.35764 C414.04933,374.88867 415.63355,375.3712 417.21777,375.83042 C418.80199,376.28964 420.38621,376.72554 421.97043,377.1651 C423.55464,377.60465 425.13886,378.04786 426.72308,378.51935 C428.3073,378.99085 429.89152,379.49064 431.47574,380.03704 C433.05995,380.58343 434.64417,381.17645 436.22839,381.82497 C437.81261,382.4735 439.39683,383.17754 440.98105,383.93518 C442.56526,384.69283 444.14948,385.50408 445.7337,386.35702 C447.31792,387.20995 448.90214,388.10455 450.48636,389.02179 C452.07057,389.93903 453.65479,390.8789 455.23901,391.81962 C456.82323,392.76033 458.40745,393.7019 459.99167,394.62449 C461.57588,395.54708 463.1601,396.45069 464.74432,397.32122 C466.32854,398.19176 467.91276,399.02922 469.49698,399.82714 C471.08119,400.62506 472.66541,401.38344 474.24963,402.10337 C475.83385,402.8233 477.41807,403.50477 479.00229,404.15476 C480.5865,404.80475 482.17072,405.42327 483.75494,406.0209 C485.33916,406.61853 486.92338,407.19527 488.5076,407.76309 C490.09181,408.33092 491.67603,408.88983 493.26025,409.45134 C494.84447,410.01285 496.42869,410.57696 498.01291,411.15313 C499.59712,411.7293 501.18134,412.31754 502.76556,412.9238 C504.34978,413.53005 505.934,414.15433 507.51822,414.79777 C509.10244,415.44122 510.68665,416.10385 512.27087,416.78127 C513.85509,417.45869 515.43931,418.1509 517.02353,418.84844 C520.19196,420.24351 523.3604,421.65984 526.52884,422.99025" id="hemAreas" class="data density"/>
	</g>
	<g id="allArea" class="layer">
		<path d="M 50.454546 410.26389 C53.670052,406.94171 56.885558,403.32254 60.101064,399.83416 C61.708817,398.08997 63.31657,396.37848 64.924323,394.76025 C66.532076,393.14202 68.139829,391.61706 69.747582,390.24146 C71.355335,388.86586 72.963088,387.63962 74.570841,386.60677 C76.178594,385.57392 77.786347,384.73447 79.3941,384.11296 C81.001853,383.49145 82.609606,383.08788 84.217359,382.90352 C85.825112,382.71916 87.432865,382.75401 89.040618,382.98654 C90.648371,383.21908 92.256124,383.64931 93.863877,384.23785 C95.47163,384.82639 97.079383,385.57323 98.687136,386.42901 C100.29489,387.28479 101.90264,388.2495 103.51039,389.27247 C105.11815,390.29545 106.7259,391.37669 108.33365,392.47155 C109.94141,393.56641 111.54916,394.67489 113.15691,395.76282 C114.76467,396.85074 116.37242,397.91811 117.98017,398.94246 C119.58792,399.96681 121.19568,400.94814 122.80343,401.87444 C124.41118,402.80073 126.01894,403.67199 127.62669,404.48408 C129.23444,405.29617 130.8422,406.04909 132.44995,406.74387 C134.0577,407.43866 135.66545,408.07532 137.27321,408.65796 C138.88096,409.24061 140.48871,409.76924 142.09647,410.24972 C143.70422,410.7302 145.31197,411.16252 146.91973,411.55353 C148.52748,411.94455 150.13523,412.29425 151.74298,412.61 C153.35074,412.92574 154.95849,413.20753 156.56624,413.46263 C158.174,413.71773 159.78175,413.94615 161.3895,414.15431 C162.99726,414.36246 164.60501,414.55036 166.21276,414.72245 C167.82051,414.89454 169.42827,415.05082 171.03602,415.19256 C172.64377,415.3343 174.25153,415.46149 175.85928,415.5711 C177.46703,415.6807 179.07479,415.77272 180.68254,415.83935 C182.29029,415.90597 183.89804,415.94719 185.5058,415.95094 C187.11355,415.95469 188.7213,415.92097 190.32906,415.83506 C191.93681,415.74915 193.54456,415.61106 195.15232,415.40587 C196.76007,415.20068 198.36782,414.92839 199.97557,414.57636 C201.58333,414.22433 203.19108,413.79256 204.79883,413.27234 C206.40659,412.75211 208.01434,412.14342 209.62209,411.44161 C211.22985,410.7398 212.8376,409.94486 214.44535,409.05477 C216.0531,408.16467 217.66086,407.17941 219.26861,406.09727 C220.87636,405.01512 222.48412,403.83608 224.09187,402.5566 C225.69962,401.27712 227.30738,399.89719 228.91513,398.41056 C230.52288,396.92393 232.13063,395.3306 233.73839,393.62239 C235.34614,391.91419 236.95389,390.09111 238.56165,388.14505 C240.1694,386.19899 241.77715,384.12996 243.38491,381.93197 C244.99266,379.73398 246.60041,377.40702 248.20816,374.94816 C249.81592,372.4893 251.42367,369.89854 253.03142,367.17524 C254.63918,364.45195 256.24693,361.59613 257.85468,358.60768 C259.46244,355.61923 261.07019,352.49816 262.67794,349.24333 C264.28569,345.98849 265.89345,342.59988 267.5012,339.07536 C269.10895,335.55083 270.71671,331.89039 272.32446,328.0931 C273.93221,324.29581 275.53997,320.36167 277.14772,316.29481 C278.75547,312.22794 280.36322,308.02835 281.97098,303.70902 C283.57873,299.3897 285.18648,294.95065 286.79424,290.41589 C288.40199,285.88113 290.00974,281.25066 291.6175,276.55878 C293.22525,271.8669 294.833,267.11361 296.44075,262.33991 C298.04851,257.56621 299.65626,252.77209 301.26401,247.99986 C302.87177,243.22762 304.47952,238.47726 306.08727,233.78691 C307.69503,229.09656 309.30278,224.46621 310.91053,219.92606 C312.51828,215.3859 314.12604,210.93593 315.73379,206.59753 C317.34154,202.25913 318.9493,198.0323 320.55705,193.93197 C322.1648,189.83163 323.77256,185.85779 325.38031,182.02364 C326.98806,178.1895 328.59581,174.49504 330.20357,170.95712 C331.81132,167.4192 333.41907,164.03781 335.02683,160.8372 C336.63458,157.63659 338.24233,154.61676 339.85009,151.80965 C341.45784,149.00254 343.06559,146.40816 344.67334,144.06204 C346.2811,141.71592 347.88885,139.61806 349.4966,137.79981 C351.10436,135.98157 352.71211,134.44295 354.31986,133.20192 C355.92762,131.96089 357.53537,131.01746 359.14312,130.36876 C360.75087,129.72007 362.35863,129.36611 363.96638,129.28062 C365.57413,129.19512 367.18189,129.37809 368.78964,129.78384 C370.39739,130.18959 372.00515,130.81811 373.6129,131.61452 C375.22065,132.41092 376.8284,133.3752 378.43616,134.45681 C380.04391,135.53842 381.65166,136.73737 383.25942,138.02004 C384.86717,139.30271 386.47492,140.66911 388.08268,142.10985 C389.69043,143.55058 391.29818,145.06564 392.90593,146.66925 C394.51369,148.27285 396.12144,149.965 397.72919,151.77537 C399.33695,153.58575 400.9447,155.51436 402.55245,157.59388 C404.16021,159.67341 405.76796,161.90385 407.37571,164.3085 C408.98346,166.71315 410.59122,169.29202 412.19897,172.05076 C413.80672,174.8095 415.41448,177.74811 417.02223,180.85235 C418.62998,183.95659 420.23774,187.22646 421.84549,190.63112 C423.45324,194.03578 425.06099,197.57522 426.66875,201.20863 C428.2765,204.84204 429.88425,208.56943 431.49201,212.3474 C433.09976,216.12537 434.70751,219.95393 436.31527,223.79332 C437.92302,227.63271 439.53077,231.48293 441.13852,235.31183 C442.74628,239.14072 444.35403,242.9483 445.96178,246.71171 C447.56954,250.47512 449.17729,254.19437 450.78504,257.85569 C452.3928,261.51701 454.00055,265.12041 455.6083,268.65965 C457.21605,272.19889 458.82381,275.67398 460.43156,279.08397 C462.03931,282.49396 463.64707,285.83885 465.25482,289.12074 C466.86257,292.40264 468.47033,295.62152 470.07808,298.78085 C471.68583,301.94018 473.29358,305.03995 474.90134,308.08424 C476.50909,311.12852 478.11684,314.11731 479.7246,317.05551 C481.33235,319.99372 482.9401,322.88134 484.54786,325.72491 C486.15561,328.56848 487.76336,331.368 489.37111,334.13234 C490.97887,336.89668 492.58662,339.62584 494.19437,342.3309 C495.80213,345.03596 497.40988,347.71692 499.01763,350.3856 C500.62539,353.05428 502.23314,355.71068 503.84089,358.36444 C505.44864,361.01819 507.0564,363.66931 508.66415,366.32152 C510.2719,368.97373 511.87966,371.62704 513.48741,374.27564 C515.09516,376.92424 516.70292,379.56813 518.31067,382.1907 C521.52617,387.43585 524.74168,392.59574 527.95719,397.44163" id="allArea" class="data density"/>
	</g>
	<g id="axis titles" class="layer">
		<text font-size="12" class="axis title" text-anchor="middle" x="606" y="426">Area</text>
	</g>
	<g id="legend" class="layer">
		<g id="hem2Area row">
			<line id="hem2Area" class="data legend" x1="550" x2="600" y1="19" y2="19"/>
			<text font-size="12" class="legend label" text-anchor="start" x="603" y="22">hem2Area</text>
		</g>
		<g id="all2Area row">
			<line id="all2Area" class="data legend" x1="550" x2="600" y1="34" y2="34"/>
			<text font-size="12" class="legend label" text-anchor="start" x="603" y="37">all2Area</text>
		</g>
		<g id="hemAreas row">
			<line id="hemAreas" class="data legend" x1="550" x2="600" y1="49" y2="49"/>
			<text font-size="12" class="legend label" text-anchor="start" x="603" y="52">hemAreas</text>
		</g>
		<g id="allArea row">
			<line id="allArea" class="data legend" x1="550" x2="600" y1="64" y2="64"/>
			<text font-size="12" class="legend label" text-anchor="start" x="603" y="67">allArea</text>
		</g>
	</g>
</svg>
