<?xml version='1.0' encoding='UTF-8'?>
<!DOCTYPE svg PUBLIC "-//W3C//DTD SVG 1.0//EN" "http://www.w3.org/TR/2001/REC-SVG-20010904/DTD/svg10.dtd ">
<svg height="480" viewBox="0 0 640 480" width="640" xmlns="http://www.w3.org/2000/svg" >
	<defs>
		<style type="text/css">
			<![CDATA[
				.data {
					fill: none;
					stroke: black;
					stroke-linecap: round;
					stroke-width: 1.5;
				}
				[class~="density"][id="all2Curvature"] {
					fill: none;
					stroke: rgb(255, 20, 247);
				}
				[class~="density"][id="allCurvature"] {
					fill: none;
					stroke: rgb(255, 147, 0);
				}
				[class~="density"][id="hem2Curvature"] {
					fill: none;
					stroke: rgb(31, 234, 181);
				}
				[class~="density"][id="hemCurvature"] {
					fill: none;
					stroke: rgb(67, 0, 246);
				}
				[class~="legend"][id="all2Curvature"] {
					fill: none;
					stroke: rgb(255, 20, 247);
				}
				[class~="legend"][id="allCurvature"] {
					fill: none;
					stroke: rgb(255, 147, 0);
				}
				[class~="legend"][id="hem2Curvature"] {
					fill: none;
					stroke: rgb(31, 234, 181);
				}
				[class~="legend"][id="hemCurvature"] {
					fill: none;
					stroke: rgb(67, 0, 246);
				}
				line.axis {
					stroke: dimgrey;
					stroke-width: 0.75;
				}
				line.colorbar.tic {
					stroke: black;
					stroke-linecap: butt;
					stroke-width: 0.5;
				}
				line.scalebar {
					stroke: black;
					stroke-width: 0.75;
				}
				line.tic {
					stroke-linecap: round;
				}
				rect.colorbar {
					fill: none;
					stroke: black;
					stroke-width: 0.5;
				}
				rect.plot {
					fill: none;
					stroke: none;
				}
				text {
					font-family: Times;
				}
				text.axis {
					fill: dimgrey;
				}
				text.colorbar.label {
					fill: black;
				}
				text.label {
					font-weight: normal;
				}
				text.title {
					font-weight: bold;
				}
			]]>
		</style>
	</defs>
	<g id="axes" class="layer">
		<g id="x-axis">
			<line id="x-axis" class="axis" x1="24" x2="606" y1="432" y2="432"/>
			<g id="x-axis tics">
				<line id="tic at 0" class="axis tic" x1="46.986437" x2="46.986437" y1="429" y2="435"/>
				<line id="tic at 100" class="axis tic" x1="102.16864" x2="102.16864" y1="429" y2="435"/>
				<line id="tic at 200" class="axis tic" x1="157.35084" x2="157.35084" y1="429" y2="435"/>
				<line id="tic at 300" class="axis tic" x1="212.53305" x2="212.53305" y1="429" y2="435"/>
				<line id="tic at 400" class="axis tic" x1="267.71525" x2="267.71525" y1="429" y2="435"/>
				<line id="tic at 500" class="axis tic" x1="322.89745" x2="322.89745" y1="429" y2="435"/>
				<line id="tic at 600" class="axis tic" x1="378.07966" x2="378.07966" y1="429" y2="435"/>
				<line id="tic at 700" class="axis tic" x1="433.26186" x2="433.26186" y1="429" y2="435"/>
				<line id="tic at 800" class="axis tic" x1="488.44406" x2="488.44406" y1="429" y2="435"/>
				<line id="tic at 900" class="axis tic" x1="543.62627" x2="543.62627" y1="429" y2="435"/>
				<line id="tic at 1000" class="axis tic" x1="598.80847" x2="598.80847" y1="429" y2="435"/>
			</g>
			<g id="x-axis small tics">
				<line id="small tic at 50" class="axis tic small" x1="74.577539" x2="74.577539" y1="430.5" y2="433.5"/>
				<line id="small tic at 150" class="axis tic small" x1="129.75974" x2="129.75974" y1="430.5" y2="433.5"/>
				<line id="small tic at 250" class="axis tic small" x1="184.94195" x2="184.94195" y1="430.5" y2="433.5"/>
				<line id="small tic at 350" class="axis tic small" x1="240.12415" x2="240.12415" y1="430.5" y2="433.5"/>
				<line id="small tic at 450" class="axis tic small" x1="295.30635" x2="295.30635" y1="430.5" y2="433.5"/>
				<line id="small tic at 550" class="axis tic small" x1="350.48856" x2="350.48856" y1="430.5" y2="433.5"/>
				<line id="small tic at 650" class="axis tic small" x1="405.67076" x2="405.67076" y1="430.5" y2="433.5"/>
				<line id="small tic at 750" class="axis tic small" x1="460.85296" x2="460.85296" y1="430.5" y2="433.5"/>
				<line id="small tic at 850" class="axis tic small" x1="516.03516" x2="516.03516" y1="430.5" y2="433.5"/>
				<line id="small tic at 950" class="axis tic small" x1="571.21737" x2="571.21737" y1="430.5" y2="433.5"/>
			</g>
		</g>
		<g id="x-axis labels">
			<text font-size="12" class="axis label" text-anchor="middle" x="46.986437" y="450">0</text>
			<text font-size="12" class="axis label" text-anchor="middle" x="102.16864" y="450">100</text>
			<text font-size="12" class="axis label" text-anchor="middle" x="157.35084" y="450">200</text>
			<text font-size="12" class="axis label" text-anchor="middle" x="212.53305" y="450">300</text>
			<text font-size="12" class="axis label" text-anchor="middle" x="267.71525" y="450">400</text>
			<text font-size="12" class="axis label" text-anchor="middle" x="322.89745" y="450">500</text>
			<text font-size="12" class="axis label" text-anchor="middle" x="378.07966" y="450">600</text>
			<text font-size="12" class="axis label" text-anchor="middle" x="433.26186" y="450">700</text>
			<text font-size="12" class="axis label" text-anchor="middle" x="488.44406" y="450">800</text>
			<text font-size="12" class="axis label" text-anchor="middle" x="543.62627" y="450">900</text>
			<text font-size="12" class="axis label" text-anchor="middle" x="598.80847" y="450">1000</text>
		</g>
		<g id="y-axis">
			<line id="y-axis" class="axis" x1="46.986437" x2="46.986437" y1="432" y2="24"/>
			<g id="y-axis tics">
				<line id="tic at 0.0025" class="axis tic" x1="49.986437" x2="43.986437" y1="397.9225" y2="397.9225"/>
				<line id="tic at 0.005" class="axis tic" x1="49.986437" x2="43.986437" y1="363.845" y2="363.845"/>
				<line id="tic at 0.0075" class="axis tic" x1="49.986437" x2="43.986437" y1="329.76751" y2="329.76751"/>
				<line id="tic at 0.01" class="axis tic" x1="49.986437" x2="43.986437" y1="295.69001" y2="295.69001"/>
				<line id="tic at 0.0125" class="axis tic" x1="49.986437" x2="43.986437" y1="261.61251" y2="261.61251"/>
				<line id="tic at 0.015" class="axis tic" x1="49.986437" x2="43.986437" y1="227.53501" y2="227.53501"/>
				<line id="tic at 0.0175" class="axis tic" x1="49.986437" x2="43.986437" y1="193.45751" y2="193.45751"/>
				<line id="tic at 0.02" class="axis tic" x1="49.986437" x2="43.986437" y1="159.38002" y2="159.38002"/>
				<line id="tic at 0.0225" class="axis tic" x1="49.986437" x2="43.986437" y1="125.30252" y2="125.30252"/>
				<line id="tic at 0.025" class="axis tic" x1="49.986437" x2="43.986437" y1="91.22502" y2="91.22502"/>
				<line id="tic at 0.0275" class="axis tic" x1="49.986437" x2="43.986437" y1="57.147523" y2="57.147523"/>
			</g>
			<g id="y-axis small tics">
				<line id="small tic at 0.00125" class="axis tic small" x1="48.486437" x2="45.486437" y1="414.96125" y2="414.96125"/>
				<line id="small tic at 0.00125" class="axis tic small" x1="48.486437" x2="45.486437" y1="414.96125" y2="414.96125"/>
				<line id="small tic at 0.00375" class="axis tic small" x1="48.486437" x2="45.486437" y1="380.88375" y2="380.88375"/>
				<line id="small tic at 0.00625" class="axis tic small" x1="48.486437" x2="45.486437" y1="346.80626" y2="346.80626"/>
				<line id="small tic at 0.00875" class="axis tic small" x1="48.486437" x2="45.486437" y1="312.72876" y2="312.72876"/>
				<line id="small tic at 0.01125" class="axis tic small" x1="48.486437" x2="45.486437" y1="278.65126" y2="278.65126"/>
				<line id="small tic at 0.01375" class="axis tic small" x1="48.486437" x2="45.486437" y1="244.57376" y2="244.57376"/>
				<line id="small tic at 0.01625" class="axis tic small" x1="48.486437" x2="45.486437" y1="210.49626" y2="210.49626"/>
				<line id="small tic at 0.01875" class="axis tic small" x1="48.486437" x2="45.486437" y1="176.41877" y2="176.41877"/>
				<line id="small tic at 0.02125" class="axis tic small" x1="48.486437" x2="45.486437" y1="142.34127" y2="142.34127"/>
				<line id="small tic at 0.02375" class="axis tic small" x1="48.486437" x2="45.486437" y1="108.26377" y2="108.26377"/>
				<line id="small tic at 0.02625" class="axis tic small" x1="48.486437" x2="45.486437" y1="74.186272" y2="74.186272"/>
				<line id="small tic at 0.02875" class="axis tic small" x1="48.486437" x2="45.486437" y1="40.108774" y2="40.108774"/>
			</g>
		</g>
		<g id="y-axis labels">
			<text font-size="12" class="axis label" text-anchor="end" x="40.986437" y="402.4225">0.0025</text>
			<text font-size="12" class="axis label" text-anchor="end" x="40.986437" y="368.345">0.005</text>
			<text font-size="12" class="axis label" text-anchor="end" x="40.986437" y="334.26751">0.0075</text>
			<text font-size="12" class="axis label" text-anchor="end" x="40.986437" y="300.19001">0.01</text>
			<text font-size="12" class="axis label" text-anchor="end" x="40.986437" y="266.11251">0.0125</text>
			<text font-size="12" class="axis label" text-anchor="end" x="40.986437" y="232.03501">0.015</text>
			<text font-size="12" class="axis label" text-anchor="end" x="40.986437" y="197.95751">0.0175</text>
			<text font-size="12" class="axis label" text-anchor="end" x="40.986437" y="163.88002">0.02</text>
			<text font-size="12" class="axis label" text-anchor="end" x="40.986437" y="129.80252">0.0225</text>
			<text font-size="12" class="axis label" text-anchor="end" x="40.986437" y="95.72502">0.025</text>
			<text font-size="12" class="axis label" text-anchor="end" x="40.986437" y="61.647523">0.0275</text>
		</g>
	</g>
	<g id="hemCurvature" class="layer">
		<path d="M 56.385567 217.44221 C58.165213,143.10705 59.94486,62.286396 61.724507,31.933421 C62.614331,16.756933 63.504154,14.197366 64.393977,24 C65.283801,33.802634 66.173624,55.967469 67.063448,83.923899 C67.953271,111.88033 68.843094,145.62835 69.732918,177.96226 C70.622741,210.29616 71.512565,241.21594 72.402388,267.29975 C73.292211,293.38356 74.182035,314.63139 75.071858,331.29471 C75.961682,347.95803 76.851505,360.03684 77.741329,369.20687 C78.631152,378.37689 79.520975,384.63812 80.410799,389.46171 C81.300622,394.2853 82.190446,397.67124 83.080269,400.43643 C83.970092,403.20162 84.859916,405.34606 85.749739,407.2031 C86.639563,409.06015 87.529386,410.62981 88.419209,412.03728 C89.309033,413.44476 90.198856,414.69005 91.08868,415.82142 C91.978503,416.95279 92.868326,417.97024 93.75815,418.8636 C94.647973,419.75697 95.537797,420.52624 96.42762,421.14088 C97.317444,421.75551 98.207267,422.21551 99.09709,422.52311 C99.986914,422.83071 100.87674,422.98593 101.76656,423.02095 C102.65638,423.05598 103.54621,422.97081 104.43603,422.80118 C105.32585,422.63154 106.21568,422.37744 107.1055,422.09391 C107.99532,421.81039 108.88515,421.49746 109.77497,421.25077 C110.66479,421.00409 111.55462,420.82365 112.44444,420.80133 C113.33426,420.77902 114.22409,420.91482 115.11391,421.21948 C116.00374,421.52414 116.89356,421.99767 117.78338,422.55283 C118.67321,423.10799 119.56303,423.74478 120.45285,424.33915 C121.34268,424.93352 122.2325,425.48547 123.12232,425.91416 C124.01215,426.34285 124.90197,426.64828 125.79179,426.83806 C126.68162,427.02784 127.57144,427.10197 128.46126,427.13849 C129.35109,427.17501 130.24091,427.17392 131.13073,427.20899 C132.02056,427.24405 132.91038,427.31527 133.8002,427.42783 C134.69003,427.54039 135.57985,427.69427 136.46967,427.84039 C137.3595,427.98651 138.24932,428.12486 139.13914,428.22094 C140.02897,428.31703 140.91879,428.37085 141.80861,428.397 C142.69844,428.42314 143.58826,428.42161 144.47808,428.42136 C145.36791,428.42112 146.25773,428.42217 147.14755,428.42299 C148.03738,428.42381 148.9272,428.42441 149.81702,428.40059 C150.70685,428.37678 151.59667,428.32856 152.4865,428.25161 C153.37632,428.17466 154.26614,428.06899 155.15597,427.96502 C156.04579,427.86105 156.93561,427.75878 157.82544,427.69492 C158.71526,427.63107 159.60508,427.60563 160.49491,427.63333 C161.38473,427.66102 162.27455,427.74186 163.16438,427.87048 C164.0542,427.99909 164.94402,428.17549 165.83385,428.38339 C166.72367,428.59129 167.61349,428.8307 168.50332,429.07186 C169.39314,429.31301 170.28296,429.5559 171.17279,429.76657 C172.06261,429.97723 172.95243,430.15567 173.84226,430.29255 C174.73208,430.42942 175.6219,430.52474 176.51173,430.60184 C177.40155,430.67894 178.29137,430.73783 179.1812,430.80238 C180.07102,430.86693 180.96084,430.93715 181.85067,431.00636 C182.74049,431.07557 183.63031,431.14377 184.52014,431.18226 C185.40996,431.22075 186.29978,431.22952 187.18961,431.19094 C188.07943,431.15236 188.96925,431.06642 189.85908,430.94851 C190.7489,430.8306 191.63873,430.68073 192.52855,430.54168 C193.41837,430.40263 194.3082,430.27439 195.19802,430.19698 C196.08784,430.11956 196.97767,430.09297 197.86749,430.1219 C198.75731,430.15083 199.64714,430.23529 200.53696,430.34357 C201.42678,430.45185 202.31661,430.58396 203.20643,430.70622 C204.09625,430.82848 204.98608,430.9409 205.8759,431.03626 C206.76572,431.13162 207.65555,431.20991 208.54537,431.28191 C209.43519,431.35391 210.32502,431.41962 211.21484,431.48454 C212.10466,431.54946 212.99449,431.6136 213.88431,431.67221 C214.77413,431.73082 215.66396,431.7839 216.55378,431.82683 C217.4436,431.86975 218.33343,431.90251 219.22325,431.92615 C220.11307,431.9498 221.0029,431.96432 221.89272,431.97312 C222.78254,431.98193 223.67237,431.98502 224.56219,431.98368 C225.45201,431.98233 226.34184,431.97655 227.23166,431.96423 C228.12149,431.95192 229.01131,431.93308 229.90113,431.90487 C230.79096,431.87667 231.68078,431.8391 232.5706,431.79455 C233.46043,431.75 234.35025,431.69846 235.24007,431.65112 C236.1299,431.60378 237.01972,431.56065 237.90954,431.53508 C238.79937,431.50951 239.68919,431.50151 240.57901,431.51385 C241.46884,431.5262 242.35866,431.55888 243.24848,431.60113 C244.13831,431.64338 245.02813,431.69519 245.91795,431.74321 C246.80778,431.79122 247.6976,431.83544 248.58742,431.87028 C249.47725,431.90512 250.36707,431.93058 251.25689,431.94858 C252.14672,431.96658 253.03654,431.97713 253.92636,431.98401 C254.81619,431.99089 255.70601,431.99412 256.59583,431.9961 C257.48566,431.99808 258.37548,431.99882 259.2653,431.99925 C260.15513,431.99968 261.04495,431.9998 261.93477,431.99983 C262.8246,431.99986 263.71442,431.99981 264.60424,431.99956 C265.49407,431.99931 266.38389,431.99887 267.27372,431.9976 C268.16354,431.99633 269.05336,431.99422 269.94319,431.98941 C270.83301,431.98459 271.72283,431.97706 272.61266,431.96328 C273.50248,431.9495 274.3923,431.92947 275.28213,431.90011 C276.17195,431.87075 277.06177,431.83205 277.9516,431.78679 C278.84142,431.74154 279.73124,431.68972 280.62107,431.64294 C281.51089,431.59616 282.40071,431.55441 283.29054,431.53079 C284.18036,431.50717 285.07018,431.50167 285.96001,431.5162 C286.84983,431.53073 287.73965,431.56528 288.62948,431.60857 C289.5193,431.65186 290.40912,431.70387 291.29895,431.75151 C292.18877,431.79914 293.07859,431.84239 293.96842,431.87622 C294.85824,431.91004 295.74806,431.93445 296.63789,431.95159 C297.52771,431.96874 298.41753,431.97863 299.30736,431.98495 C300.19718,431.99127 301.087,431.99403 301.97683,431.99514 C302.86665,431.99624 303.75647,431.9957 304.6463,431.99307 C305.53612,431.99044 306.42595,431.98572 307.31577,431.97616 C308.20559,431.9666 309.09542,431.9522 309.98524,431.92928 C310.87506,431.90636 311.76489,431.87493 312.65471,431.83477 C313.54453,431.79461 314.43436,431.74573 315.32418,431.69704 C317.10383,431.59966 318.88347,431.50302 320.66312,431.50793" id="hemCurvature" class="data density"/>
	</g>
	<g id="allCurvature" class="layer">
		<path d="M 51.382743 363.47675 C54.227462,326.83069 57.072181,253.97839 59.9169,205.34212 C61.33926,181.02399 62.761619,162.75986 64.183979,156.25742 C65.606338,149.75498 67.028698,155.01424 68.451058,168.59912 C69.873417,182.18401 71.295777,204.09452 72.718136,226.97322 C74.140496,249.85191 75.562856,273.69878 76.985215,294.26698 C78.407575,314.83518 79.829934,332.12471 81.252294,345.97743 C82.674654,359.83014 84.097013,370.24604 85.519373,378.42233 C86.941732,386.59861 88.364092,392.53528 89.786452,397.15021 C91.208811,401.76513 92.631171,405.0583 94.05353,407.58584 C95.47589,410.11337 96.898249,411.87528 98.320609,413.23556 C99.742969,414.59583 101.16533,415.55449 102.58769,416.29684 C104.01005,417.03919 105.43241,417.56523 106.85477,417.97602 C108.27713,418.38681 109.69949,418.68234 111.12185,418.96192 C112.5442,419.2415 113.96656,419.50514 115.38892,419.78985 C116.81128,420.07457 118.23364,420.38036 119.656,420.68263 C121.07836,420.9849 122.50072,421.28365 123.92308,421.58102 C125.34544,421.87839 126.7678,422.1744 128.19016,422.48744 C129.61252,422.80047 131.03488,423.13054 132.45724,423.45728 C133.8796,423.78402 135.30196,424.10744 136.72432,424.40418 C138.14668,424.70092 139.56904,424.97099 140.9914,425.22986 C142.41376,425.48872 143.83612,425.73639 145.25848,425.98599 C146.68084,426.23559 148.10319,426.48713 149.52555,426.72351 C150.94791,426.9599 152.37027,427.18112 153.79263,427.37838 C155.21499,427.57564 156.63735,427.74894 158.05971,427.90522 C159.48207,428.0615 160.90443,428.20077 162.32679,428.30469 C163.74915,428.40861 165.17151,428.47718 166.59387,428.48169 C168.01623,428.4862 169.43859,428.42664 170.86095,428.32827 C172.28331,428.2299 173.70567,428.09272 175.12803,427.98705 C176.55039,427.88138 177.97275,427.80722 179.39511,427.80583 C180.81747,427.80445 182.23982,427.87585 183.66218,428.0066 C185.08454,428.13735 186.5069,428.32745 187.92926,428.53249 C189.35162,428.73753 190.77398,428.95751 192.19634,429.13943 C193.6187,429.32135 195.04106,429.46521 196.46342,429.54706 C197.88578,429.6289 199.30814,429.64872 200.7305,429.64446 C202.15286,429.64019 203.57522,429.61184 204.99758,429.621 C206.41994,429.63015 207.8423,429.67682 209.26466,429.77158 C210.68702,429.86633 212.10938,430.00917 213.53174,430.15008 C214.9541,430.29099 216.37646,430.42997 217.79881,430.52161 C219.22117,430.61325 220.64353,430.65756 222.06589,430.66701 C223.48825,430.67646 224.91061,430.65107 226.33297,430.63942 C227.75533,430.62778 229.17769,430.62989 230.60005,430.67024 C232.02241,430.7106 233.44477,430.7892 234.86713,430.88585 C236.28949,430.9825 237.71185,431.09721 239.13421,431.19659 C240.55657,431.29597 241.97893,431.38004 243.40129,431.43763 C244.82365,431.49522 246.24601,431.52632 247.66837,431.54665 C249.09073,431.56698 250.51309,431.57653 251.93544,431.59238 C253.3578,431.60823 254.78016,431.63038 256.20252,431.65401 C257.62488,431.67763 259.04724,431.70273 260.4696,431.71293 C261.89196,431.72312 263.31432,431.7184 264.73668,431.69594 C266.15904,431.67348 267.5814,431.63327 269.00376,431.58977 C270.42612,431.54627 271.84848,431.49947 273.27084,431.46275 C274.6932,431.42603 276.11556,431.39938 277.53792,431.38118 C278.96028,431.36298 280.38264,431.35323 281.805,431.34465 C283.22736,431.33607 284.64972,431.32865 286.07208,431.32507 C287.49443,431.32149 288.91679,431.32173 290.33915,431.33291 C291.76151,431.34409 293.18387,431.3662 294.60623,431.39689 C296.02859,431.42757 297.45095,431.46681 298.87331,431.50653 C300.29567,431.54625 301.71803,431.58644 303.14039,431.62453 C304.56275,431.66262 305.98511,431.69862 307.40747,431.73306 C308.82983,431.7675 310.25219,431.80038 311.67455,431.82759 C313.09691,431.85479 314.51927,431.87632 315.94163,431.88549 C317.36399,431.89465 318.78635,431.89144 320.20871,431.87428 C321.63106,431.85712 323.05342,431.82601 324.47578,431.78931 C325.89814,431.75261 327.3205,431.71033 328.74286,431.67629 C330.16522,431.64225 331.58758,431.61646 333.00994,431.60528 C334.4323,431.5941 335.85466,431.59754 337.27702,431.61125 C338.69938,431.62495 340.12174,431.64893 341.5441,431.67726 C342.96646,431.7056 344.38882,431.7383 345.81118,431.77085 C347.23354,431.80339 348.6559,431.83578 350.07826,431.86253 C351.50062,431.88929 352.92298,431.91041 354.34534,431.92194 C355.7677,431.93347 357.19005,431.9354 358.61241,431.92839 C360.03477,431.92139 361.45713,431.90546 362.87949,431.88647 C364.30185,431.86748 365.72421,431.84543 367.14657,431.82697 C368.56893,431.8085 369.99129,431.79361 371.41365,431.78144 C372.83601,431.76928 374.25837,431.75983 375.68073,431.74747 C377.10309,431.73512 378.52545,431.71986 379.94781,431.70436 C381.37017,431.68886 382.79253,431.67311 384.21489,431.66739 C385.63725,431.66167 387.05961,431.66598 388.48197,431.6831 C389.90433,431.70022 391.32668,431.73014 392.74904,431.76385 C394.1714,431.79757 395.59376,431.83508 397.01612,431.86694 C398.43848,431.89881 399.86084,431.92504 401.2832,431.9438 C402.70556,431.96255 404.12792,431.97382 405.55028,431.97989 C406.97264,431.98596 408.395,431.98684 409.81736,431.98331 C411.23972,431.97977 412.66208,431.97183 414.08444,431.95893 C415.5068,431.94603 416.92916,431.92817 418.35152,431.90832 C419.77388,431.88847 421.19624,431.86663 422.6186,431.84984 C424.04096,431.83306 425.46331,431.82133 426.88567,431.8169 C428.30803,431.81247 429.73039,431.81533 431.15275,431.81864 C432.57511,431.82195 433.99747,431.82572 435.41983,431.82532 C436.84219,431.82492 438.26455,431.82034 439.68691,431.81731 C441.10927,431.81429 442.53163,431.81281 443.95399,431.81889 C445.37635,431.82498 446.79871,431.83863 448.22107,431.85625 C449.64343,431.87388 451.06579,431.89548 452.48815,431.91346 C453.91051,431.93145 455.33287,431.94582 456.75523,431.95276 C458.17759,431.9597 459.59995,431.95921 461.0223,431.95137 C462.44466,431.94353 463.86702,431.92835 465.28938,431.91034 C468.1341,431.8743 470.97882,431.82694 473.82354,431.82955" id="allCurvature" class="data density"/>
	</g>
	<g id="hem2Curvature" class="layer">
		<path d="M 51.587872 396.20173 C53.029221,378.36448 54.47057,345.45037 55.91192,300.81788 C56.632594,278.50163 57.353269,253.25579 58.073944,227.66551 C58.794618,202.07524 59.515293,176.14054 60.235968,153.37671 C60.956642,130.61288 61.677317,111.01992 62.397992,97.398504 C63.118666,83.777092 63.839341,76.127225 64.560016,74.988253 C65.280691,73.84928 66.001365,79.221203 66.72204,89.323086 C67.442715,99.424969 68.163389,114.25681 68.884064,131.02653 C69.604739,147.79625 70.325413,166.50385 71.046088,184.8589 C71.766763,203.21395 72.487437,221.21645 73.208112,237.74418 C73.928787,254.27192 74.649461,269.32489 75.370136,282.70931 C76.090811,296.09373 76.811485,307.80959 77.53216,318.06104 C78.252835,328.31248 78.973509,337.09951 79.694184,344.70034 C80.414859,352.30118 81.135534,358.71583 81.856208,364.21798 C82.576883,369.72012 83.297558,374.30977 84.018232,378.24167 C84.738907,382.17356 85.459582,385.4477 86.180256,388.26413 C86.900931,391.08056 87.621606,393.43928 88.34228,395.46999 C89.062955,397.5007 89.78363,399.2034 90.504304,400.66655 C91.224979,402.1297 91.945654,403.3533 92.666328,404.41391 C93.387003,405.47452 94.107678,406.37214 94.828352,407.16601 C95.549027,407.95988 96.269702,408.65 96.990377,409.26494 C97.711051,409.87988 98.431726,410.41964 99.152401,410.89889 C99.873075,411.37815 100.59375,411.7969 101.31442,412.18839 C102.0351,412.57988 102.75577,412.94411 103.47645,413.33243 C104.19712,413.72074 104.9178,414.13316 105.63847,414.59563 C106.35915,415.05811 107.07982,415.57064 107.8005,416.09887 C108.52117,416.62709 109.24185,417.171 109.96252,417.66124 C110.6832,418.15149 111.40387,418.58807 112.12454,418.93474 C112.84522,419.28141 113.56589,419.53818 114.28657,419.74025 C115.00724,419.94233 115.72792,420.08972 116.44859,420.25519 C117.16927,420.42067 117.88994,420.60424 118.61062,420.84803 C119.33129,421.09183 120.05197,421.39586 120.77264,421.74149 C121.49332,422.08713 122.21399,422.47438 122.93467,422.85557 C123.65534,423.23676 124.37601,423.61188 125.09669,423.95425 C125.81736,424.29662 126.53804,424.60624 127.25871,424.89375 C127.97939,425.18126 128.70006,425.44666 129.42074,425.71465 C130.14141,425.98263 130.86209,426.25319 131.58276,426.53436 C132.30344,426.81552 133.02411,427.10729 133.74479,427.39143 C134.46546,427.67557 135.18613,427.95208 135.90681,428.19029 C136.62748,428.4285 137.34816,428.6284 138.06883,428.76855 C138.78951,428.90869 139.51018,428.98907 140.23086,429.0102 C140.95153,429.03134 141.67221,428.99322 142.39288,428.91533 C143.11356,428.83744 143.83423,428.71976 144.55491,428.58841 C145.27558,428.45705 145.99625,428.312 146.71693,428.177 C147.4376,428.04199 148.15828,427.91703 148.87895,427.82238 C149.59963,427.72772 150.3203,427.66337 151.04098,427.64552 C151.76165,427.62768 152.48233,427.65634 153.203,427.73713 C153.92368,427.81792 154.64435,427.95083 155.36503,428.12333 C156.0857,428.29583 156.80638,428.50793 157.52705,428.73034 C158.24772,428.95276 158.9684,429.18549 159.68907,429.39449 C160.40975,429.60349 161.13042,429.78875 161.8511,429.92581 C162.57177,430.06287 163.29245,430.15173 164.01312,430.18594 C164.7338,430.22014 165.45447,430.19969 166.17515,430.13705 C166.89582,430.0744 167.6165,429.96957 168.33717,429.8498 C169.05784,429.73002 169.77852,429.59531 170.49919,429.4788 C171.21987,429.36228 171.94054,429.26397 172.66122,429.20831 C173.38189,429.15265 174.10257,429.13963 174.82324,429.17058 C175.54392,429.20153 176.26459,429.27644 176.98527,429.37192 C177.70594,429.46741 178.42662,429.58347 179.14729,429.68849 C179.86796,429.79351 180.58864,429.88749 181.30931,429.95286 C182.02999,430.01823 182.75066,430.055 183.47134,430.06971 C184.19201,430.08441 184.91269,430.07706 185.63336,430.07032 C186.35404,430.06358 187.07471,430.05746 187.79539,430.07361 C188.51606,430.08976 189.23674,430.12818 189.95741,430.19561 C190.67809,430.26303 191.39876,430.35945 192.11943,430.47359 C192.84011,430.58772 193.56078,430.71956 194.28146,430.84747 C195.00213,430.97538 195.72281,431.09936 196.44348,431.19936 C197.16416,431.29935 197.88483,431.37537 198.60551,431.41774 C199.32618,431.46011 200.04686,431.46883 200.76753,431.44804 C201.48821,431.42725 202.20888,431.37695 202.92955,431.31391 C203.65023,431.25088 204.3709,431.17511 205.09158,431.10959 C205.81225,431.04407 206.53293,430.98879 207.2536,430.96115 C207.97428,430.93351 208.69495,430.93352 209.41563,430.96285 C210.1363,430.99218 210.85698,431.05085 211.57765,431.12539 C212.29833,431.19993 213.019,431.29035 213.73968,431.37902 C214.46035,431.4677 215.18102,431.55463 215.9017,431.62903 C216.62237,431.70342 217.34305,431.76528 218.06372,431.81328 C218.7844,431.86128 219.50507,431.89542 220.22575,431.91953 C220.94642,431.94365 221.6671,431.95773 222.38777,431.96552 C223.10845,431.97331 223.82912,431.9748 224.5498,431.97115 C225.27047,431.96749 225.99114,431.95868 226.71182,431.94361 C227.43249,431.92854 228.15317,431.90721 228.87384,431.87862 C229.59452,431.85002 230.31519,431.81416 231.03587,431.77333 C231.75654,431.73249 232.47722,431.68669 233.19789,431.64295 C233.91857,431.59921 234.63924,431.55754 235.35992,431.52687 C236.08059,431.49621 236.80126,431.47655 237.52194,431.47275 C238.24261,431.46894 238.96329,431.48098 239.68396,431.50586 C240.40464,431.53074 241.12531,431.56845 241.84599,431.61052 C242.56666,431.65258 243.28734,431.69899 244.00801,431.74175 C244.72869,431.78452 245.44936,431.82365 246.17004,431.85562 C246.89071,431.88759 247.61139,431.9124 248.33206,431.93047 C249.05273,431.94853 249.77341,431.95985 250.49408,431.96582 C251.21476,431.97179 251.93543,431.97241 252.65611,431.9678 C253.37678,431.9632 254.09746,431.95335 254.81813,431.93694 C255.53881,431.92053 256.25948,431.89755 256.98016,431.86732 C257.70083,431.83709 258.42151,431.7996 259.14218,431.7577 C259.86285,431.71579 260.58353,431.66948 261.3042,431.62657 C262.74555,431.54075 264.1869,431.46856 265.62825,431.47203" id="hem2Curvature" class="data density"/>
	</g>
	<g id="all2Curvature" class="layer">
		<path d="M 50.454545 366.41835 C54.017447,329.76463 57.580348,258.01736 61.14325,220.32626 C62.924701,201.48072 64.706152,191.14922 66.487603,192.61774 C68.269054,194.08627 70.050505,207.35483 71.831955,225.66612 C73.613406,243.97741 75.394857,267.33144 77.176308,288.5171 C78.957759,309.70277 80.73921,328.72007 82.520661,343.80709 C84.302112,358.8941 86.083562,370.05082 87.865013,378.59665 C89.646464,387.14248 91.427915,393.07741 93.209366,397.65464 C94.990817,402.23187 96.772268,405.4514 98.553719,407.97372 C100.33517,410.49603 102.11662,412.32114 103.89807,413.82176 C105.67952,415.32238 107.46097,416.4985 109.24242,417.5077 C111.02387,418.51691 112.80533,419.35919 114.58678,420.0231 C116.36823,420.687 118.14968,421.17253 119.93113,421.48801 C121.71258,421.8035 123.49403,421.94895 125.27548,422.051 C127.05693,422.15305 128.83838,422.21169 130.61983,422.32275 C132.40129,422.43382 134.18274,422.59731 135.96419,422.79993 C137.74564,423.00256 139.52709,423.24433 141.30854,423.51542 C143.08999,423.7865 144.87144,424.08691 146.65289,424.42382 C148.43434,424.76073 150.21579,425.13415 151.99724,425.51231 C153.7787,425.89048 155.56015,426.27339 157.3416,426.61797 C159.12305,426.96256 160.9045,427.26882 162.68595,427.5085 C164.4674,427.74818 166.24885,427.92128 168.0303,428.02418 C169.81175,428.12708 171.5932,428.15979 173.37466,428.16389 C175.15611,428.16799 176.93756,428.14348 178.71901,428.14807 C180.50046,428.15266 182.28191,428.18635 184.06336,428.26285 C185.84481,428.33935 187.62626,428.45868 189.40771,428.59499 C191.18916,428.73131 192.97062,428.88461 194.75207,429.02652 C196.53352,429.16843 198.31497,429.29894 200.09642,429.38845 C201.87787,429.47795 203.65932,429.52645 205.44077,429.52478 C207.22222,429.52311 209.00367,429.47126 210.78512,429.41422 C212.56657,429.35718 214.34803,429.29495 216.12948,429.28445 C217.91093,429.27395 219.69238,429.31518 221.47383,429.40888 C223.25528,429.50259 225.03673,429.64876 226.81818,429.79957 C228.59963,429.95039 230.38108,430.10585 232.16253,430.23779 C233.94399,430.36973 235.72544,430.47815 237.50689,430.57537 C239.28834,430.6726 241.06979,430.75863 242.85124,430.84066 C244.63269,430.92268 246.41414,431.0007 248.19559,431.06616 C249.97704,431.13162 251.75849,431.18452 253.53994,431.22143 C255.3214,431.25833 257.10285,431.27924 258.8843,431.28509 C260.66575,431.29093 262.4472,431.2817 264.22865,431.26442 C266.0101,431.24713 267.79155,431.22179 269.573,431.20198 C271.35445,431.18217 273.1359,431.1679 274.91736,431.16456 C276.69881,431.16122 278.48026,431.16882 280.26171,431.18133 C282.04316,431.19384 283.82461,431.21125 285.60606,431.22931 C287.38751,431.24738 289.16896,431.26609 290.95041,431.28644 C292.73186,431.3068 294.51331,431.32878 296.29477,431.35105 C298.07622,431.37331 299.85767,431.39585 301.63912,431.41782 C303.42057,431.43979 305.20202,431.4612 306.98347,431.4847 C308.76492,431.50819 310.54637,431.53377 312.32782,431.55836 C314.10927,431.58296 315.89073,431.60658 317.67218,431.62344 C319.45363,431.64029 321.23508,431.65038 323.01653,431.65902 C324.79798,431.66766 326.57943,431.67485 328.36088,431.69033 C330.14233,431.70581 331.92378,431.72957 333.70523,431.75902 C335.48669,431.78847 337.26814,431.82361 339.04959,431.85337 C340.83104,431.88312 342.61249,431.90748 344.39394,431.92031 C346.17539,431.93314 347.95684,431.93443 349.73829,431.92614 C351.51974,431.91785 353.30119,431.89997 355.08264,431.8798 C356.8641,431.85962 358.64555,431.83716 360.427,431.81944 C362.20845,431.80173 363.9899,431.78877 365.77135,431.78287 C367.5528,431.77697 369.33425,431.77813 371.1157,431.78629 C372.89715,431.79445 374.6786,431.8096 376.46006,431.82909 C378.24151,431.84858 380.02296,431.87241 381.80441,431.89453 C383.58586,431.91666 385.36731,431.93708 387.14876,431.95245 C388.93021,431.96782 390.71166,431.97813 392.49311,431.98482 C394.27456,431.99152 396.05601,431.9946 397.83747,431.99611 C399.61892,431.99762 401.40037,431.99755 403.18182,431.99587 C404.96327,431.99419 406.74472,431.99088 408.52617,431.984 C410.30762,431.97712 412.08907,431.96665 413.87052,431.95209 C415.65197,431.93754 417.43343,431.91888 419.21488,431.90174 C420.99633,431.8846 422.77778,431.86897 424.55923,431.86237 C426.34068,431.85577 428.12213,431.85819 429.90358,431.86835 C431.68503,431.87852 433.46648,431.89644 435.24793,431.91401 C437.02938,431.93158 438.81084,431.94881 440.59229,431.96162 C442.37374,431.97443 444.15519,431.98282 445.93664,431.98804 C447.71809,431.99327 449.49954,431.99534 451.28099,431.99555 C453.06244,431.99576 454.84389,431.99412 456.62534,431.98945 C458.4068,431.98477 460.18825,431.97707 461.9697,431.96432 C463.75115,431.95158 465.5326,431.93379 467.31405,431.91271 C469.0955,431.89162 470.87695,431.86724 472.6584,431.84535 C474.43985,431.82347 476.2213,431.80409 478.00276,431.79033 C479.78421,431.77658 481.56566,431.76845 483.34711,431.76418 C485.12856,431.7599 486.91001,431.75947 488.69146,431.75925 C490.47291,431.75903 492.25436,431.75902 494.03581,431.75647 C495.81726,431.75393 497.59871,431.74885 499.38017,431.74376 C501.16162,431.73866 502.94307,431.73355 504.72452,431.73405 C506.50597,431.73456 508.28742,431.74069 510.06887,431.75232 C511.85032,431.76396 513.63177,431.78109 515.41322,431.79607 C517.19467,431.81105 518.97613,431.82388 520.75758,431.83044 C522.53903,431.837 524.32048,431.83729 526.10193,431.83817 C527.88338,431.83904 529.66483,431.84049 531.44628,431.84864 C533.22773,431.85679 535.00918,431.87164 536.79063,431.88893 C538.57208,431.90623 540.35354,431.92598 542.13499,431.94208 C543.91644,431.95818 545.69789,431.97064 547.47934,431.97902 C549.26079,431.9874 551.04224,431.99169 552.82369,431.99367 C554.60514,431.99564 556.38659,431.99531 558.16804,431.99244 C559.9495,431.98958 561.73095,431.98419 563.5124,431.97447 C565.29385,431.96474 567.0753,431.95068 568.85675,431.93399 C572.41965,431.9006 575.98255,431.85667 579.54546,431.85846" id="all2Curvature" class="data density"/>
	</g>
	<g id="axis titles" class="layer">
		<text font-size="12" class="axis title" text-anchor="middle" x="606" y="426">Normalized Curvature</text>
	</g>
	<g id="legend" class="layer">
		<g id="hemCurvature row">
			<line id="hemCurvature" class="data legend" x1="550" x2="600" y1="19" y2="19"/>
			<text font-size="12" class="legend label" text-anchor="start" x="603" y="22">hemCurvature</text>
		</g>
		<g id="allCurvature row">
			<line id="allCurvature" class="data legend" x1="550" x2="600" y1="34" y2="34"/>
			<text font-size="12" class="legend label" text-anchor="start" x="603" y="37">allCurvature</text>
		</g>
		<g id="hem2Curvature row">
			<line id="hem2Curvature" class="data legend" x1="550" x2="600" y1="49" y2="49"/>
			<text font-size="12" class="legend label" text-anchor="start" x="603" y="52">hem2Curvature</text>
		</g>
		<g id="all2Curvature row">
			<line id="all2Curvature" class="data legend" x1="550" x2="600" y1="64" y2="64"/>
			<text font-size="12" class="legend label" text-anchor="start" x="603" y="67">all2Curvature</text>
		</g>
	</g>
</svg>
