<?xml version='1.0' encoding='UTF-8'?>
<!DOCTYPE svg PUBLIC "-//W3C//DTD SVG 1.0//EN" "http://www.w3.org/TR/2001/REC-SVG-20010904/DTD/svg10.dtd ">
<svg height="480" viewBox="0 0 640 480" width="640" xmlns="http://www.w3.org/2000/svg" >
	<defs>
		<style type="text/css">
			<![CDATA[
				.data {
					fill: none;
					stroke: black;
					stroke-linecap: round;
					stroke-width: 1.5;
				}
				[class~="density"][id="allCurvature"] {
					fill: none;
					stroke: rgb(255, 147, 0);
				}
				[class~="density"][id="hemCurvature"] {
					fill: none;
					stroke: rgb(67, 0, 246);
				}
				[class~="legend"][id="allCurvature"] {
					fill: none;
					stroke: rgb(255, 147, 0);
				}
				[class~="legend"][id="hemCurvature"] {
					fill: none;
					stroke: rgb(67, 0, 246);
				}
				line.axis {
					stroke: dimgrey;
					stroke-width: 0.75;
				}
				line.colorbar.tic {
					stroke: black;
					stroke-linecap: butt;
					stroke-width: 0.5;
				}
				line.scalebar {
					stroke: black;
					stroke-width: 0.75;
				}
				line.tic {
					stroke-linecap: round;
				}
				rect.colorbar {
					fill: none;
					stroke: black;
					stroke-width: 0.5;
				}
				rect.plot {
					fill: none;
					stroke: none;
				}
				text {
					font-family: Times;
				}
				text.axis {
					fill: dimgrey;
				}
				text.colorbar.label {
					fill: black;
				}
				text.label {
					font-weight: normal;
				}
				text.title {
					font-weight: bold;
				}
			]]>
		</style>
	</defs>
	<g id="axes" class="layer">
		<g id="x-axis">
			<line id="x-axis" class="axis" x1="24" x2="606" y1="432" y2="432"/>
			<g id="x-axis tics">
				<line id="tic at 0" class="axis tic" x1="44.948341" x2="44.948341" y1="429" y2="435"/>
				<line id="tic at 100" class="axis tic" x1="114.06194" x2="114.06194" y1="429" y2="435"/>
				<line id="tic at 200" class="axis tic" x1="183.17553" x2="183.17553" y1="429" y2="435"/>
				<line id="tic at 300" class="axis tic" x1="252.28912" x2="252.28912" y1="429" y2="435"/>
				<line id="tic at 400" class="axis tic" x1="321.40272" x2="321.40272" y1="429" y2="435"/>
				<line id="tic at 500" class="axis tic" x1="390.51631" x2="390.51631" y1="429" y2="435"/>
				<line id="tic at 600" class="axis tic" x1="459.62991" x2="459.62991" y1="429" y2="435"/>
				<line id="tic at 700" class="axis tic" x1="528.7435" x2="528.7435" y1="429" y2="435"/>
				<line id="tic at 800" class="axis tic" x1="597.8571" x2="597.8571" y1="429" y2="435"/>
			</g>
			<g id="x-axis small tics">
				<line id="small tic at 50" class="axis tic small" x1="79.505138" x2="79.505138" y1="430.5" y2="433.5"/>
				<line id="small tic at 150" class="axis tic small" x1="148.61873" x2="148.61873" y1="430.5" y2="433.5"/>
				<line id="small tic at 250" class="axis tic small" x1="217.73233" x2="217.73233" y1="430.5" y2="433.5"/>
				<line id="small tic at 350" class="axis tic small" x1="286.84592" x2="286.84592" y1="430.5" y2="433.5"/>
				<line id="small tic at 450" class="axis tic small" x1="355.95952" x2="355.95952" y1="430.5" y2="433.5"/>
				<line id="small tic at 550" class="axis tic small" x1="425.07311" x2="425.07311" y1="430.5" y2="433.5"/>
				<line id="small tic at 650" class="axis tic small" x1="494.18671" x2="494.18671" y1="430.5" y2="433.5"/>
				<line id="small tic at 750" class="axis tic small" x1="563.3003" x2="563.3003" y1="430.5" y2="433.5"/>
			</g>
		</g>
		<g id="x-axis labels">
			<text font-size="12" class="axis label" text-anchor="middle" x="44.948341" y="450">0</text>
			<text font-size="12" class="axis label" text-anchor="middle" x="114.06194" y="450">100</text>
			<text font-size="12" class="axis label" text-anchor="middle" x="183.17553" y="450">200</text>
			<text font-size="12" class="axis label" text-anchor="middle" x="252.28912" y="450">300</text>
			<text font-size="12" class="axis label" text-anchor="middle" x="321.40272" y="450">400</text>
			<text font-size="12" class="axis label" text-anchor="middle" x="390.51631" y="450">500</text>
			<text font-size="12" class="axis label" text-anchor="middle" x="459.62991" y="450">600</text>
			<text font-size="12" class="axis label" text-anchor="middle" x="528.7435" y="450">700</text>
			<text font-size="12" class="axis label" text-anchor="middle" x="597.8571" y="450">800</text>
		</g>
		<g id="y-axis">
			<line id="y-axis" class="axis" x1="44.948341" x2="44.948341" y1="432" y2="24"/>
			<g id="y-axis tics">
				<line id="tic at 0.0025" class="axis tic" x1="47.948341" x2="41.948341" y1="397.9225" y2="397.9225"/>
				<line id="tic at 0.005" class="axis tic" x1="47.948341" x2="41.948341" y1="363.845" y2="363.845"/>
				<line id="tic at 0.0075" class="axis tic" x1="47.948341" x2="41.948341" y1="329.76751" y2="329.76751"/>
				<line id="tic at 0.01" class="axis tic" x1="47.948341" x2="41.948341" y1="295.69001" y2="295.69001"/>
				<line id="tic at 0.0125" class="axis tic" x1="47.948341" x2="41.948341" y1="261.61251" y2="261.61251"/>
				<line id="tic at 0.015" class="axis tic" x1="47.948341" x2="41.948341" y1="227.53501" y2="227.53501"/>
				<line id="tic at 0.0175" class="axis tic" x1="47.948341" x2="41.948341" y1="193.45751" y2="193.45751"/>
				<line id="tic at 0.02" class="axis tic" x1="47.948341" x2="41.948341" y1="159.38002" y2="159.38002"/>
				<line id="tic at 0.0225" class="axis tic" x1="47.948341" x2="41.948341" y1="125.30252" y2="125.30252"/>
				<line id="tic at 0.025" class="axis tic" x1="47.948341" x2="41.948341" y1="91.22502" y2="91.22502"/>
				<line id="tic at 0.0275" class="axis tic" x1="47.948341" x2="41.948341" y1="57.147523" y2="57.147523"/>
			</g>
			<g id="y-axis small tics">
				<line id="small tic at 0.00125" class="axis tic small" x1="46.448341" x2="43.448341" y1="414.96125" y2="414.96125"/>
				<line id="small tic at 0.00125" class="axis tic small" x1="46.448341" x2="43.448341" y1="414.96125" y2="414.96125"/>
				<line id="small tic at 0.00375" class="axis tic small" x1="46.448341" x2="43.448341" y1="380.88375" y2="380.88375"/>
				<line id="small tic at 0.00625" class="axis tic small" x1="46.448341" x2="43.448341" y1="346.80626" y2="346.80626"/>
				<line id="small tic at 0.00875" class="axis tic small" x1="46.448341" x2="43.448341" y1="312.72876" y2="312.72876"/>
				<line id="small tic at 0.01125" class="axis tic small" x1="46.448341" x2="43.448341" y1="278.65126" y2="278.65126"/>
				<line id="small tic at 0.01375" class="axis tic small" x1="46.448341" x2="43.448341" y1="244.57376" y2="244.57376"/>
				<line id="small tic at 0.01625" class="axis tic small" x1="46.448341" x2="43.448341" y1="210.49626" y2="210.49626"/>
				<line id="small tic at 0.01875" class="axis tic small" x1="46.448341" x2="43.448341" y1="176.41877" y2="176.41877"/>
				<line id="small tic at 0.02125" class="axis tic small" x1="46.448341" x2="43.448341" y1="142.34127" y2="142.34127"/>
				<line id="small tic at 0.02375" class="axis tic small" x1="46.448341" x2="43.448341" y1="108.26377" y2="108.26377"/>
				<line id="small tic at 0.02625" class="axis tic small" x1="46.448341" x2="43.448341" y1="74.186272" y2="74.186272"/>
				<line id="small tic at 0.02875" class="axis tic small" x1="46.448341" x2="43.448341" y1="40.108774" y2="40.108774"/>
			</g>
		</g>
		<g id="y-axis labels">
			<text font-size="12" class="axis label" text-anchor="end" x="38.948341" y="402.4225">0.0025</text>
			<text font-size="12" class="axis label" text-anchor="end" x="38.948341" y="368.345">0.005</text>
			<text font-size="12" class="axis label" text-anchor="end" x="38.948341" y="334.26751">0.0075</text>
			<text font-size="12" class="axis label" text-anchor="end" x="38.948341" y="300.19001">0.01</text>
			<text font-size="12" class="axis label" text-anchor="end" x="38.948341" y="266.11251">0.0125</text>
			<text font-size="12" class="axis label" text-anchor="end" x="38.948341" y="232.03501">0.015</text>
			<text font-size="12" class="axis label" text-anchor="end" x="38.948341" y="197.95751">0.0175</text>
			<text font-size="12" class="axis label" text-anchor="end" x="38.948341" y="163.88002">0.02</text>
			<text font-size="12" class="axis label" text-anchor="end" x="38.948341" y="129.80252">0.0225</text>
			<text font-size="12" class="axis label" text-anchor="end" x="38.948341" y="95.72502">0.025</text>
			<text font-size="12" class="axis label" text-anchor="end" x="38.948341" y="61.647523">0.0275</text>
		</g>
	</g>
	<g id="hemCurvature" class="layer">
		<path d="M 56.72039 217.44221 C58.949329,143.10705 61.178269,62.286396 63.407208,31.933421 C64.521678,16.756933 65.636148,14.197366 66.750617,24 C67.865087,33.802634 68.979557,55.967469 70.094027,83.923899 C71.208496,111.88033 72.322966,145.62835 73.437436,177.96226 C74.551906,210.29616 75.666375,241.21594 76.780845,267.29975 C77.895315,293.38356 79.009784,314.63139 80.124254,331.29471 C81.238724,347.95803 82.353194,360.03684 83.467663,369.20687 C84.582133,378.37689 85.696603,384.63812 86.811072,389.46171 C87.925542,394.2853 89.040012,397.67124 90.154482,400.43643 C91.268951,403.20162 92.383421,405.34606 93.497891,407.2031 C94.612361,409.06015 95.72683,410.62981 96.8413,412.03728 C97.95577,413.44476 99.070239,414.69005 100.18471,415.82142 C101.29918,416.95279 102.41365,417.97024 103.52812,418.8636 C104.64259,419.75697 105.75706,420.52624 106.87153,421.14088 C107.986,421.75551 109.10047,422.21551 110.21494,422.52311 C111.32941,422.83071 112.44388,422.98593 113.55835,423.02095 C114.67282,423.05598 115.78729,422.97081 116.90175,422.80118 C118.01622,422.63154 119.13069,422.37744 120.24516,422.09391 C121.35963,421.81039 122.4741,421.49746 123.58857,421.25077 C124.70304,421.00409 125.81751,420.82365 126.93198,420.80133 C128.04645,420.77902 129.16092,420.91482 130.27539,421.21948 C131.38986,421.52414 132.50433,421.99767 133.6188,422.55283 C134.73327,423.10799 135.84774,423.74478 136.96221,424.33915 C138.07668,424.93352 139.19115,425.48547 140.30562,425.91416 C141.42009,426.34285 142.53456,426.64828 143.64903,426.83806 C144.7635,427.02784 145.87797,427.10197 146.99244,427.13849 C148.10691,427.17501 149.22138,427.17392 150.33585,427.20899 C151.45032,427.24405 152.56479,427.31527 153.67926,427.42783 C154.79373,427.54039 155.9082,427.69427 157.02266,427.84039 C158.13713,427.98651 159.2516,428.12486 160.36607,428.22094 C161.48054,428.31703 162.59501,428.37085 163.70948,428.397 C164.82395,428.42314 165.93842,428.42161 167.05289,428.42136 C168.16736,428.42112 169.28183,428.42217 170.3963,428.42299 C171.51077,428.42381 172.62524,428.42441 173.73971,428.40059 C174.85418,428.37678 175.96865,428.32856 177.08312,428.25161 C178.19759,428.17466 179.31206,428.06899 180.42653,427.96502 C181.541,427.86105 182.65547,427.75878 183.76994,427.69492 C184.88441,427.63107 185.99888,427.60563 187.11335,427.63333 C188.22782,427.66102 189.34229,427.74186 190.45676,427.87048 C191.57123,427.99909 192.6857,428.17549 193.80017,428.38339 C194.91464,428.59129 196.02911,428.8307 197.14357,429.07186 C198.25804,429.31301 199.37251,429.5559 200.48698,429.76657 C201.60145,429.97723 202.71592,430.15567 203.83039,430.29255 C204.94486,430.42942 206.05933,430.52474 207.1738,430.60184 C208.28827,430.67894 209.40274,430.73783 210.51721,430.80238 C211.63168,430.86693 212.74615,430.93715 213.86062,431.00636 C214.97509,431.07557 216.08956,431.14377 217.20403,431.18226 C218.3185,431.22075 219.43297,431.22952 220.54744,431.19094 C221.66191,431.15236 222.77638,431.06642 223.89085,430.94851 C225.00532,430.8306 226.11979,430.68073 227.23426,430.54168 C228.34873,430.40263 229.4632,430.27439 230.57767,430.19698 C231.69214,430.11956 232.80661,430.09297 233.92108,430.1219 C235.03555,430.15083 236.15002,430.23529 237.26448,430.34357 C238.37895,430.45185 239.49342,430.58396 240.60789,430.70622 C241.72236,430.82848 242.83683,430.9409 243.9513,431.03626 C245.06577,431.13162 246.18024,431.20991 247.29471,431.28191 C248.40918,431.35391 249.52365,431.41962 250.63812,431.48454 C251.75259,431.54946 252.86706,431.6136 253.98153,431.67221 C255.096,431.73082 256.21047,431.7839 257.32494,431.82683 C258.43941,431.86975 259.55388,431.90251 260.66835,431.92615 C261.78282,431.9498 262.89729,431.96432 264.01176,431.97312 C265.12623,431.98193 266.2407,431.98502 267.35517,431.98368 C268.46964,431.98233 269.58411,431.97655 270.69858,431.96423 C271.81305,431.95192 272.92752,431.93308 274.04199,431.90487 C275.15646,431.87667 276.27093,431.8391 277.38539,431.79455 C278.49986,431.75 279.61433,431.69846 280.7288,431.65112 C281.84327,431.60378 282.95774,431.56065 284.07221,431.53508 C285.18668,431.50951 286.30115,431.50151 287.41562,431.51385 C288.53009,431.5262 289.64456,431.55888 290.75903,431.60113 C291.8735,431.64338 292.98797,431.69519 294.10244,431.74321 C295.21691,431.79122 296.33138,431.83544 297.44585,431.87028 C298.56032,431.90512 299.67479,431.93058 300.78926,431.94858 C301.90373,431.96658 303.0182,431.97713 304.13267,431.98401 C305.24714,431.99089 306.36161,431.99412 307.47608,431.9961 C308.59055,431.99808 309.70502,431.99882 310.81949,431.99925 C311.93396,431.99968 313.04843,431.9998 314.1629,431.99983 C315.27737,431.99986 316.39184,431.99981 317.5063,431.99956 C318.62077,431.99931 319.73524,431.99887 320.84971,431.9976 C321.96418,431.99633 323.07865,431.99422 324.19312,431.98941 C325.30759,431.98459 326.42206,431.97706 327.53653,431.96328 C328.651,431.9495 329.76547,431.92947 330.87994,431.90011 C331.99441,431.87075 333.10888,431.83205 334.22335,431.78679 C335.33782,431.74154 336.45229,431.68972 337.56676,431.64294 C338.68123,431.59616 339.7957,431.55441 340.91017,431.53079 C342.02464,431.50717 343.13911,431.50167 344.25358,431.5162 C345.36805,431.53073 346.48252,431.56528 347.59699,431.60857 C348.71146,431.65186 349.82593,431.70387 350.9404,431.75151 C352.05487,431.79914 353.16934,431.84239 354.28381,431.87622 C355.39828,431.91004 356.51275,431.93445 357.62721,431.95159 C358.74168,431.96874 359.85615,431.97863 360.97062,431.98495 C362.08509,431.99127 363.19956,431.99403 364.31403,431.99514 C365.4285,431.99624 366.54297,431.9957 367.65744,431.99307 C368.77191,431.99044 369.88638,431.98572 371.00085,431.97616 C372.11532,431.9666 373.22979,431.9522 374.34426,431.92928 C375.45873,431.90636 376.5732,431.87493 377.68767,431.83477 C378.80214,431.79461 379.91661,431.74573 381.03108,431.69704 C383.26002,431.59966 385.48896,431.50302 387.7179,431.50793" id="hemCurvature" class="data density"/>
	</g>
	<g id="allCurvature" class="layer">
		<path d="M 50.454545 363.47675 C54.017446,326.83069 57.580348,253.97839 61.14325,205.34212 C62.924701,181.02399 64.706152,162.75986 66.487602,156.25742 C68.269053,149.75498 70.050504,155.01424 71.831955,168.59912 C73.613406,182.18401 75.394857,204.09452 77.176308,226.97322 C78.957759,249.85191 80.739209,273.69878 82.52066,294.26698 C84.302111,314.83518 86.083562,332.12471 87.865013,345.97743 C89.646464,359.83014 91.427915,370.24604 93.209366,378.42233 C94.990817,386.59861 96.772267,392.53528 98.553718,397.15021 C100.33517,401.76513 102.11662,405.0583 103.89807,407.58584 C105.67952,410.11337 107.46097,411.87528 109.24242,413.23556 C111.02387,414.59583 112.80533,415.55449 114.58678,416.29684 C116.36823,417.03919 118.14968,417.56523 119.93113,417.97602 C121.71258,418.38681 123.49403,418.68234 125.27548,418.96192 C127.05693,419.2415 128.83838,419.50514 130.61983,419.78985 C132.40128,420.07457 134.18274,420.38036 135.96419,420.68263 C137.74564,420.9849 139.52709,421.28365 141.30854,421.58102 C143.08999,421.87839 144.87144,422.1744 146.65289,422.48744 C148.43434,422.80047 150.21579,423.13054 151.99724,423.45728 C153.7787,423.78402 155.56015,424.10744 157.3416,424.40418 C159.12305,424.70092 160.9045,424.97099 162.68595,425.22986 C164.4674,425.48872 166.24885,425.73639 168.0303,425.98599 C169.81175,426.23559 171.5932,426.48713 173.37466,426.72351 C175.15611,426.9599 176.93756,427.18112 178.71901,427.37838 C180.50046,427.57564 182.28191,427.74894 184.06336,427.90522 C185.84481,428.0615 187.62626,428.20077 189.40771,428.30469 C191.18916,428.40861 192.97061,428.47718 194.75207,428.48169 C196.53352,428.4862 198.31497,428.42664 200.09642,428.32827 C201.87787,428.2299 203.65932,428.09272 205.44077,427.98705 C207.22222,427.88138 209.00367,427.80722 210.78512,427.80583 C212.56657,427.80445 214.34803,427.87585 216.12948,428.0066 C217.91093,428.13735 219.69238,428.32745 221.47383,428.53249 C223.25528,428.73753 225.03673,428.95751 226.81818,429.13943 C228.59963,429.32135 230.38108,429.46521 232.16253,429.54706 C233.94399,429.6289 235.72544,429.64872 237.50689,429.64446 C239.28834,429.64019 241.06979,429.61184 242.85124,429.621 C244.63269,429.63015 246.41414,429.67682 248.19559,429.77158 C249.97704,429.86633 251.75849,430.00917 253.53994,430.15008 C255.3214,430.29099 257.10285,430.42997 258.8843,430.52161 C260.66575,430.61325 262.4472,430.65756 264.22865,430.66701 C266.0101,430.67646 267.79155,430.65107 269.573,430.63942 C271.35445,430.62778 273.1359,430.62989 274.91736,430.67024 C276.69881,430.7106 278.48026,430.7892 280.26171,430.88585 C282.04316,430.9825 283.82461,431.09721 285.60606,431.19659 C287.38751,431.29597 289.16896,431.38004 290.95041,431.43763 C292.73186,431.49522 294.51331,431.52632 296.29477,431.54665 C298.07622,431.56698 299.85767,431.57653 301.63912,431.59238 C303.42057,431.60823 305.20202,431.63038 306.98347,431.65401 C308.76492,431.67763 310.54637,431.70273 312.32782,431.71293 C314.10927,431.72312 315.89073,431.7184 317.67218,431.69594 C319.45363,431.67348 321.23508,431.63327 323.01653,431.58977 C324.79798,431.54627 326.57943,431.49947 328.36088,431.46275 C330.14233,431.42603 331.92378,431.39938 333.70523,431.38118 C335.48669,431.36298 337.26814,431.35323 339.04959,431.34465 C340.83104,431.33607 342.61249,431.32865 344.39394,431.32507 C346.17539,431.32149 347.95684,431.32173 349.73829,431.33291 C351.51974,431.34409 353.30119,431.3662 355.08264,431.39689 C356.8641,431.42757 358.64555,431.46681 360.427,431.50653 C362.20845,431.54625 363.9899,431.58644 365.77135,431.62453 C367.5528,431.66262 369.33425,431.69862 371.1157,431.73306 C372.89715,431.7675 374.6786,431.80038 376.46006,431.82759 C378.24151,431.85479 380.02296,431.87632 381.80441,431.88549 C383.58586,431.89465 385.36731,431.89144 387.14876,431.87428 C388.93021,431.85712 390.71166,431.82601 392.49311,431.78931 C394.27456,431.75261 396.05601,431.71033 397.83747,431.67629 C399.61892,431.64225 401.40037,431.61646 403.18182,431.60528 C404.96327,431.5941 406.74472,431.59754 408.52617,431.61125 C410.30762,431.62495 412.08907,431.64893 413.87052,431.67726 C415.65197,431.7056 417.43343,431.7383 419.21488,431.77085 C420.99633,431.80339 422.77778,431.83578 424.55923,431.86253 C426.34068,431.88929 428.12213,431.91041 429.90358,431.92194 C431.68503,431.93347 433.46648,431.9354 435.24793,431.92839 C437.02939,431.92139 438.81084,431.90546 440.59229,431.88647 C442.37374,431.86748 444.15519,431.84543 445.93664,431.82697 C447.71809,431.8085 449.49954,431.79361 451.28099,431.78144 C453.06244,431.76928 454.84389,431.75983 456.62534,431.74747 C458.4068,431.73512 460.18825,431.71986 461.9697,431.70436 C463.75115,431.68886 465.5326,431.67311 467.31405,431.66739 C469.0955,431.66167 470.87695,431.66598 472.6584,431.6831 C474.43985,431.70022 476.2213,431.73014 478.00276,431.76385 C479.78421,431.79757 481.56566,431.83508 483.34711,431.86694 C485.12856,431.89881 486.91001,431.92504 488.69146,431.9438 C490.47291,431.96255 492.25436,431.97382 494.03581,431.97989 C495.81726,431.98596 497.59872,431.98684 499.38017,431.98331 C501.16162,431.97977 502.94307,431.97183 504.72452,431.95893 C506.50597,431.94603 508.28742,431.92817 510.06887,431.90832 C511.85032,431.88847 513.63177,431.86663 515.41322,431.84984 C517.19467,431.83306 518.97613,431.82133 520.75758,431.8169 C522.53903,431.81247 524.32048,431.81533 526.10193,431.81864 C527.88338,431.82195 529.66483,431.82572 531.44628,431.82532 C533.22773,431.82492 535.00918,431.82034 536.79063,431.81731 C538.57209,431.81429 540.35354,431.81281 542.13499,431.81889 C543.91644,431.82498 545.69789,431.83863 547.47934,431.85625 C549.26079,431.87388 551.04224,431.89548 552.82369,431.91346 C554.60514,431.93145 556.38659,431.94582 558.16804,431.95276 C559.9495,431.9597 561.73095,431.95921 563.5124,431.95137 C565.29385,431.94353 567.0753,431.92835 568.85675,431.91034 C572.41965,431.8743 575.98255,431.82694 579.54546,431.82955" id="allCurvature" class="data density"/>
	</g>
	<g id="axis titles" class="layer">
		<text font-size="12" class="axis title" text-anchor="middle" x="606" y="426">Normalized Curvature</text>
	</g>
	<g id="legend" class="layer">
		<g id="hemCurvature row">
			<line id="hemCurvature" class="data legend" x1="550" x2="600" y1="19" y2="19"/>
			<text font-size="12" class="legend label" text-anchor="start" x="603" y="22">hemCurvature</text>
		</g>
		<g id="allCurvature row">
			<line id="allCurvature" class="data legend" x1="550" x2="600" y1="34" y2="34"/>
			<text font-size="12" class="legend label" text-anchor="start" x="603" y="37">allCurvature</text>
		</g>
	</g>
</svg>
