<?xml version='1.0' encoding='UTF-8'?>
<!DOCTYPE svg PUBLIC "-//W3C//DTD SVG 1.0//EN" "http://www.w3.org/TR/2001/REC-SVG-20010904/DTD/svg10.dtd ">
<svg height="480" viewBox="0 0 640 480" width="640" xmlns="http://www.w3.org/2000/svg" >
	<defs>
		<style type="text/css">
			<![CDATA[
				.data {
					fill: none;
					stroke: black;
					stroke-linecap: round;
					stroke-width: 1.5;
				}
				[class~="density"][id="allPathLength"] {
					fill: none;
					stroke: rgb(255, 147, 0);
				}
				[class~="density"][id="hemPerimeter"] {
					fill: none;
					stroke: rgb(67, 0, 246);
				}
				[class~="legend"][id="allPathLength"] {
					fill: none;
					stroke: rgb(255, 147, 0);
				}
				[class~="legend"][id="hemPerimeter"] {
					fill: none;
					stroke: rgb(67, 0, 246);
				}
				line.axis {
					stroke: dimgrey;
					stroke-width: 0.75;
				}
				line.colorbar.tic {
					stroke: black;
					stroke-linecap: butt;
					stroke-width: 0.5;
				}
				line.scalebar {
					stroke: black;
					stroke-width: 0.75;
				}
				line.tic {
					stroke-linecap: round;
				}
				rect.colorbar {
					fill: none;
					stroke: black;
					stroke-width: 0.5;
				}
				rect.plot {
					fill: none;
					stroke: none;
				}
				text {
					font-family: Times;
				}
				text.axis {
					fill: dimgrey;
				}
				text.colorbar.label {
					fill: black;
				}
				text.label {
					font-weight: normal;
				}
				text.title {
					font-weight: bold;
				}
			]]>
		</style>
	</defs>
	<g id="axes" class="layer">
		<g id="x-axis">
			<line id="x-axis" class="axis" x1="24" x2="606" y1="432" y2="432"/>
			<g id="x-axis tics">
				<line id="tic at 0" class="axis tic" x1="38.057152" x2="38.057152" y1="429" y2="435"/>
				<line id="tic at 250" class="axis tic" x1="106.73803" x2="106.73803" y1="429" y2="435"/>
				<line id="tic at 500" class="axis tic" x1="175.41891" x2="175.41891" y1="429" y2="435"/>
				<line id="tic at 750" class="axis tic" x1="244.09979" x2="244.09979" y1="429" y2="435"/>
				<line id="tic at 1000" class="axis tic" x1="312.78067" x2="312.78067" y1="429" y2="435"/>
				<line id="tic at 1250" class="axis tic" x1="381.46155" x2="381.46155" y1="429" y2="435"/>
				<line id="tic at 1500" class="axis tic" x1="450.14243" x2="450.14243" y1="429" y2="435"/>
				<line id="tic at 1750" class="axis tic" x1="518.82331" x2="518.82331" y1="429" y2="435"/>
				<line id="tic at 2000" class="axis tic" x1="587.50419" x2="587.50419" y1="429" y2="435"/>
			</g>
			<g id="x-axis small tics">
				<line id="small tic at 125" class="axis tic small" x1="72.397591" x2="72.397591" y1="430.5" y2="433.5"/>
				<line id="small tic at 375" class="axis tic small" x1="141.07847" x2="141.07847" y1="430.5" y2="433.5"/>
				<line id="small tic at 625" class="axis tic small" x1="209.75935" x2="209.75935" y1="430.5" y2="433.5"/>
				<line id="small tic at 875" class="axis tic small" x1="278.44023" x2="278.44023" y1="430.5" y2="433.5"/>
				<line id="small tic at 1125" class="axis tic small" x1="347.12111" x2="347.12111" y1="430.5" y2="433.5"/>
				<line id="small tic at 1375" class="axis tic small" x1="415.80199" x2="415.80199" y1="430.5" y2="433.5"/>
				<line id="small tic at 1625" class="axis tic small" x1="484.48287" x2="484.48287" y1="430.5" y2="433.5"/>
				<line id="small tic at 1875" class="axis tic small" x1="553.16375" x2="553.16375" y1="430.5" y2="433.5"/>
			</g>
		</g>
		<g id="x-axis labels">
			<text font-size="12" class="axis label" text-anchor="middle" x="38.057152" y="450">0</text>
			<text font-size="12" class="axis label" text-anchor="middle" x="106.73803" y="450">250</text>
			<text font-size="12" class="axis label" text-anchor="middle" x="175.41891" y="450">500</text>
			<text font-size="12" class="axis label" text-anchor="middle" x="244.09979" y="450">750</text>
			<text font-size="12" class="axis label" text-anchor="middle" x="312.78067" y="450">1000</text>
			<text font-size="12" class="axis label" text-anchor="middle" x="381.46155" y="450">1250</text>
			<text font-size="12" class="axis label" text-anchor="middle" x="450.14243" y="450">1500</text>
			<text font-size="12" class="axis label" text-anchor="middle" x="518.82331" y="450">1750</text>
			<text font-size="12" class="axis label" text-anchor="middle" x="587.50419" y="450">2000</text>
		</g>
		<g id="y-axis">
			<line id="y-axis" class="axis" x1="38.057152" x2="38.057152" y1="432" y2="24"/>
			<g id="y-axis tics">
				<line id="tic at 0.0005" class="axis tic" x1="41.057152" x2="35.057152" y1="384.25204" y2="384.25204"/>
				<line id="tic at 0.001" class="axis tic" x1="41.057152" x2="35.057152" y1="336.50407" y2="336.50407"/>
				<line id="tic at 0.0015" class="axis tic" x1="41.057152" x2="35.057152" y1="288.75611" y2="288.75611"/>
				<line id="tic at 0.002" class="axis tic" x1="41.057152" x2="35.057152" y1="241.00815" y2="241.00815"/>
				<line id="tic at 0.0025" class="axis tic" x1="41.057152" x2="35.057152" y1="193.26019" y2="193.26019"/>
				<line id="tic at 0.003" class="axis tic" x1="41.057152" x2="35.057152" y1="145.51222" y2="145.51222"/>
				<line id="tic at 0.0035" class="axis tic" x1="41.057152" x2="35.057152" y1="97.764261" y2="97.764261"/>
				<line id="tic at 0.004" class="axis tic" x1="41.057152" x2="35.057152" y1="50.016299" y2="50.016299"/>
			</g>
			<g id="y-axis small tics">
				<line id="small tic at 0.00025" class="axis tic small" x1="39.557152" x2="36.557152" y1="408.12602" y2="408.12602"/>
				<line id="small tic at 0.00025" class="axis tic small" x1="39.557152" x2="36.557152" y1="408.12602" y2="408.12602"/>
				<line id="small tic at 0.00075" class="axis tic small" x1="39.557152" x2="36.557152" y1="360.37806" y2="360.37806"/>
				<line id="small tic at 0.00125" class="axis tic small" x1="39.557152" x2="36.557152" y1="312.63009" y2="312.63009"/>
				<line id="small tic at 0.00175" class="axis tic small" x1="39.557152" x2="36.557152" y1="264.88213" y2="264.88213"/>
				<line id="small tic at 0.00225" class="axis tic small" x1="39.557152" x2="36.557152" y1="217.13417" y2="217.13417"/>
				<line id="small tic at 0.00275" class="axis tic small" x1="39.557152" x2="36.557152" y1="169.38621" y2="169.38621"/>
				<line id="small tic at 0.00325" class="axis tic small" x1="39.557152" x2="36.557152" y1="121.63824" y2="121.63824"/>
				<line id="small tic at 0.00375" class="axis tic small" x1="39.557152" x2="36.557152" y1="73.89028" y2="73.89028"/>
				<line id="small tic at 0.00425" class="axis tic small" x1="39.557152" x2="36.557152" y1="26.142317" y2="26.142317"/>
			</g>
		</g>
		<g id="y-axis labels">
			<text font-size="12" class="axis label" text-anchor="end" x="32.057152" y="388.75204">0.0005</text>
			<text font-size="12" class="axis label" text-anchor="end" x="32.057152" y="341.00407">0.001</text>
			<text font-size="12" class="axis label" text-anchor="end" x="32.057152" y="293.25611">0.0015</text>
			<text font-size="12" class="axis label" text-anchor="end" x="32.057152" y="245.50815">0.002</text>
			<text font-size="12" class="axis label" text-anchor="end" x="32.057152" y="197.76019">0.0025</text>
			<text font-size="12" class="axis label" text-anchor="end" x="32.057152" y="150.01222">0.003</text>
			<text font-size="12" class="axis label" text-anchor="end" x="32.057152" y="102.26426">0.0035</text>
			<text font-size="12" class="axis label" text-anchor="end" x="32.057152" y="54.516299">0.004</text>
		</g>
	</g>
	<g id="hemPerimeter" class="layer">
		<path d="M 67.748721 430.57867 C71.195163,430.52235 74.641606,430.65608 78.088049,430.85892 C79.81127,430.96034 81.534491,431.07903 83.257713,431.19365 C84.980934,431.30827 86.704155,431.41881 88.427377,431.51361 C90.150598,431.60841 91.873819,431.68747 93.597041,431.74956 C95.320262,431.81165 97.043483,431.85679 98.766705,431.88981 C100.48993,431.92284 102.21315,431.94375 103.93637,431.9578 C105.65959,431.97185 107.38281,431.97904 109.10603,431.98155 C110.82925,431.98407 112.55248,431.9819 114.2757,431.97062 C115.99892,431.95934 117.72214,431.93895 119.44536,431.88857 C121.16858,431.83819 122.8918,431.75782 124.61502,431.58468 C126.33825,431.41154 128.06147,431.14562 129.78469,430.63178 C131.50791,430.11795 133.23113,429.3562 134.95435,428.02662 C136.67757,426.69703 138.4008,424.79959 140.12402,421.79115 C141.84724,418.7827 143.57046,414.66324 145.29368,408.7006 C147.0169,402.73796 148.74012,394.93215 150.46334,384.57586 C152.18657,374.21956 153.90979,361.31278 155.63301,345.57065 C157.35623,329.82852 159.07945,311.25104 160.80267,290.39143 C162.52589,269.53182 164.24912,246.39007 165.97234,222.49154 C167.69556,198.593 169.41878,173.93768 171.142,150.65898 C172.86522,127.38029 174.58844,105.47821 176.31166,86.941814 C178.03489,68.405414 179.75811,53.234688 181.48133,42.55746 C183.20455,31.880232 184.92777,25.696504 186.65099,24 C188.37421,22.303496 190.09744,25.094218 191.82066,31.469767 C193.54388,37.845316 195.2671,47.805692 196.99032,60.039255 C198.71354,72.272817 200.43676,86.779567 202.15998,102.26496 C203.88321,117.75036 205.60643,134.2144 207.32965,150.60909 C209.05287,167.00377 210.77609,183.3291 212.49931,198.85291 C214.22253,214.37672 215.94575,229.09902 217.66898,242.60268 C219.3922,256.10633 221.11542,268.39134 222.83864,279.33404 C224.56186,290.27674 226.28508,299.87713 228.0083,308.25949 C229.73153,316.64184 231.45475,323.80616 233.17797,330.0398 C234.90119,336.27344 236.62441,341.5764 238.34763,346.28238 C240.07085,350.98837 241.79407,355.09737 243.5173,358.87317 C245.24052,362.64897 246.96374,366.09157 248.68696,369.32305 C250.41018,372.55452 252.1334,375.57487 253.85662,378.37144 C255.57985,381.16801 257.30307,383.74081 259.02629,386.02166 C260.74951,388.3025 262.47273,390.29139 264.19595,391.95871 C265.91917,393.62602 267.64239,394.97176 269.36562,396.04815 C271.08884,397.12455 272.81206,397.93162 274.53528,398.57809 C276.2585,399.22457 277.98172,399.71045 279.70494,400.14486 C281.42817,400.57926 283.15139,400.96218 284.87461,401.36627 C286.59783,401.77036 288.32105,402.19561 290.04427,402.67781 C291.76749,403.16001 293.49071,403.69915 295.21394,404.30889 C296.93716,404.91862 298.66038,405.59894 300.3836,406.34459 C302.10682,407.09024 303.83004,407.90122 305.55326,408.74476 C307.27649,409.58831 308.99971,410.46441 310.72293,411.31315 C312.44615,412.16188 314.16937,412.98325 315.89259,413.71141 C317.61581,414.43958 319.33903,415.07453 321.06226,415.57503 C322.78548,416.07553 324.5087,416.44158 326.23192,416.67485 C327.95514,416.90812 329.67836,417.00862 331.40158,417.01641 C333.12481,417.0242 334.84803,416.93929 336.57125,416.81969 C338.29447,416.70009 340.01769,416.5458 341.74091,416.41208 C343.46413,416.27836 345.18735,416.16522 346.91058,416.11405 C348.6338,416.06287 350.35702,416.07366 352.08024,416.16984 C353.80346,416.26601 355.52668,416.44757 357.2499,416.71584 C358.97313,416.98411 360.69635,417.33909 362.41957,417.75532 C364.14279,418.17155 365.86601,418.64903 367.58923,419.13722 C369.31245,419.62541 371.03567,420.12431 372.7589,420.57261 C374.48212,421.02092 376.20534,421.41864 377.92856,421.71966 C379.65178,422.02067 381.375,422.22498 383.09822,422.32914 C384.82144,422.43329 386.54467,422.43729 388.26789,422.39228 C389.99111,422.34726 391.71433,422.25323 393.43755,422.19589 C395.16077,422.13856 396.88399,422.11792 398.60722,422.20368 C400.33044,422.28945 402.05366,422.48163 403.77688,422.78418 C405.5001,423.08672 407.22332,423.49963 408.94654,423.95467 C410.66976,424.4097 412.39299,424.90687 414.11621,425.35351 C415.83943,425.80015 417.56265,426.19626 419.28587,426.48815 C421.00909,426.78004 422.73231,426.96772 424.45554,427.0637 C426.17876,427.15968 427.90198,427.16396 429.6252,427.13147 C431.34842,427.09898 433.07164,427.02972 434.79486,426.97642 C436.51808,426.92311 438.24131,426.88575 439.96453,426.88773 C441.68775,426.8897 443.41097,426.931 445.13419,427.00754 C446.85741,427.08408 448.58063,427.19586 450.30386,427.32779 C452.02708,427.45971 453.7503,427.61178 455.47352,427.77178 C457.19674,427.93178 458.91996,428.09971 460.64318,428.27128 C462.3664,428.44285 464.08963,428.61807 465.81285,428.79821 C467.53607,428.97834 469.25929,429.16339 470.98251,429.35389 C472.70573,429.54439 474.42895,429.74034 476.15218,429.9365 C477.8754,430.13265 479.59862,430.32902 481.32184,430.51526 C483.04506,430.70151 484.76828,430.87765 486.4915,431.0341 C488.21472,431.19055 489.93795,431.32731 491.66117,431.4409 C493.38439,431.55449 495.10761,431.64492 496.83083,431.71541 C498.55405,431.78591 500.27727,431.83647 502.0005,431.87368 C503.72372,431.91089 505.44694,431.93473 507.17016,431.95139 C508.89338,431.96806 510.6166,431.97753 512.33982,431.98386 C514.06304,431.99018 515.78627,431.99335 517.50949,431.99538 C519.23271,431.99741 520.95593,431.9983 522.67915,431.99882 C524.40237,431.99935 526.12559,431.99952 527.84882,431.99953 C529.57204,431.99953 531.29526,431.99937 533.01848,431.99888 C534.7417,431.99839 536.46492,431.99757 538.18814,431.99578 C539.91136,431.99398 541.63459,431.9912 543.35781,431.98592 C545.08103,431.98065 546.80425,431.97287 548.52747,431.96 C550.25069,431.94713 551.97391,431.92916 553.69714,431.9032 C555.42036,431.87724 557.14358,431.84328 558.8668,431.80052 C560.59002,431.75776 562.31324,431.70621 564.03646,431.64994 C565.75968,431.59368 567.48291,431.5327 569.20613,431.47689 C572.65257,431.36529 576.09901,431.2744 579.54545,431.27863" id="hemPerimeter" class="data density"/>
	</g>
	<g id="allPathLength" class="layer">
		<path d="M 50.454545 429.92042 C53.977302,429.44439 57.500059,429.03636 61.022816,428.87169 C62.784194,428.78935 64.545572,428.76785 66.306951,428.79613 C68.068329,428.82441 69.829708,428.90246 71.591086,429.00122 C73.352464,429.09998 75.113843,429.21944 76.875221,429.33554 C78.6366,429.45165 80.397978,429.56439 82.159357,429.66875 C83.920735,429.77312 85.682113,429.8691 87.443492,429.96327 C89.20487,430.05744 90.966249,430.14978 92.727627,430.24411 C94.489005,430.33844 96.250384,430.43475 98.011762,430.52844 C99.773141,430.62212 101.53452,430.71318 103.2959,430.79321 C105.05728,430.87324 106.81865,430.94225 108.58003,430.99498 C110.34141,431.04771 112.10279,431.08417 113.86417,431.10491 C115.62555,431.12565 117.38692,431.13067 119.1483,431.12445 C120.90968,431.11822 122.67106,431.10074 124.43244,431.07793 C126.19382,431.05512 127.9552,431.02697 129.71657,430.99872 C131.47795,430.97047 133.23933,430.94211 135.00071,430.9131 C136.76209,430.88408 138.52347,430.85442 140.28484,430.80751 C142.04622,430.7606 143.8076,430.69646 145.56898,430.56927 C147.33036,430.44209 149.09174,430.25187 150.85311,429.91099 C152.61449,429.57011 154.37587,429.07856 156.13725,428.29602 C157.89863,427.51349 159.66001,426.43997 161.42139,424.87406 C163.18276,423.30815 164.94414,421.24984 166.70552,418.43605 C168.4669,415.62225 170.22828,412.05296 171.98966,407.42335 C173.75103,402.79375 175.51241,397.10383 177.27379,390.06358 C179.03517,383.02334 180.79655,374.63277 182.55793,364.7139 C184.3193,354.79503 186.08068,343.34785 187.84206,330.4231 C189.60344,317.49834 191.36482,303.09601 193.1262,287.59119 C194.88758,272.08637 196.64895,255.47906 198.41033,238.49735 C200.17171,221.51563 201.93309,204.15952 203.69447,187.42879 C205.45585,170.69806 207.21722,154.59271 208.9786,140.18143 C210.73998,125.77014 212.50136,113.05291 214.26274,102.90145 C216.02412,92.749986 217.78549,85.164288 219.54687,80.595443 C221.30825,76.026597 223.06963,74.474604 224.83101,75.866004 C226.59239,77.257404 228.35377,81.592197 230.11514,88.313453 C231.87652,95.034709 233.6379,104.14243 235.39928,114.77765 C237.16066,125.41287 238.92204,137.57559 240.68341,150.37338 C242.44479,163.17117 244.20617,176.60404 245.96755,189.9796 C247.72893,203.35517 249.49031,216.67343 251.25168,229.52385 C253.01306,242.37428 254.77444,254.75687 256.53582,266.47138 C258.2972,278.1859 260.05858,289.23234 261.81995,299.5048 C263.58133,309.77726 265.34271,319.27575 267.10409,327.92563 C268.86547,336.57552 270.62685,344.3768 272.38823,351.28246 C274.1496,358.18812 275.91098,364.19816 277.67236,369.31427 C279.43374,374.43039 281.19512,378.65257 282.9565,382.06142 C284.71787,385.47028 286.47925,388.06581 288.24063,390.02559 C290.00201,391.98538 291.76339,393.30942 293.52477,394.2382 C295.28614,395.16698 297.04752,395.70049 298.8089,396.05975 C300.57028,396.41901 302.33166,396.60402 304.09304,396.75541 C305.85442,396.9068 307.61579,397.02456 309.37717,397.178 C311.13855,397.33144 312.89993,397.52055 314.66131,397.78399 C316.42269,398.04743 318.18406,398.3852 319.94544,398.81283 C321.70682,399.24045 323.4682,399.75793 325.22958,400.3312 C326.99096,400.90446 328.75233,401.53352 330.51371,402.12874 C332.27509,402.72397 334.03647,403.28536 335.79785,403.71265 C337.55923,404.13994 339.32061,404.43311 341.08198,404.54828 C342.84336,404.66345 344.60474,404.60062 346.36612,404.41201 C348.1275,404.22339 349.88888,403.90899 351.65025,403.6026 C353.41163,403.29622 355.17301,402.99786 356.93439,402.85723 C358.69577,402.71659 360.45715,402.73368 362.21852,402.98796 C363.9799,403.24224 365.74128,403.73371 367.50266,404.42125 C369.26404,405.1088 371.02542,405.99242 372.7868,406.94027 C374.54817,407.88813 376.30955,408.90021 378.07093,409.84337 C379.83231,410.78653 381.59369,411.66076 383.35507,412.40618 C385.11644,413.15159 386.87782,413.76817 388.6392,414.2772 C390.40058,414.78623 392.16196,415.1877 393.92334,415.54101 C395.68471,415.89433 397.44609,416.1995 399.20747,416.51009 C400.96885,416.82068 402.73023,417.1367 404.49161,417.48988 C406.25298,417.84306 408.01436,418.23341 409.77574,418.67346 C411.53712,419.11352 413.2985,419.60327 415.05988,420.13503 C416.82126,420.66678 418.58263,421.24054 420.34401,421.82187 C422.10539,422.40319 423.86677,422.99209 425.62815,423.53444 C427.38953,424.0768 429.1509,424.57263 430.91228,424.97645 C432.67366,425.38027 434.43504,425.69209 436.19642,425.9052 C437.9578,426.11832 439.71917,426.23272 441.48055,426.28746 C443.24193,426.3422 445.00331,426.33726 446.76469,426.33327 C448.52607,426.32928 450.28745,426.32622 452.04882,426.36306 C453.8102,426.3999 455.57158,426.47664 457.33296,426.57925 C459.09434,426.68186 460.85572,426.81035 462.61709,426.91251 C464.37847,427.01468 466.13985,427.09053 467.90123,427.10659 C469.66261,427.12265 471.42399,427.07892 473.18536,427.00277 C474.94674,426.92662 476.70812,426.81804 478.4695,426.74332 C480.23088,426.66859 481.99226,426.62772 483.75364,426.66443 C485.51501,426.70114 487.27639,426.81544 489.03777,426.99663 C490.79915,427.17782 492.56053,427.42591 494.32191,427.69874 C496.08328,427.97158 497.84466,428.26918 499.60604,428.55697 C501.36742,428.84476 503.1288,429.12275 504.89018,429.37873 C506.65155,429.6347 508.41293,429.86867 510.17431,430.08189 C511.93569,430.29512 513.69707,430.4876 515.45845,430.66195 C517.21983,430.8363 518.9812,430.9925 520.74258,431.13026 C522.50396,431.26801 524.26534,431.38732 526.02672,431.4872 C527.7881,431.58708 529.54947,431.66754 531.31085,431.72979 C533.07223,431.79204 534.83361,431.83609 536.59499,431.86485 C538.35637,431.89361 540.11774,431.90708 541.87912,431.90732 C543.6405,431.90757 545.40188,431.89459 547.16326,431.869 C548.92464,431.84341 550.68602,431.80521 552.44739,431.75687 C554.20877,431.70853 555.97015,431.65006 557.73153,431.58953 C559.49291,431.529 561.25429,431.46641 563.01566,431.41538 C566.53842,431.31331 570.06118,431.25743 573.58393,431.31049" id="allPathLength" class="data density"/>
	</g>
	<g id="axis titles" class="layer">
		<text font-size="12" class="axis title" text-anchor="middle" x="606" y="426">Path Length</text>
	</g>
	<g id="legend" class="layer">
		<g id="hemPerimeter row">
			<line id="hemPerimeter" class="data legend" x1="550" x2="600" y1="19" y2="19"/>
			<text font-size="12" class="legend label" text-anchor="start" x="603" y="22">hemPerimeter</text>
		</g>
		<g id="allPathLength row">
			<line id="allPathLength" class="data legend" x1="550" x2="600" y1="34" y2="34"/>
			<text font-size="12" class="legend label" text-anchor="start" x="603" y="37">allPathLength</text>
		</g>
	</g>
</svg>
