<?xml version='1.0' encoding='UTF-8'?>
<!DOCTYPE svg PUBLIC "-//W3C//DTD SVG 1.0//EN" "http://www.w3.org/TR/2001/REC-SVG-20010904/DTD/svg10.dtd ">
<svg height="480" viewBox="0 0 640 480" width="640" xmlns="http://www.w3.org/2000/svg" >
	<defs>
		<style type="text/css">
			<![CDATA[
				.data {
					fill: none;
					stroke: black;
					stroke-linecap: round;
					stroke-width: 1.5;
				}
				[class~="density"][id="all2PathLength"] {
					fill: none;
					stroke: rgb(255, 20, 247);
				}
				[class~="density"][id="allPathLength"] {
					fill: none;
					stroke: rgb(255, 147, 0);
				}
				[class~="density"][id="hem2PathLength"] {
					fill: none;
					stroke: rgb(31, 234, 181);
				}
				[class~="density"][id="hemPerimeter"] {
					fill: none;
					stroke: rgb(67, 0, 246);
				}
				[class~="legend"][id="all2PathLength"] {
					fill: none;
					stroke: rgb(255, 20, 247);
				}
				[class~="legend"][id="allPathLength"] {
					fill: none;
					stroke: rgb(255, 147, 0);
				}
				[class~="legend"][id="hem2PathLength"] {
					fill: none;
					stroke: rgb(31, 234, 181);
				}
				[class~="legend"][id="hemPerimeter"] {
					fill: none;
					stroke: rgb(67, 0, 246);
				}
				line.axis {
					stroke: dimgrey;
					stroke-width: 0.75;
				}
				line.colorbar.tic {
					stroke: black;
					stroke-linecap: butt;
					stroke-width: 0.5;
				}
				line.scalebar {
					stroke: black;
					stroke-width: 0.75;
				}
				line.tic {
					stroke-linecap: round;
				}
				rect.colorbar {
					fill: none;
					stroke: black;
					stroke-width: 0.5;
				}
				rect.plot {
					fill: none;
					stroke: none;
				}
				text {
					font-family: Times;
				}
				text.axis {
					fill: dimgrey;
				}
				text.colorbar.label {
					fill: black;
				}
				text.label {
					font-weight: normal;
				}
				text.title {
					font-weight: bold;
				}
			]]>
		</style>
	</defs>
	<g id="axes" class="layer">
		<g id="x-axis">
			<line id="x-axis" class="axis" x1="24" x2="606" y1="432" y2="432"/>
			<g id="x-axis tics">
				<line id="tic at 0" class="axis tic" x1="41.896233" x2="41.896233" y1="429" y2="435"/>
				<line id="tic at 500" class="axis tic" x1="136.7214" x2="136.7214" y1="429" y2="435"/>
				<line id="tic at 1000" class="axis tic" x1="231.54657" x2="231.54657" y1="429" y2="435"/>
				<line id="tic at 1500" class="axis tic" x1="326.37174" x2="326.37174" y1="429" y2="435"/>
				<line id="tic at 2000" class="axis tic" x1="421.19691" x2="421.19691" y1="429" y2="435"/>
				<line id="tic at 2500" class="axis tic" x1="516.02208" x2="516.02208" y1="429" y2="435"/>
			</g>
			<g id="x-axis small tics">
				<line id="small tic at 250" class="axis tic small" x1="89.308818" x2="89.308818" y1="430.5" y2="433.5"/>
				<line id="small tic at 750" class="axis tic small" x1="184.13399" x2="184.13399" y1="430.5" y2="433.5"/>
				<line id="small tic at 1250" class="axis tic small" x1="278.95916" x2="278.95916" y1="430.5" y2="433.5"/>
				<line id="small tic at 1750" class="axis tic small" x1="373.78433" x2="373.78433" y1="430.5" y2="433.5"/>
				<line id="small tic at 2250" class="axis tic small" x1="468.6095" x2="468.6095" y1="430.5" y2="433.5"/>
				<line id="small tic at 2750" class="axis tic small" x1="563.43467" x2="563.43467" y1="430.5" y2="433.5"/>
			</g>
		</g>
		<g id="x-axis labels">
			<text font-size="12" class="axis label" text-anchor="middle" x="41.896233" y="450">0</text>
			<text font-size="12" class="axis label" text-anchor="middle" x="136.7214" y="450">500</text>
			<text font-size="12" class="axis label" text-anchor="middle" x="231.54657" y="450">1000</text>
			<text font-size="12" class="axis label" text-anchor="middle" x="326.37174" y="450">1500</text>
			<text font-size="12" class="axis label" text-anchor="middle" x="421.19691" y="450">2000</text>
			<text font-size="12" class="axis label" text-anchor="middle" x="516.02208" y="450">2500</text>
		</g>
		<g id="y-axis">
			<line id="y-axis" class="axis" x1="41.896233" x2="41.896233" y1="432" y2="24"/>
			<g id="y-axis tics">
				<line id="tic at 0.0005" class="axis tic" x1="44.896233" x2="38.896233" y1="384.25204" y2="384.25204"/>
				<line id="tic at 0.001" class="axis tic" x1="44.896233" x2="38.896233" y1="336.50407" y2="336.50407"/>
				<line id="tic at 0.0015" class="axis tic" x1="44.896233" x2="38.896233" y1="288.75611" y2="288.75611"/>
				<line id="tic at 0.002" class="axis tic" x1="44.896233" x2="38.896233" y1="241.00815" y2="241.00815"/>
				<line id="tic at 0.0025" class="axis tic" x1="44.896233" x2="38.896233" y1="193.26019" y2="193.26019"/>
				<line id="tic at 0.003" class="axis tic" x1="44.896233" x2="38.896233" y1="145.51222" y2="145.51222"/>
				<line id="tic at 0.0035" class="axis tic" x1="44.896233" x2="38.896233" y1="97.764261" y2="97.764261"/>
				<line id="tic at 0.004" class="axis tic" x1="44.896233" x2="38.896233" y1="50.016299" y2="50.016299"/>
			</g>
			<g id="y-axis small tics">
				<line id="small tic at 0.00025" class="axis tic small" x1="43.396233" x2="40.396233" y1="408.12602" y2="408.12602"/>
				<line id="small tic at 0.00025" class="axis tic small" x1="43.396233" x2="40.396233" y1="408.12602" y2="408.12602"/>
				<line id="small tic at 0.00075" class="axis tic small" x1="43.396233" x2="40.396233" y1="360.37806" y2="360.37806"/>
				<line id="small tic at 0.00125" class="axis tic small" x1="43.396233" x2="40.396233" y1="312.63009" y2="312.63009"/>
				<line id="small tic at 0.00175" class="axis tic small" x1="43.396233" x2="40.396233" y1="264.88213" y2="264.88213"/>
				<line id="small tic at 0.00225" class="axis tic small" x1="43.396233" x2="40.396233" y1="217.13417" y2="217.13417"/>
				<line id="small tic at 0.00275" class="axis tic small" x1="43.396233" x2="40.396233" y1="169.38621" y2="169.38621"/>
				<line id="small tic at 0.00325" class="axis tic small" x1="43.396233" x2="40.396233" y1="121.63824" y2="121.63824"/>
				<line id="small tic at 0.00375" class="axis tic small" x1="43.396233" x2="40.396233" y1="73.89028" y2="73.89028"/>
				<line id="small tic at 0.00425" class="axis tic small" x1="43.396233" x2="40.396233" y1="26.142317" y2="26.142317"/>
			</g>
		</g>
		<g id="y-axis labels">
			<text font-size="12" class="axis label" text-anchor="end" x="35.896233" y="388.75204">0.0005</text>
			<text font-size="12" class="axis label" text-anchor="end" x="35.896233" y="341.00407">0.001</text>
			<text font-size="12" class="axis label" text-anchor="end" x="35.896233" y="293.25611">0.0015</text>
			<text font-size="12" class="axis label" text-anchor="end" x="35.896233" y="245.50815">0.002</text>
			<text font-size="12" class="axis label" text-anchor="end" x="35.896233" y="197.76019">0.0025</text>
			<text font-size="12" class="axis label" text-anchor="end" x="35.896233" y="150.01222">0.003</text>
			<text font-size="12" class="axis label" text-anchor="end" x="35.896233" y="102.26426">0.0035</text>
			<text font-size="12" class="axis label" text-anchor="end" x="35.896233" y="54.516299">0.004</text>
		</g>
	</g>
	<g id="hemPerimeter" class="layer">
		<path d="M 62.393263 430.57867 C64.772452,430.52235 67.15164,430.65608 69.530828,430.85892 C70.720423,430.96034 71.910017,431.07903 73.099611,431.19365 C74.289205,431.30827 75.4788,431.41881 76.668394,431.51361 C77.857988,431.60841 79.047582,431.68747 80.237176,431.74956 C81.426771,431.81165 82.616365,431.85679 83.805959,431.88981 C84.995553,431.92284 86.185148,431.94375 87.374742,431.9578 C88.564336,431.97185 89.75393,431.97904 90.943524,431.98155 C92.133119,431.98407 93.322713,431.9819 94.512307,431.97062 C95.701901,431.95934 96.891496,431.93895 98.08109,431.88857 C99.270684,431.83819 100.46028,431.75782 101.64987,431.58468 C102.83947,431.41154 104.02906,431.14562 105.21866,430.63178 C106.40825,430.11795 107.59784,429.3562 108.78744,428.02662 C109.97703,426.69703 111.16663,424.79959 112.35622,421.79115 C113.54581,418.7827 114.73541,414.66324 115.925,408.7006 C117.1146,402.73796 118.30419,394.93215 119.49379,384.57586 C120.68338,374.21956 121.87297,361.31278 123.06257,345.57065 C124.25216,329.82852 125.44176,311.25104 126.63135,290.39143 C127.82095,269.53182 129.01054,246.39007 130.20013,222.49154 C131.38973,198.593 132.57932,173.93768 133.76892,150.65898 C134.95851,127.38029 136.1481,105.47821 137.3377,86.941814 C138.52729,68.405414 139.71689,53.234688 140.90648,42.55746 C142.09608,31.880232 143.28567,25.696504 144.47526,24 C145.66486,22.303496 146.85445,25.094218 148.04405,31.469767 C149.23364,37.845316 150.42324,47.805692 151.61283,60.039255 C152.80242,72.272817 153.99202,86.779567 155.18161,102.26496 C156.37121,117.75036 157.5608,134.2144 158.7504,150.60909 C159.93999,167.00377 161.12958,183.3291 162.31918,198.85291 C163.50877,214.37672 164.69837,229.09902 165.88796,242.60268 C167.07755,256.10633 168.26715,268.39134 169.45674,279.33404 C170.64634,290.27674 171.83593,299.87713 173.02553,308.25949 C174.21512,316.64184 175.40471,323.80616 176.59431,330.0398 C177.7839,336.27344 178.9735,341.5764 180.16309,346.28238 C181.35269,350.98837 182.54228,355.09737 183.73187,358.87317 C184.92147,362.64897 186.11106,366.09157 187.30066,369.32305 C188.49025,372.55452 189.67984,375.57487 190.86944,378.37144 C192.05903,381.16801 193.24863,383.74081 194.43822,386.02166 C195.62782,388.3025 196.81741,390.29139 198.007,391.95871 C199.1966,393.62602 200.38619,394.97176 201.57579,396.04815 C202.76538,397.12455 203.95498,397.93162 205.14457,398.57809 C206.33416,399.22457 207.52376,399.71045 208.71335,400.14486 C209.90295,400.57926 211.09254,400.96218 212.28214,401.36627 C213.47173,401.77036 214.66132,402.19561 215.85092,402.67781 C217.04051,403.16001 218.23011,403.69915 219.4197,404.30889 C220.60929,404.91862 221.79889,405.59894 222.98848,406.34459 C224.17808,407.09024 225.36767,407.90122 226.55727,408.74476 C227.74686,409.58831 228.93645,410.46441 230.12605,411.31315 C231.31564,412.16188 232.50524,412.98325 233.69483,413.71141 C234.88443,414.43958 236.07402,415.07453 237.26361,415.57503 C238.45321,416.07553 239.6428,416.44158 240.8324,416.67485 C242.02199,416.90812 243.21159,417.00862 244.40118,417.01641 C245.59077,417.0242 246.78037,416.93929 247.96996,416.81969 C249.15956,416.70009 250.34915,416.5458 251.53874,416.41208 C252.72834,416.27836 253.91793,416.16522 255.10753,416.11405 C256.29712,416.06287 257.48672,416.07366 258.67631,416.16984 C259.8659,416.26601 261.0555,416.44757 262.24509,416.71584 C263.43469,416.98411 264.62428,417.33909 265.81388,417.75532 C267.00347,418.17155 268.19306,418.64903 269.38266,419.13722 C270.57225,419.62541 271.76185,420.12431 272.95144,420.57261 C274.14103,421.02092 275.33063,421.41864 276.52022,421.71966 C277.70982,422.02067 278.89941,422.22498 280.08901,422.32914 C281.2786,422.43329 282.46819,422.43729 283.65779,422.39228 C284.84738,422.34726 286.03698,422.25323 287.22657,422.19589 C288.41617,422.13856 289.60576,422.11792 290.79535,422.20368 C291.98495,422.28945 293.17454,422.48163 294.36414,422.78418 C295.55373,423.08672 296.74333,423.49963 297.93292,423.95467 C299.12251,424.4097 300.31211,424.90687 301.5017,425.35351 C302.6913,425.80015 303.88089,426.19626 305.07048,426.48815 C306.26008,426.78004 307.44967,426.96772 308.63927,427.0637 C309.82886,427.15968 311.01846,427.16396 312.20805,427.13147 C313.39764,427.09898 314.58724,427.02972 315.77683,426.97642 C316.96643,426.92311 318.15602,426.88575 319.34562,426.88773 C320.53521,426.8897 321.7248,426.931 322.9144,427.00754 C324.10399,427.08408 325.29359,427.19586 326.48318,427.32779 C327.67277,427.45971 328.86237,427.61178 330.05196,427.77178 C331.24156,427.93178 332.43115,428.09971 333.62075,428.27128 C334.81034,428.44285 335.99993,428.61807 337.18953,428.79821 C338.37912,428.97834 339.56872,429.16339 340.75831,429.35389 C341.94791,429.54439 343.1375,429.74034 344.32709,429.9365 C345.51669,430.13265 346.70628,430.32902 347.89588,430.51526 C349.08547,430.70151 350.27507,430.87765 351.46466,431.0341 C352.65425,431.19055 353.84385,431.32731 355.03344,431.4409 C356.22304,431.55449 357.41263,431.64492 358.60222,431.71541 C359.79182,431.78591 360.98141,431.83647 362.17101,431.87368 C363.3606,431.91089 364.5502,431.93473 365.73979,431.95139 C366.92938,431.96806 368.11898,431.97753 369.30857,431.98386 C370.49817,431.99018 371.68776,431.99335 372.87736,431.99538 C374.06695,431.99741 375.25654,431.9983 376.44614,431.99882 C377.63573,431.99935 378.82533,431.99952 380.01492,431.99953 C381.20451,431.99953 382.39411,431.99937 383.5837,431.99888 C384.7733,431.99839 385.96289,431.99757 387.15249,431.99578 C388.34208,431.99398 389.53167,431.9912 390.72127,431.98592 C391.91086,431.98065 393.10046,431.97287 394.29005,431.96 C395.47965,431.94713 396.66924,431.92916 397.85883,431.9032 C399.04843,431.87724 400.23802,431.84328 401.42762,431.80052 C402.61721,431.75776 403.80681,431.70621 404.9964,431.64994 C406.18599,431.59368 407.37559,431.5327 408.56518,431.47689 C410.94437,431.36529 413.32356,431.2744 415.70275,431.27863" id="hemPerimeter" class="data density"/>
	</g>
	<g id="allPathLength" class="layer">
		<path d="M 50.454546 429.92042 C52.886417,429.44439 55.318287,429.03636 57.750158,428.87169 C58.966093,428.78935 60.182028,428.76785 61.397964,428.79613 C62.613899,428.82441 63.829834,428.90246 65.045769,429.00122 C66.261705,429.09998 67.47764,429.21944 68.693575,429.33554 C69.909511,429.45165 71.125446,429.56439 72.341381,429.66875 C73.557316,429.77312 74.773252,429.8691 75.989187,429.96327 C77.205122,430.05744 78.421057,430.14978 79.636993,430.24411 C80.852928,430.33844 82.068863,430.43475 83.284798,430.52844 C84.500734,430.62212 85.716669,430.71318 86.932604,430.79321 C88.14854,430.87324 89.364475,430.94225 90.58041,430.99498 C91.796345,431.04771 93.012281,431.08417 94.228216,431.10491 C95.444151,431.12565 96.660086,431.13067 97.876022,431.12445 C99.091957,431.11822 100.30789,431.10074 101.52383,431.07793 C102.73976,431.05512 103.9557,431.02697 105.17163,430.99872 C106.38757,430.97047 107.6035,430.94211 108.81944,430.9131 C110.03537,430.88408 111.25131,430.85442 112.46724,430.80751 C113.68318,430.7606 114.89912,430.69646 116.11505,430.56927 C117.33099,430.44209 118.54692,430.25187 119.76286,429.91099 C120.97879,429.57011 122.19473,429.07856 123.41066,428.29602 C124.6266,427.51349 125.84253,426.43997 127.05847,424.87406 C128.2744,423.30815 129.49034,421.24984 130.70627,418.43605 C131.92221,415.62225 133.13814,412.05296 134.35408,407.42335 C135.57002,402.79375 136.78595,397.10383 138.00189,390.06358 C139.21782,383.02334 140.43376,374.63277 141.64969,364.7139 C142.86563,354.79503 144.08156,343.34785 145.2975,330.4231 C146.51343,317.49834 147.72937,303.09601 148.9453,287.59119 C150.16124,272.08637 151.37717,255.47906 152.59311,238.49735 C153.80904,221.51563 155.02498,204.15952 156.24091,187.42879 C157.45685,170.69806 158.67279,154.59271 159.88872,140.18143 C161.10466,125.77014 162.32059,113.05291 163.53653,102.90145 C164.75246,92.749986 165.9684,85.164288 167.18433,80.595443 C168.40027,76.026597 169.6162,74.474604 170.83214,75.866004 C172.04807,77.257404 173.26401,81.592197 174.47994,88.313453 C175.69588,95.034709 176.91181,104.14243 178.12775,114.77765 C179.34368,125.41287 180.55962,137.57559 181.77556,150.37338 C182.99149,163.17117 184.20743,176.60404 185.42336,189.9796 C186.6393,203.35517 187.85523,216.67343 189.07117,229.52385 C190.2871,242.37428 191.50304,254.75687 192.71897,266.47138 C193.93491,278.1859 195.15084,289.23234 196.36678,299.5048 C197.58271,309.77726 198.79865,319.27575 200.01458,327.92563 C201.23052,336.57552 202.44645,344.3768 203.66239,351.28246 C204.87833,358.18812 206.09426,364.19816 207.3102,369.31427 C208.52613,374.43039 209.74207,378.65257 210.958,382.06142 C212.17394,385.47028 213.38987,388.06581 214.60581,390.02559 C215.82174,391.98538 217.03768,393.30942 218.25361,394.2382 C219.46955,395.16698 220.68548,395.70049 221.90142,396.05975 C223.11735,396.41901 224.33329,396.60402 225.54922,396.75541 C226.76516,396.9068 227.9811,397.02456 229.19703,397.178 C230.41297,397.33144 231.6289,397.52055 232.84484,397.78399 C234.06077,398.04743 235.27671,398.3852 236.49264,398.81283 C237.70858,399.24045 238.92451,399.75793 240.14045,400.3312 C241.35638,400.90446 242.57232,401.53352 243.78825,402.12874 C245.00419,402.72397 246.22012,403.28536 247.43606,403.71265 C248.652,404.13994 249.86793,404.43311 251.08387,404.54828 C252.2998,404.66345 253.51574,404.60062 254.73167,404.41201 C255.94761,404.22339 257.16354,403.90899 258.37948,403.6026 C259.59541,403.29622 260.81135,402.99786 262.02728,402.85723 C263.24322,402.71659 264.45915,402.73368 265.67509,402.98796 C266.89102,403.24224 268.10696,403.73371 269.32289,404.42125 C270.53883,405.1088 271.75477,405.99242 272.9707,406.94027 C274.18664,407.88813 275.40257,408.90021 276.61851,409.84337 C277.83444,410.78653 279.05038,411.66076 280.26631,412.40618 C281.48225,413.15159 282.69818,413.76817 283.91412,414.2772 C285.13005,414.78623 286.34599,415.1877 287.56192,415.54101 C288.77786,415.89433 289.99379,416.1995 291.20973,416.51009 C292.42566,416.82068 293.6416,417.1367 294.85754,417.48988 C296.07347,417.84306 297.28941,418.23341 298.50534,418.67346 C299.72128,419.11352 300.93721,419.60327 302.15315,420.13503 C303.36908,420.66678 304.58502,421.24054 305.80095,421.82187 C307.01689,422.40319 308.23282,422.99209 309.44876,423.53444 C310.66469,424.0768 311.88063,424.57263 313.09656,424.97645 C314.3125,425.38027 315.52843,425.69209 316.74437,425.9052 C317.96031,426.11832 319.17624,426.23272 320.39218,426.28746 C321.60811,426.3422 322.82405,426.33726 324.03998,426.33327 C325.25592,426.32928 326.47185,426.32622 327.68779,426.36306 C328.90372,426.3999 330.11966,426.47664 331.33559,426.57925 C332.55153,426.68186 333.76746,426.81035 334.9834,426.91251 C336.19933,427.01468 337.41527,427.09053 338.6312,427.10659 C339.84714,427.12265 341.06308,427.07892 342.27901,427.00277 C343.49495,426.92662 344.71088,426.81804 345.92682,426.74332 C347.14275,426.66859 348.35869,426.62772 349.57462,426.66443 C350.79056,426.70114 352.00649,426.81544 353.22243,426.99663 C354.43836,427.17782 355.6543,427.42591 356.87023,427.69874 C358.08617,427.97158 359.3021,428.26918 360.51804,428.55697 C361.73398,428.84476 362.94991,429.12275 364.16585,429.37873 C365.38178,429.6347 366.59772,429.86867 367.81365,430.08189 C369.02959,430.29512 370.24552,430.4876 371.46146,430.66195 C372.67739,430.8363 373.89333,430.9925 375.10926,431.13026 C376.3252,431.26801 377.54113,431.38732 378.75707,431.4872 C379.973,431.58708 381.18894,431.66754 382.40487,431.72979 C383.62081,431.79204 384.83675,431.83609 386.05268,431.86485 C387.26862,431.89361 388.48455,431.90708 389.70049,431.90732 C390.91642,431.90757 392.13236,431.89459 393.34829,431.869 C394.56423,431.84341 395.78016,431.80521 396.9961,431.75687 C398.21203,431.70853 399.42797,431.65006 400.6439,431.58953 C401.85984,431.529 403.07577,431.46641 404.29171,431.41538 C406.72358,431.31331 409.15545,431.25743 411.58732,431.31049" id="allPathLength" class="data density"/>
	</g>
	<g id="hem2PathLength" class="layer">
		<path d="M 57.202173 431.23724 C59.17366,431.23323 61.145147,431.2994 63.116635,431.38526 C64.102378,431.4282 65.088122,431.47606 66.073866,431.52023 C67.059609,431.5644 68.045353,431.60489 69.031097,431.63517 C70.01684,431.66545 71.002584,431.68552 71.988328,431.69228 C72.974071,431.69905 73.959815,431.6925 74.945559,431.67364 C75.931302,431.65478 76.917046,431.62361 77.90279,431.58503 C78.888534,431.54644 79.874277,431.50044 80.860021,431.45478 C81.845765,431.40911 82.831508,431.36377 83.817252,431.32695 C84.802996,431.29013 85.788739,431.26182 86.774483,431.24737 C87.760227,431.23292 88.74597,431.23232 89.731714,431.24543 C90.717458,431.25854 91.703201,431.28536 92.688945,431.3196 C93.674689,431.35385 94.660432,431.39551 95.646176,431.43275 C96.63192,431.46999 97.617663,431.5028 98.603407,431.51264 C99.589151,431.52248 100.57489,431.50934 101.56064,431.44154 C102.54638,431.37375 103.53213,431.2513 104.51787,431.01587 C105.50361,430.78044 106.48936,430.43203 107.4751,429.86685 C108.46084,429.30167 109.44659,428.51972 110.43233,427.35434 C111.41808,426.18897 112.40382,424.64017 113.38956,422.47451 C114.37531,420.30885 115.36105,417.52632 116.34679,413.85163 C117.33254,410.17695 118.31828,405.61011 119.30402,399.89985 C120.28977,394.18959 121.27551,387.33591 122.26126,379.21491 C123.247,371.09392 124.23274,361.70562 125.21849,351.16403 C126.20423,340.62244 127.18997,328.92757 128.17572,316.49322 C129.16146,304.05887 130.1472,290.88505 131.13295,277.64248 C132.11869,264.39992 133.10444,251.0886 134.09018,238.47469 C135.07592,225.86078 136.06167,213.94427 137.04741,203.36221 C138.03315,192.78015 139.0189,183.53255 140.00464,175.94361 C140.99039,168.35467 141.97613,162.42439 142.96187,158.1077 C143.94762,153.79101 144.93336,151.08791 145.9191,149.66768 C146.90485,148.24746 147.89059,148.11012 148.87633,148.80316 C149.86208,149.49621 150.84782,151.01964 151.83357,152.96216 C152.81931,154.90468 153.80505,157.2663 154.7908,159.78365 C155.77654,162.301 156.76228,164.97409 157.74803,167.71813 C158.73377,170.46217 159.71952,173.27715 160.70526,176.21581 C161.691,179.15448 162.67675,182.21681 163.66249,185.50499 C164.64823,188.79317 165.63398,192.3072 166.61972,196.108 C167.60546,199.9088 168.59121,203.99636 169.57695,208.34401 C170.5627,212.69165 171.54844,217.29936 172.53418,222.07001 C173.51993,226.84066 174.50567,231.77424 175.49141,236.76111 C176.47716,241.74797 177.4629,246.78812 178.44865,251.81219 C179.43439,256.83625 180.42013,261.84423 181.40588,266.8214 C182.39162,271.79857 183.37736,276.74493 184.36311,281.67588 C185.34885,286.60684 186.33459,291.52239 187.32034,296.42861 C188.30608,301.33484 189.29183,306.23174 190.27757,311.0871 C191.26331,315.94246 192.24906,320.75628 193.2348,325.45177 C194.22054,330.14727 195.20629,334.72444 196.19203,339.07855 C197.17778,343.43267 198.16352,347.56373 199.14926,351.37304 C200.13501,355.18236 201.12075,358.66994 202.10649,361.78391 C203.09224,364.89788 204.07798,367.63824 205.06372,370.02894 C206.04947,372.41965 207.03521,374.4607 208.02096,376.24847 C209.0067,378.03625 209.99244,379.57074 210.97819,380.97856 C211.96393,382.38638 212.94967,383.66752 213.93542,384.91772 C214.92116,386.16791 215.90691,387.38717 216.89265,388.59756 C217.87839,389.80796 218.86414,391.00949 219.84988,392.15395 C220.83562,393.29841 221.82137,394.38579 222.80711,395.34388 C223.79285,396.30197 224.7786,397.13077 225.76434,397.79198 C226.75009,398.4532 227.73583,398.94682 228.72157,399.30162 C229.70732,399.65642 230.69306,399.87238 231.6788,400.03643 C232.66455,400.20048 233.65029,400.31261 234.63604,400.47648 C235.62178,400.64035 236.60752,400.85597 237.59327,401.19629 C238.57901,401.5366 239.56475,402.00162 240.5505,402.6056 C241.53624,403.20958 242.52198,403.95253 243.50773,404.79264 C244.49347,405.63276 245.47922,406.57004 246.46496,407.53322 C247.4507,408.4964 248.43645,409.48548 249.42219,410.43262 C250.40793,411.37977 251.39368,412.28498 252.37942,413.10614 C253.36517,413.92729 254.35091,414.66438 255.33665,415.30559 C256.3224,415.9468 257.30814,416.49213 258.29388,416.95223 C259.27963,417.41233 260.26537,417.7872 261.25111,418.09978 C262.23686,418.41236 263.2226,418.66264 264.20835,418.87912 C265.19409,419.09559 266.17983,419.27825 267.16558,419.45569 C268.15132,419.63312 269.13706,419.80534 270.12281,419.99273 C271.10855,420.18012 272.0943,420.38269 273.08004,420.6034 C274.06578,420.82412 275.05153,421.06299 276.03727,421.30387 C277.02301,421.54475 278.00876,421.78766 278.9945,422.00944 C279.98024,422.23122 280.96599,422.43188 281.95173,422.60162 C282.93748,422.77137 283.92322,422.91021 284.90896,423.03483 C285.89471,423.15945 286.88045,423.26985 287.86619,423.40247 C288.85194,423.53509 289.83768,423.68992 290.82343,423.89951 C291.80917,424.10911 292.79491,424.37345 293.78066,424.69801 C294.7664,425.02257 295.75214,425.40734 296.73789,425.82515 C297.72363,426.24296 298.70937,426.69382 299.69512,427.13288 C300.68086,427.57194 301.66661,427.99921 302.65235,428.37542 C303.63809,428.75163 304.62384,429.07678 305.60958,429.33324 C306.59532,429.5897 307.58107,429.77747 308.56681,429.9021 C309.55256,430.02673 310.5383,430.08823 311.52404,430.10589 C312.50979,430.12354 313.49553,430.09735 314.48127,430.04829 C315.46702,429.99922 316.45276,429.92728 317.4385,429.84751 C318.42425,429.76773 319.40999,429.68012 320.39574,429.59265 C321.38148,429.50517 322.36722,429.41783 323.35297,429.3345 C324.33871,429.25118 325.32445,429.17187 326.3102,429.09938 C327.29594,429.02689 328.28168,428.96122 329.26743,428.9048 C330.25317,428.84837 331.23892,428.80119 332.22466,428.76466 C333.2104,428.72813 334.19615,428.70227 335.18189,428.68781 C336.16763,428.67335 337.15338,428.6703 338.13912,428.68057 C339.12487,428.69084 340.11061,428.71442 341.09635,428.75515 C342.0821,428.79588 343.06784,428.85376 344.05358,428.93305 C346.02507,429.09163 347.99656,429.33588 349.96805,429.65263" id="hem2PathLength" class="data density"/>
	</g>
	<g id="all2PathLength" class="layer">
		<path d="M 51.276491 429.22817 C54.833857,428.52129 58.391224,428.35635 61.948591,428.59717 C63.727274,428.71758 65.505958,428.93943 67.284641,429.18075 C69.063325,429.42206 70.842008,429.68286 72.620691,429.92325 C74.399375,430.16364 76.178058,430.38364 77.956741,430.57419 C79.735425,430.76474 81.514108,430.92585 83.292792,431.06028 C85.071475,431.19471 86.850158,431.30247 88.628842,431.38558 C90.407525,431.46869 92.186208,431.52716 93.964892,431.56306 C95.743575,431.59896 97.522259,431.61229 99.300942,431.61454 C101.07963,431.61679 102.85831,431.60796 104.63699,431.59319 C106.41568,431.57841 108.19436,431.55769 109.97304,431.4814 C111.75173,431.40511 113.53041,431.27325 115.30909,430.91444 C117.08778,430.55562 118.86646,429.96985 120.64514,428.78133 C122.42383,427.5928 124.20251,425.80153 125.98119,422.82263 C127.75988,419.84373 129.53856,415.6772 131.31724,409.74432 C133.09593,403.81144 134.87461,396.11221 136.65329,386.47337 C138.43198,376.83454 140.21066,365.2561 141.98934,352.30034 C143.76803,339.34458 145.54671,325.01151 147.32539,310.42197 C149.10408,295.83242 150.88276,280.98642 152.66144,266.76425 C154.44013,252.54208 156.21881,238.94374 157.99749,226.1263 C159.77618,213.30885 161.55486,201.2723 163.33354,190.07274 C165.11223,178.87317 166.89091,168.5106 168.66959,159.72874 C170.44828,150.94689 172.22696,143.74575 174.00564,139.34262 C175.78433,134.9395 177.56301,133.33438 179.34169,135.36294 C181.12038,137.3915 182.89906,143.05373 184.67774,152.23334 C186.45643,161.41294 188.23511,174.10991 190.01379,189.17683 C191.79248,204.24376 193.57116,221.68064 195.34984,239.54948 C197.12853,257.41832 198.90721,275.71913 200.68589,292.45044 C202.46458,309.18175 204.24326,324.34358 206.02194,336.85434 C207.80063,349.3651 209.57931,359.22481 211.35799,366.62212 C213.13668,374.01943 214.91536,378.95435 216.69404,382.37574 C218.47273,385.79713 220.25141,387.705 222.03009,389.05735 C223.80878,390.4097 225.58746,391.20655 227.36615,391.99393 C229.14483,392.78132 230.92351,393.55924 232.7022,394.43793 C234.48088,395.31662 236.25956,396.29608 238.03825,397.24479 C239.81693,398.19351 241.59561,399.11148 243.3743,399.87656 C245.15298,400.64163 246.93166,401.25381 248.71035,401.69292 C250.48903,402.13204 252.26771,402.39809 254.0464,402.55105 C255.82508,402.70401 257.60376,402.74389 259.38245,402.83894 C261.16113,402.93399 262.93981,403.08422 264.7185,403.449 C266.49718,403.81378 268.27586,404.39311 270.05455,405.11484 C271.83323,405.83658 273.61191,406.70071 275.3906,407.49958 C277.16928,408.29845 278.94796,409.03206 280.72665,409.65323 C282.50533,410.2744 284.28401,410.78314 286.0627,411.30703 C287.84138,411.83092 289.62006,412.36996 291.39875,413.00168 C293.17743,413.63341 294.95611,414.35783 296.7348,415.10897 C298.51348,415.8601 300.29216,416.63796 302.07085,417.34244 C303.84953,418.04692 305.62821,418.67801 307.4069,419.22251 C309.18558,419.767 310.96426,420.2249 312.74295,420.63993 C314.52163,421.05495 316.30031,421.42711 318.079,421.75892 C319.85768,422.09072 321.63636,422.38218 323.41505,422.62297 C325.19373,422.86375 326.97241,423.05386 328.7511,423.23417 C330.52978,423.41448 332.30846,423.585 334.08715,423.80066 C335.86583,424.01633 337.64451,424.27714 339.4232,424.59628 C341.20188,424.91543 342.98056,425.29291 344.75925,425.68506 C346.53793,426.07721 348.31661,426.48403 350.0953,426.84963 C351.87398,427.21523 353.65266,427.53961 355.43135,427.82175 C357.21003,428.10389 358.98871,428.34378 360.7674,428.57784 C362.54608,428.8119 364.32477,429.04011 366.10345,429.27471 C367.88213,429.5093 369.66082,429.75028 371.4395,429.98382 C373.21818,430.21737 374.99687,430.44349 376.77555,430.65006 C378.55423,430.85664 380.33292,431.04366 382.1116,431.20451 C383.89028,431.36536 385.66897,431.50003 387.44765,431.60605 C389.22633,431.71207 391.00502,431.78943 392.7837,431.8444 C394.56238,431.89936 396.34107,431.93192 398.11975,431.953 C399.89843,431.97408 401.67712,431.98367 403.4558,431.98944 C405.23448,431.99521 407.01317,431.99716 408.79185,431.99826 C410.57053,431.99937 412.34922,431.99964 414.1279,431.99979 C415.90658,431.99994 417.68527,431.99996 419.46395,431.99996 C421.24263,431.99996 423.02132,431.99994 424.8,431.9998 C426.57868,431.99966 428.35737,431.9994 430.13605,431.99842 C431.91473,431.99743 433.69342,431.99572 435.4721,431.99105 C437.25078,431.98638 439.02947,431.97876 440.80815,431.96397 C442.58683,431.94917 444.36552,431.92721 446.1442,431.89657 C447.92288,431.86594 449.70157,431.82664 451.48025,431.78723 C453.25893,431.74783 455.03762,431.70832 456.8163,431.68086 C458.59498,431.65339 460.37367,431.63797 462.15235,431.63228 C463.93103,431.62659 465.70972,431.63063 467.4884,431.63219 C469.26708,431.63375 471.04577,431.63284 472.82445,431.63115 C474.60313,431.62946 476.38182,431.62701 478.1605,431.63601 C479.93918,431.64502 481.71787,431.6655 483.49655,431.6965 C485.27523,431.7275 487.05392,431.76903 488.8326,431.8082 C490.61128,431.84738 492.38997,431.88421 494.16865,431.91204 C495.94734,431.93986 497.72602,431.95869 499.5047,431.97112 C501.28339,431.98356 503.06207,431.98959 504.84075,431.99324 C506.61944,431.99689 508.39812,431.99816 510.1768,431.99887 C511.95549,431.99959 513.73417,431.99977 515.51285,431.99987 C517.29154,431.99996 519.07022,431.99998 520.8489,431.99999 C522.62759,432 524.40627,432 526.18495,432 C527.96364,432 529.74232,432 531.521,432 C533.29969,432 535.07837,432 536.85705,431.99999 C538.63574,431.99998 540.41442,431.99995 542.1931,431.99982 C543.97179,431.9997 545.75047,431.99946 547.52915,431.99843 C549.30784,431.9974 551.08652,431.99559 552.8652,431.98998 C554.64389,431.98438 556.42257,431.97499 558.20125,431.95453 C559.97994,431.93407 561.75862,431.90255 563.5373,431.8531 C565.31599,431.80365 567.09467,431.73629 568.87335,431.66218 C572.43072,431.51398 575.98809,431.33884 579.54545,431.35578" id="all2PathLength" class="data density"/>
	</g>
	<g id="axis titles" class="layer">
		<text font-size="12" class="axis title" text-anchor="middle" x="606" y="426">Path Length</text>
	</g>
	<g id="legend" class="layer">
		<g id="hemPerimeter row">
			<line id="hemPerimeter" class="data legend" x1="550" x2="600" y1="19" y2="19"/>
			<text font-size="12" class="legend label" text-anchor="start" x="603" y="22">hemPerimeter</text>
		</g>
		<g id="allPathLength row">
			<line id="allPathLength" class="data legend" x1="550" x2="600" y1="34" y2="34"/>
			<text font-size="12" class="legend label" text-anchor="start" x="603" y="37">allPathLength</text>
		</g>
		<g id="hem2PathLength row">
			<line id="hem2PathLength" class="data legend" x1="550" x2="600" y1="49" y2="49"/>
			<text font-size="12" class="legend label" text-anchor="start" x="603" y="52">hem2PathLength</text>
		</g>
		<g id="all2PathLength row">
			<line id="all2PathLength" class="data legend" x1="550" x2="600" y1="64" y2="64"/>
			<text font-size="12" class="legend label" text-anchor="start" x="603" y="67">all2PathLength</text>
		</g>
	</g>
</svg>
