<?xml version='1.0' encoding='UTF-8'?>
<!DOCTYPE svg PUBLIC "-//W3C//DTD SVG 1.0//EN" "http://www.w3.org/TR/2001/REC-SVG-20010904/DTD/svg10.dtd ">
<svg height="480" viewBox="0 0 640 480" width="640" xmlns="http://www.w3.org/2000/svg" >
	<defs>
		<style type="text/css">
			<![CDATA[
				.data {
					fill: none;
					stroke: black;
					stroke-linecap: round;
					stroke-width: 1.5;
				}
				[class~="density"][id="allArea"] {
					fill: none;
					stroke: rgb(67, 0, 246);
				}
				[class~="legend"][id="allArea"] {
					fill: none;
					stroke: rgb(67, 0, 246);
				}
				line.axis {
					stroke: dimgrey;
					stroke-width: 0.75;
				}
				line.colorbar.tic {
					stroke: black;
					stroke-linecap: butt;
					stroke-width: 0.5;
				}
				line.scalebar {
					stroke: black;
					stroke-width: 0.75;
				}
				line.tic {
					stroke-linecap: round;
				}
				rect.colorbar {
					fill: none;
					stroke: black;
					stroke-width: 0.5;
				}
				rect.plot {
					fill: none;
					stroke: none;
				}
				text {
					font-family: Times;
				}
				text.axis {
					fill: dimgrey;
				}
				text.colorbar.label {
					fill: black;
				}
				text.label {
					font-weight: normal;
				}
				text.title {
					font-weight: bold;
				}
			]]>
		</style>
	</defs>
	<g id="axes" class="layer">
		<g id="x-axis">
			<line id="x-axis" class="axis" x1="24" x2="606" y1="432" y2="432"/>
			<g id="x-axis tics">
				<line id="tic at 0" class="axis tic" x1="48.772444" x2="48.772444" y1="429" y2="435"/>
				<line id="tic at 5000" class="axis tic" x1="102.02441" x2="102.02441" y1="429" y2="435"/>
				<line id="tic at 10000" class="axis tic" x1="155.27638" x2="155.27638" y1="429" y2="435"/>
				<line id="tic at 15000" class="axis tic" x1="208.52835" x2="208.52835" y1="429" y2="435"/>
				<line id="tic at 20000" class="axis tic" x1="261.78031" x2="261.78031" y1="429" y2="435"/>
				<line id="tic at 25000" class="axis tic" x1="315.03228" x2="315.03228" y1="429" y2="435"/>
				<line id="tic at 30000" class="axis tic" x1="368.28425" x2="368.28425" y1="429" y2="435"/>
				<line id="tic at 35000" class="axis tic" x1="421.53622" x2="421.53622" y1="429" y2="435"/>
				<line id="tic at 40000" class="axis tic" x1="474.78818" x2="474.78818" y1="429" y2="435"/>
				<line id="tic at 45000" class="axis tic" x1="528.04015" x2="528.04015" y1="429" y2="435"/>
				<line id="tic at 50000" class="axis tic" x1="581.29212" x2="581.29212" y1="429" y2="435"/>
			</g>
			<g id="x-axis small tics">
				<line id="small tic at 2500" class="axis tic small" x1="75.398428" x2="75.398428" y1="430.5" y2="433.5"/>
				<line id="small tic at 7500" class="axis tic small" x1="128.6504" x2="128.6504" y1="430.5" y2="433.5"/>
				<line id="small tic at 12500" class="axis tic small" x1="181.90236" x2="181.90236" y1="430.5" y2="433.5"/>
				<line id="small tic at 17500" class="axis tic small" x1="235.15433" x2="235.15433" y1="430.5" y2="433.5"/>
				<line id="small tic at 22500" class="axis tic small" x1="288.4063" x2="288.4063" y1="430.5" y2="433.5"/>
				<line id="small tic at 27500" class="axis tic small" x1="341.65827" x2="341.65827" y1="430.5" y2="433.5"/>
				<line id="small tic at 32500" class="axis tic small" x1="394.91023" x2="394.91023" y1="430.5" y2="433.5"/>
				<line id="small tic at 37500" class="axis tic small" x1="448.1622" x2="448.1622" y1="430.5" y2="433.5"/>
				<line id="small tic at 42500" class="axis tic small" x1="501.41417" x2="501.41417" y1="430.5" y2="433.5"/>
				<line id="small tic at 47500" class="axis tic small" x1="554.66614" x2="554.66614" y1="430.5" y2="433.5"/>
			</g>
		</g>
		<g id="x-axis labels">
			<text font-size="12" class="axis label" text-anchor="middle" x="48.772444" y="450">0</text>
			<text font-size="12" class="axis label" text-anchor="middle" x="102.02441" y="450">5000</text>
			<text font-size="12" class="axis label" text-anchor="middle" x="155.27638" y="450">10000</text>
			<text font-size="12" class="axis label" text-anchor="middle" x="208.52835" y="450">15000</text>
			<text font-size="12" class="axis label" text-anchor="middle" x="261.78031" y="450">20000</text>
			<text font-size="12" class="axis label" text-anchor="middle" x="315.03228" y="450">25000</text>
			<text font-size="12" class="axis label" text-anchor="middle" x="368.28425" y="450">30000</text>
			<text font-size="12" class="axis label" text-anchor="middle" x="421.53622" y="450">35000</text>
			<text font-size="12" class="axis label" text-anchor="middle" x="474.78818" y="450">40000</text>
			<text font-size="12" class="axis label" text-anchor="middle" x="528.04015" y="450">45000</text>
			<text font-size="12" class="axis label" text-anchor="middle" x="581.29212" y="450">50000</text>
		</g>
		<g id="y-axis">
			<line id="y-axis" class="axis" x1="48.772444" x2="48.772444" y1="432" y2="24"/>
			<g id="y-axis tics">
				<line id="tic at 5e-06" class="axis tic" x1="51.772444" x2="45.772444" y1="390.49019" y2="390.49019"/>
				<line id="tic at 1e-05" class="axis tic" x1="51.772444" x2="45.772444" y1="348.98037" y2="348.98037"/>
				<line id="tic at 1.5e-05" class="axis tic" x1="51.772444" x2="45.772444" y1="307.47056" y2="307.47056"/>
				<line id="tic at 2e-05" class="axis tic" x1="51.772444" x2="45.772444" y1="265.96074" y2="265.96074"/>
				<line id="tic at 2.5e-05" class="axis tic" x1="51.772444" x2="45.772444" y1="224.45093" y2="224.45093"/>
				<line id="tic at 3e-05" class="axis tic" x1="51.772444" x2="45.772444" y1="182.94111" y2="182.94111"/>
				<line id="tic at 3.5e-05" class="axis tic" x1="51.772444" x2="45.772444" y1="141.4313" y2="141.4313"/>
				<line id="tic at 4e-05" class="axis tic" x1="51.772444" x2="45.772444" y1="99.921486" y2="99.921486"/>
				<line id="tic at 4.5e-05" class="axis tic" x1="51.772444" x2="45.772444" y1="58.411672" y2="58.411672"/>
			</g>
			<g id="y-axis small tics">
				<line id="small tic at 2.5e-06" class="axis tic small" x1="50.272444" x2="47.272444" y1="411.24509" y2="411.24509"/>
				<line id="small tic at 2.5e-06" class="axis tic small" x1="50.272444" x2="47.272444" y1="411.24509" y2="411.24509"/>
				<line id="small tic at 7.5e-06" class="axis tic small" x1="50.272444" x2="47.272444" y1="369.73528" y2="369.73528"/>
				<line id="small tic at 1.25e-05" class="axis tic small" x1="50.272444" x2="47.272444" y1="328.22546" y2="328.22546"/>
				<line id="small tic at 1.75e-05" class="axis tic small" x1="50.272444" x2="47.272444" y1="286.71565" y2="286.71565"/>
				<line id="small tic at 2.25e-05" class="axis tic small" x1="50.272444" x2="47.272444" y1="245.20584" y2="245.20584"/>
				<line id="small tic at 2.75e-05" class="axis tic small" x1="50.272444" x2="47.272444" y1="203.69602" y2="203.69602"/>
				<line id="small tic at 3.25e-05" class="axis tic small" x1="50.272444" x2="47.272444" y1="162.18621" y2="162.18621"/>
				<line id="small tic at 3.75e-05" class="axis tic small" x1="50.272444" x2="47.272444" y1="120.67639" y2="120.67639"/>
				<line id="small tic at 4.25e-05" class="axis tic small" x1="50.272444" x2="47.272444" y1="79.166579" y2="79.166579"/>
				<line id="small tic at 4.75e-05" class="axis tic small" x1="50.272444" x2="47.272444" y1="37.656765" y2="37.656765"/>
			</g>
		</g>
		<g id="y-axis labels">
			<text font-size="12" class="axis label" text-anchor="end" x="42.772444" y="394.99019">5e-06</text>
			<text font-size="12" class="axis label" text-anchor="end" x="42.772444" y="353.48037">1e-05</text>
			<text font-size="12" class="axis label" text-anchor="end" x="42.772444" y="311.97056">1.5e-05</text>
			<text font-size="12" class="axis label" text-anchor="end" x="42.772444" y="270.46074">2e-05</text>
			<text font-size="12" class="axis label" text-anchor="end" x="42.772444" y="228.95093">2.5e-05</text>
			<text font-size="12" class="axis label" text-anchor="end" x="42.772444" y="187.44111">3e-05</text>
			<text font-size="12" class="axis label" text-anchor="end" x="42.772444" y="145.9313">3.5e-05</text>
			<text font-size="12" class="axis label" text-anchor="end" x="42.772444" y="104.42149">4e-05</text>
			<text font-size="12" class="axis label" text-anchor="end" x="42.772444" y="62.911672">4.5e-05</text>
		</g>
	</g>
	<g id="allArea" class="layer">
		<path d="M 50.454546 402.54571 C54.017447,398.03127 57.580349,393.10331 61.143251,388.338 C62.924702,385.95534 64.706153,383.61335 66.487604,381.3943 C68.269054,379.17525 70.050505,377.07915 71.831956,375.18286 C73.613407,373.28657 75.394858,371.5901 77.176309,370.15462 C78.95776,368.71915 80.739211,367.54467 82.520661,366.66645 C84.302112,365.78824 86.083563,365.20629 87.865014,364.9245 C89.646465,364.64271 91.427916,364.66107 93.209367,364.95243 C94.990817,365.24378 96.772268,365.80813 98.553719,366.59348 C100.33517,367.37884 102.11662,368.3852 103.89807,369.54616 C105.67952,370.70712 107.46097,372.02268 109.24242,373.42366 C111.02388,374.82464 112.80533,376.31105 114.58678,377.82095 C116.36823,379.33085 118.14968,380.86423 119.93113,382.3727 C121.71258,383.88117 123.49403,385.36474 125.27548,386.79062 C127.05693,388.21651 128.83838,389.58472 130.61983,390.87678 C132.40129,392.16885 134.18274,393.38477 135.96419,394.5172 C137.74564,395.64963 139.52709,396.69856 141.30854,397.66422 C143.08999,398.62989 144.87144,399.51229 146.65289,400.31637 C148.43434,401.12045 150.21579,401.8462 151.99725,402.50141 C153.7787,403.15662 155.56015,403.74129 157.3416,404.26492 C159.12305,404.78856 160.9045,405.25117 162.68595,405.66335 C164.4674,406.07552 166.24885,406.43726 168.0303,406.75949 C169.81175,407.08171 171.5932,407.36443 173.37466,407.61784 C175.15611,407.87125 176.93756,408.09535 178.71901,408.29802 C180.50046,408.5007 182.28191,408.68195 184.06336,408.84542 C185.84481,409.00889 187.62626,409.15458 189.40771,409.28005 C191.18916,409.40553 192.97062,409.51078 194.75207,409.58623 C196.53352,409.66169 198.31497,409.70734 200.09642,409.70691 C201.87787,409.70648 203.65932,409.65996 205.44077,409.5465 C207.22222,409.43304 209.00367,409.25264 210.78512,408.98345 C212.56657,408.71425 214.34803,408.35626 216.12948,407.89043 C217.91093,407.42461 219.69238,406.85096 221.47383,406.15609 C223.25528,405.46122 225.03673,404.64514 226.81818,403.70078 C228.59963,402.75643 230.38108,401.6838 232.16253,400.48051 C233.94399,399.27723 235.72544,397.94329 237.50689,396.47775 C239.28834,395.01221 241.06979,393.41507 242.85124,391.68357 C244.63269,389.95206 246.41414,388.08619 248.19559,386.07956 C249.97704,384.07293 251.75849,381.92555 253.53994,379.62788 C255.3214,377.33021 257.10285,374.88225 258.8843,372.27357 C260.66575,369.66489 262.4472,366.89549 264.22865,363.95671 C266.0101,361.01794 267.79155,357.90978 269.573,354.62681 C271.35445,351.34384 273.1359,347.88606 274.91736,344.25077 C276.69881,340.61547 278.48026,336.80266 280.26171,332.81043 C282.04316,328.81819 283.82461,324.64653 285.60606,320.29259 C287.38751,315.93865 289.16896,311.40242 290.95041,306.6803 C292.73186,301.95819 294.51331,297.05018 296.29477,291.95484 C298.07622,286.8595 299.85767,281.57682 301.63912,276.11241 C303.42057,270.64801 305.20202,265.00189 306.98347,259.19164 C308.76492,253.38139 310.54637,247.40702 312.32782,241.30082 C314.10927,235.19462 315.89073,228.95659 317.67218,222.63276 C319.45363,216.30893 321.23508,209.89931 323.01653,203.45901 C324.79798,197.01872 326.57943,190.54774 328.36088,184.10329 C330.14233,177.65884 331.92378,171.24092 333.70523,164.90168 C335.48669,158.56244 337.26814,152.30189 339.04959,146.16212 C340.83104,140.02236 342.61249,134.00337 344.39394,128.13589 C346.17539,122.26841 347.95684,116.55243 349.73829,111.01003 C351.51974,105.46763 353.30119,100.09882 355.08264,94.922883 C356.8641,89.746945 358.64555,84.763883 360.427,79.996899 C362.20845,75.229915 363.9899,70.67901 365.77135,66.376103 C367.5528,62.073196 369.33425,58.018288 371.1157,54.252441 C372.89715,50.486595 374.6786,47.009811 376.46006,43.8672 C378.24151,40.724589 380.02296,37.916152 381.80441,35.481249 C383.58586,33.046346 385.36731,30.984978 387.14876,29.31909 C388.93021,27.653202 390.71166,26.382794 392.49311,25.502941 C394.27456,24.623088 396.05601,24.133791 397.83747,24 C399.61892,23.866209 401.40037,24.087923 403.18182,24.60522 C404.96327,25.122517 406.74472,25.935396 408.52617,26.972287 C410.30762,28.009179 412.08907,29.270084 413.87052,30.689395 C415.65197,32.108706 417.43343,33.686422 419.21488,35.379232 C420.99633,37.072041 422.77778,38.879944 424.55923,40.791336 C426.34068,42.702729 428.12213,44.717612 429.90358,46.85525 C431.68503,48.992888 433.46648,51.253281 435.24793,53.675908 C437.02938,56.098535 438.81084,58.683396 440.59229,61.473784 C442.37374,64.264173 444.15519,67.260088 445.93664,70.492389 C447.71809,73.724689 449.49954,77.193375 451.28099,80.905973 C453.06244,84.61857 454.84389,88.575078 456.62534,92.756688 C458.4068,96.938297 460.18825,101.34501 461.9697,105.93593 C463.75115,110.52685 465.5326,115.30198 467.31405,120.20703 C469.0955,125.11208 470.87695,130.14704 472.6584,135.2539 C474.43985,140.36076 476.2213,145.53952 478.00275,150.73656 C479.78421,155.9336 481.56566,161.14891 483.34711,166.33855 C485.12856,171.52819 486.91001,176.69216 488.69146,181.79852 C490.47291,186.90488 492.25436,191.95363 494.03581,196.92476 C495.81726,201.8959 497.59871,206.78941 499.38017,211.59542 C501.16162,216.40142 502.94307,221.11991 504.72452,225.7484 C506.50597,230.37689 508.28742,234.91537 510.06887,239.3659 C511.85032,243.81644 513.63177,248.17903 515.41322,252.4581 C517.19467,256.73717 518.97612,260.93272 520.75758,265.05047 C522.53903,269.16822 524.32048,273.20818 526.10193,277.17748 C527.88338,281.14679 529.66483,285.04545 531.44628,288.88291 C533.22773,292.72037 535.00918,296.49663 536.79063,300.22422 C538.57208,303.95182 540.35354,307.63074 542.13499,311.27634 C543.91644,314.92194 545.69789,318.53421 547.47934,322.1293 C549.26079,325.72438 551.04224,329.30227 552.82369,332.87602 C554.60514,336.44977 556.38659,340.01937 558.16804,343.58985 C559.94949,347.16033 561.73095,350.73169 563.5124,354.2961 C565.29385,357.86051 567.0753,361.41797 568.85675,364.94622 C572.41965,372.00273 575.98255,378.94238 579.54545,385.45908" id="allArea" class="data density"/>
	</g>
	<g id="axis titles" class="layer">
		<text font-size="12" class="axis title" text-anchor="middle" x="606" y="426">Area</text>
	</g>
	<g id="legend" class="layer">
		<g id="allArea row">
			<line id="allArea" class="data legend" x1="550" x2="600" y1="19" y2="19"/>
			<text font-size="12" class="legend label" text-anchor="start" x="603" y="22">allArea</text>
		</g>
	</g>
</svg>
