<?xml version='1.0' encoding='UTF-8'?>
<!DOCTYPE svg PUBLIC "-//W3C//DTD SVG 1.0//EN" "http://www.w3.org/TR/2001/REC-SVG-20010904/DTD/svg10.dtd ">
<svg height="480" viewBox="0 0 640 480" width="640" xmlns="http://www.w3.org/2000/svg" >
	<defs>
		<style type="text/css">
			<![CDATA[
				.data {
					fill: none;
					stroke: black;
					stroke-linecap: round;
					stroke-width: 1.5;
				}
				[class~="density"][id="allAspectRatio"] {
					fill: none;
					stroke: rgb(67, 0, 246);
				}
				[class~="legend"][id="allAspectRatio"] {
					fill: none;
					stroke: rgb(67, 0, 246);
				}
				line.axis {
					stroke: dimgrey;
					stroke-width: 0.75;
				}
				line.colorbar.tic {
					stroke: black;
					stroke-linecap: butt;
					stroke-width: 0.5;
				}
				line.scalebar {
					stroke: black;
					stroke-width: 0.75;
				}
				line.tic {
					stroke-linecap: round;
				}
				rect.colorbar {
					fill: none;
					stroke: black;
					stroke-width: 0.5;
				}
				rect.plot {
					fill: none;
					stroke: none;
				}
				text {
					font-family: Times;
				}
				text.axis {
					fill: dimgrey;
				}
				text.colorbar.label {
					fill: black;
				}
				text.label {
					font-weight: normal;
				}
				text.title {
					font-weight: bold;
				}
			]]>
		</style>
	</defs>
	<g id="axes" class="layer">
		<g id="x-axis">
			<line id="x-axis" class="axis" x1="24" x2="606" y1="432" y2="432"/>
			<g id="x-axis tics">
				<line id="tic at 0.75" class="axis tic" x1="75.670481" x2="75.670481" y1="429" y2="435"/>
				<line id="tic at 1" class="axis tic" x1="134.6645" x2="134.6645" y1="429" y2="435"/>
				<line id="tic at 1.25" class="axis tic" x1="193.65852" x2="193.65852" y1="429" y2="435"/>
				<line id="tic at 1.5" class="axis tic" x1="252.65254" x2="252.65254" y1="429" y2="435"/>
				<line id="tic at 1.75" class="axis tic" x1="311.64656" x2="311.64656" y1="429" y2="435"/>
				<line id="tic at 2" class="axis tic" x1="370.64058" x2="370.64058" y1="429" y2="435"/>
				<line id="tic at 2.25" class="axis tic" x1="429.6346" x2="429.6346" y1="429" y2="435"/>
				<line id="tic at 2.5" class="axis tic" x1="488.62862" x2="488.62862" y1="429" y2="435"/>
				<line id="tic at 2.75" class="axis tic" x1="547.62264" x2="547.62264" y1="429" y2="435"/>
			</g>
			<g id="x-axis small tics">
				<line id="small tic at 0.625" class="axis tic small" x1="46.173471" x2="46.173471" y1="430.5" y2="433.5"/>
				<line id="small tic at 0.875" class="axis tic small" x1="105.16749" x2="105.16749" y1="430.5" y2="433.5"/>
				<line id="small tic at 1.125" class="axis tic small" x1="164.16151" x2="164.16151" y1="430.5" y2="433.5"/>
				<line id="small tic at 1.375" class="axis tic small" x1="223.15553" x2="223.15553" y1="430.5" y2="433.5"/>
				<line id="small tic at 1.625" class="axis tic small" x1="282.14955" x2="282.14955" y1="430.5" y2="433.5"/>
				<line id="small tic at 1.875" class="axis tic small" x1="341.14357" x2="341.14357" y1="430.5" y2="433.5"/>
				<line id="small tic at 2.125" class="axis tic small" x1="400.13759" x2="400.13759" y1="430.5" y2="433.5"/>
				<line id="small tic at 2.375" class="axis tic small" x1="459.13161" x2="459.13161" y1="430.5" y2="433.5"/>
				<line id="small tic at 2.625" class="axis tic small" x1="518.12563" x2="518.12563" y1="430.5" y2="433.5"/>
				<line id="small tic at 2.875" class="axis tic small" x1="577.11965" x2="577.11965" y1="430.5" y2="433.5"/>
			</g>
		</g>
		<g id="x-axis labels">
			<text font-size="12" class="axis label" text-anchor="middle" x="75.670481" y="450">0.75</text>
			<text font-size="12" class="axis label" text-anchor="middle" x="134.6645" y="450">1</text>
			<text font-size="12" class="axis label" text-anchor="middle" x="193.65852" y="450">1.25</text>
			<text font-size="12" class="axis label" text-anchor="middle" x="252.65254" y="450">1.5</text>
			<text font-size="12" class="axis label" text-anchor="middle" x="311.64656" y="450">1.75</text>
			<text font-size="12" class="axis label" text-anchor="middle" x="370.64058" y="450">2</text>
			<text font-size="12" class="axis label" text-anchor="middle" x="429.6346" y="450">2.25</text>
			<text font-size="12" class="axis label" text-anchor="middle" x="488.62862" y="450">2.5</text>
			<text font-size="12" class="axis label" text-anchor="middle" x="547.62264" y="450">2.75</text>
		</g>
		<g id="y-axis">
			<line id="y-axis" class="axis" x1="24" x2="24" y1="432" y2="24"/>
			<g id="y-axis tics">
				<line id="tic at 0.5" class="axis tic" x1="27" x2="21" y1="372.77203" y2="372.77203"/>
				<line id="tic at 1" class="axis tic" x1="27" x2="21" y1="313.54407" y2="313.54407"/>
				<line id="tic at 1.5" class="axis tic" x1="27" x2="21" y1="254.3161" y2="254.3161"/>
				<line id="tic at 2" class="axis tic" x1="27" x2="21" y1="195.08814" y2="195.08814"/>
				<line id="tic at 2.5" class="axis tic" x1="27" x2="21" y1="135.86017" y2="135.86017"/>
				<line id="tic at 3" class="axis tic" x1="27" x2="21" y1="76.632208" y2="76.632208"/>
			</g>
			<g id="y-axis small tics">
				<line id="small tic at 0.25" class="axis tic small" x1="25.5" x2="22.5" y1="402.38602" y2="402.38602"/>
				<line id="small tic at 0.25" class="axis tic small" x1="25.5" x2="22.5" y1="402.38602" y2="402.38602"/>
				<line id="small tic at 0.75" class="axis tic small" x1="25.5" x2="22.5" y1="343.15805" y2="343.15805"/>
				<line id="small tic at 1.25" class="axis tic small" x1="25.5" x2="22.5" y1="283.93009" y2="283.93009"/>
				<line id="small tic at 1.75" class="axis tic small" x1="25.5" x2="22.5" y1="224.70212" y2="224.70212"/>
				<line id="small tic at 2.25" class="axis tic small" x1="25.5" x2="22.5" y1="165.47416" y2="165.47416"/>
				<line id="small tic at 2.75" class="axis tic small" x1="25.5" x2="22.5" y1="106.24619" y2="106.24619"/>
				<line id="small tic at 3.25" class="axis tic small" x1="25.5" x2="22.5" y1="47.018225" y2="47.018225"/>
			</g>
		</g>
		<g id="y-axis labels">
			<text font-size="12" class="axis label" text-anchor="end" x="18" y="377.27203">0.5</text>
			<text font-size="12" class="axis label" text-anchor="end" x="18" y="318.04407">1</text>
			<text font-size="12" class="axis label" text-anchor="end" x="18" y="258.8161">1.5</text>
			<text font-size="12" class="axis label" text-anchor="end" x="18" y="199.58814">2</text>
			<text font-size="12" class="axis label" text-anchor="end" x="18" y="140.36017">2.5</text>
			<text font-size="12" class="axis label" text-anchor="end" x="18" y="81.132208">3</text>
		</g>
	</g>
	<g id="allAspectRatio" class="layer">
		<path d="M 50.454545 431.27066 C54.017447,431.12274 57.580349,431.03983 61.143251,430.82509 C62.924702,430.71772 64.706152,430.57738 66.487603,430.37352 C68.269054,430.16967 70.050505,429.90228 71.831956,429.54795 C73.613407,429.19361 75.394858,428.75233 77.176309,428.20918 C78.957759,427.66603 80.73921,427.02102 82.520661,426.29639 C84.302112,425.57176 86.083563,424.76752 87.865014,423.97433 C89.646465,423.18115 91.427916,422.39901 93.209366,421.68318 C94.990817,420.96735 96.772268,420.31782 98.553719,419.56548 C100.33517,418.81314 102.11662,417.95799 103.89807,416.63273 C105.67952,415.30747 107.46097,413.5121 109.24242,410.86976 C111.02388,408.22741 112.80533,404.73809 114.58678,399.94224 C116.36823,395.14639 118.14968,389.04401 119.93113,380.81451 C121.71258,372.585 123.49403,362.22836 125.27548,348.77095 C127.05693,335.31354 128.83838,318.75535 130.61983,299.00571 C132.40129,279.25608 134.18274,256.315 135.96419,231.88394 C137.74564,207.45287 139.52709,181.53182 141.30854,156.98877 C143.08999,132.44572 144.87144,109.28067 146.65289,89.820633 C148.43434,70.3606 150.21579,54.605589 151.99725,43.499348 C153.7787,32.393106 155.56015,25.935635 157.3416,24 C159.12305,22.064365 160.9045,24.650567 162.68595,30.820089 C164.4674,36.98961 166.24885,46.742452 168.0303,58.56059 C169.81175,70.378727 171.5932,84.262161 173.37466,98.81735 C175.15611,113.37254 176.93756,128.59948 178.71901,143.68781 C180.50046,158.77613 182.28191,173.72583 184.06336,188.06386 C185.84481,202.40189 187.62626,216.12824 189.40771,228.81559 C191.18916,241.50293 192.97062,253.15128 194.75207,263.5059 C196.53352,273.86052 198.31497,282.92141 200.09642,290.84888 C201.87787,298.77635 203.65932,305.5704 205.44077,311.61926 C207.22222,317.66811 209.00367,322.97176 210.78512,327.66973 C212.56657,332.3677 214.34803,336.45999 216.12948,339.82923 C217.91093,343.19847 219.69238,345.84466 221.47383,347.88371 C223.25528,349.92275 225.03673,351.35466 226.81818,352.73301 C228.59963,354.11136 230.38108,355.43615 232.16253,357.23195 C233.94399,359.02775 235.72544,361.29456 237.50689,364.01119 C239.28834,366.72783 241.06979,369.89429 242.85124,373.10849 C244.63269,376.3227 246.41414,379.58467 248.19559,382.58457 C249.97704,385.58448 251.75849,388.32233 253.53994,390.67829 C255.3214,393.03425 257.10285,395.00832 258.8843,396.60923 C260.66575,398.21014 262.4472,399.43789 264.22865,400.46459 C266.0101,401.49128 267.79155,402.31692 269.573,403.14137 C271.35445,403.96582 273.1359,404.78908 274.91736,405.66126 C276.69881,406.53344 278.48026,407.45454 280.26171,408.4129 C282.04316,409.37127 283.82461,410.36691 285.60606,411.41936 C287.38751,412.47182 289.16896,413.5811 290.95041,414.68937 C292.73186,415.79763 294.51331,416.90488 296.29477,417.84447 C298.07622,418.78405 299.85767,419.55597 301.63912,420.06999 C303.42057,420.58401 305.20202,420.84013 306.98347,420.95336 C308.76492,421.0666 310.54637,421.03695 312.32782,421.06473 C314.10927,421.0925 315.89073,421.17769 317.67218,421.41914 C319.45363,421.66059 321.23508,422.0583 323.01653,422.57562 C324.79798,423.09294 326.57943,423.72988 328.36088,424.39722 C330.14233,425.06456 331.92378,425.76231 333.70523,426.41596 C335.48669,427.06961 337.26814,427.67918 339.04959,428.20549 C340.83104,428.73181 342.61249,429.17487 344.39394,429.52704 C346.17539,429.87921 347.95684,430.14048 349.73829,430.31479 C351.51974,430.48909 353.30119,430.57643 355.08264,430.58603 C356.8641,430.59562 358.64555,430.52746 360.427,430.42589 C362.20845,430.32433 363.9899,430.18934 365.77135,430.1019 C367.5528,430.01446 369.33425,429.97456 371.1157,430.02425 C372.89715,430.07395 374.6786,430.21324 376.46006,430.39694 C378.24151,430.58064 380.02296,430.80875 381.80441,431.00799 C383.58586,431.20724 385.36731,431.37761 387.14876,431.48702 C388.93021,431.59642 390.71166,431.64485 392.49311,431.64144 C394.27456,431.63802 396.05601,431.58276 397.83747,431.5043 C399.61892,431.42584 401.40037,431.32419 403.18182,431.23519 C404.96327,431.1462 406.74472,431.06985 408.52617,431.02352 C410.30762,430.97719 412.08907,430.96087 413.87052,430.95267 C415.65197,430.94448 417.43343,430.94442 419.21488,430.9206 C420.99633,430.89678 422.77778,430.8492 424.55923,430.78738 C426.34068,430.72556 428.12213,430.64949 429.90358,430.60605 C431.68503,430.5626 433.46648,430.55178 435.24793,430.59746 C437.02938,430.64314 438.81084,430.74531 440.59229,430.87424 C442.37374,431.00318 444.15519,431.15887 445.93664,431.29431 C447.71809,431.42974 449.49954,431.54491 451.28099,431.61836 C453.06244,431.6918 454.84389,431.72353 456.62534,431.72253 C458.4068,431.72154 460.18825,431.68781 461.9697,431.64789 C463.75115,431.60797 465.5326,431.56184 467.31405,431.53595 C469.0955,431.51005 470.87695,431.50439 472.6584,431.52375 C474.43985,431.5431 476.2213,431.58748 478.00275,431.63922 C479.78421,431.69096 481.56566,431.75006 483.34711,431.79979 C485.12856,431.84952 486.91001,431.88987 488.69146,431.91865 C490.47291,431.94743 492.25436,431.96462 494.03581,431.97538 C495.81726,431.98614 497.59871,431.99047 499.38017,431.99126 C501.16162,431.99204 502.94307,431.98929 504.72452,431.9797 C506.50597,431.97012 508.28742,431.9537 510.06887,431.92047 C511.85032,431.88725 513.63177,431.83721 515.41322,431.76272 C517.19467,431.68822 518.97612,431.58926 520.75758,431.48119 C522.53903,431.37313 524.32048,431.25596 526.10193,431.16964 C527.88338,431.08332 529.66483,431.02785 531.44628,431.02663 C533.22773,431.02542 535.00918,431.07844 536.79063,431.16077 C538.57208,431.24311 540.35354,431.35475 542.13499,431.45003 C543.91644,431.54531 545.69789,431.62423 547.47934,431.66084 C549.26079,431.69746 551.04224,431.69177 552.82369,431.64458 C554.60514,431.5974 556.38659,431.50872 558.16804,431.401 C559.94949,431.29328 561.73095,431.16652 563.5124,431.05623 C565.29385,430.94594 567.0753,430.85212 568.85675,430.80286 C572.41965,430.70435 575.98255,430.78407 579.54545,431.00135" id="allAspectRatio" class="data density"/>
	</g>
	<g id="axis titles" class="layer">
		<text font-size="12" class="axis title" text-anchor="middle" x="606" y="426">Aspect Ratio</text>
	</g>
	<g id="legend" class="layer">
		<g id="allAspectRatio row">
			<line id="allAspectRatio" class="data legend" x1="550" x2="600" y1="19" y2="19"/>
			<text font-size="12" class="legend label" text-anchor="start" x="603" y="22">allAspectRatio</text>
		</g>
	</g>
</svg>
