<?xml version='1.0' encoding='UTF-8'?>
<!DOCTYPE svg PUBLIC "-//W3C//DTD SVG 1.0//EN" "http://www.w3.org/TR/2001/REC-SVG-20010904/DTD/svg10.dtd ">
<svg height="480" viewBox="0 0 640 480" width="640" xmlns="http://www.w3.org/2000/svg" >
	<defs>
		<style type="text/css">
			<![CDATA[
				.data {
					fill: none;
					stroke: black;
					stroke-linecap: round;
					stroke-width: 1.5;
				}
				[class~="density"][id="allCurvature"] {
					fill: none;
					stroke: rgb(67, 0, 246);
				}
				[class~="legend"][id="allCurvature"] {
					fill: none;
					stroke: rgb(67, 0, 246);
				}
				line.axis {
					stroke: dimgrey;
					stroke-width: 0.75;
				}
				line.colorbar.tic {
					stroke: black;
					stroke-linecap: butt;
					stroke-width: 0.5;
				}
				line.scalebar {
					stroke: black;
					stroke-width: 0.75;
				}
				line.tic {
					stroke-linecap: round;
				}
				rect.colorbar {
					fill: none;
					stroke: black;
					stroke-width: 0.5;
				}
				rect.plot {
					fill: none;
					stroke: none;
				}
				text {
					font-family: Times;
				}
				text.axis {
					fill: dimgrey;
				}
				text.colorbar.label {
					fill: black;
				}
				text.label {
					font-weight: normal;
				}
				text.title {
					font-weight: bold;
				}
			]]>
		</style>
	</defs>
	<g id="axes" class="layer">
		<g id="x-axis">
			<line id="x-axis" class="axis" x1="24" x2="606" y1="432" y2="432"/>
			<g id="x-axis tics">
				<line id="tic at 0" class="axis tic" x1="50.362932" x2="50.362932" y1="429" y2="435"/>
				<line id="tic at 5000" class="axis tic" x1="107.8584" x2="107.8584" y1="429" y2="435"/>
				<line id="tic at 10000" class="axis tic" x1="165.35387" x2="165.35387" y1="429" y2="435"/>
				<line id="tic at 15000" class="axis tic" x1="222.84933" x2="222.84933" y1="429" y2="435"/>
				<line id="tic at 20000" class="axis tic" x1="280.3448" x2="280.3448" y1="429" y2="435"/>
				<line id="tic at 25000" class="axis tic" x1="337.84026" x2="337.84026" y1="429" y2="435"/>
				<line id="tic at 30000" class="axis tic" x1="395.33573" x2="395.33573" y1="429" y2="435"/>
				<line id="tic at 35000" class="axis tic" x1="452.8312" x2="452.8312" y1="429" y2="435"/>
				<line id="tic at 40000" class="axis tic" x1="510.32666" x2="510.32666" y1="429" y2="435"/>
				<line id="tic at 45000" class="axis tic" x1="567.82213" x2="567.82213" y1="429" y2="435"/>
			</g>
			<g id="x-axis small tics">
				<line id="small tic at 2500" class="axis tic small" x1="79.110666" x2="79.110666" y1="430.5" y2="433.5"/>
				<line id="small tic at 7500" class="axis tic small" x1="136.60613" x2="136.60613" y1="430.5" y2="433.5"/>
				<line id="small tic at 12500" class="axis tic small" x1="194.1016" x2="194.1016" y1="430.5" y2="433.5"/>
				<line id="small tic at 17500" class="axis tic small" x1="251.59706" x2="251.59706" y1="430.5" y2="433.5"/>
				<line id="small tic at 22500" class="axis tic small" x1="309.09253" x2="309.09253" y1="430.5" y2="433.5"/>
				<line id="small tic at 27500" class="axis tic small" x1="366.588" x2="366.588" y1="430.5" y2="433.5"/>
				<line id="small tic at 32500" class="axis tic small" x1="424.08346" x2="424.08346" y1="430.5" y2="433.5"/>
				<line id="small tic at 37500" class="axis tic small" x1="481.57893" x2="481.57893" y1="430.5" y2="433.5"/>
				<line id="small tic at 42500" class="axis tic small" x1="539.0744" x2="539.0744" y1="430.5" y2="433.5"/>
				<line id="small tic at 47500" class="axis tic small" x1="596.56986" x2="596.56986" y1="430.5" y2="433.5"/>
			</g>
		</g>
		<g id="x-axis labels">
			<text font-size="12" class="axis label" text-anchor="middle" x="50.362932" y="450">0</text>
			<text font-size="12" class="axis label" text-anchor="middle" x="107.8584" y="450">5000</text>
			<text font-size="12" class="axis label" text-anchor="middle" x="165.35387" y="450">10000</text>
			<text font-size="12" class="axis label" text-anchor="middle" x="222.84933" y="450">15000</text>
			<text font-size="12" class="axis label" text-anchor="middle" x="280.3448" y="450">20000</text>
			<text font-size="12" class="axis label" text-anchor="middle" x="337.84026" y="450">25000</text>
			<text font-size="12" class="axis label" text-anchor="middle" x="395.33573" y="450">30000</text>
			<text font-size="12" class="axis label" text-anchor="middle" x="452.8312" y="450">35000</text>
			<text font-size="12" class="axis label" text-anchor="middle" x="510.32666" y="450">40000</text>
			<text font-size="12" class="axis label" text-anchor="middle" x="567.82213" y="450">45000</text>
		</g>
		<g id="y-axis">
			<line id="y-axis" class="axis" x1="50.362932" x2="50.362932" y1="432" y2="24"/>
			<g id="y-axis tics">
				<line id="tic at 0.00025" class="axis tic" x1="53.362932" x2="47.362932" y1="378.01033" y2="378.01033"/>
				<line id="tic at 0.0005" class="axis tic" x1="53.362932" x2="47.362932" y1="324.02065" y2="324.02065"/>
				<line id="tic at 0.00075" class="axis tic" x1="53.362932" x2="47.362932" y1="270.03098" y2="270.03098"/>
				<line id="tic at 0.001" class="axis tic" x1="53.362932" x2="47.362932" y1="216.0413" y2="216.0413"/>
				<line id="tic at 0.00125" class="axis tic" x1="53.362932" x2="47.362932" y1="162.05163" y2="162.05163"/>
				<line id="tic at 0.0015" class="axis tic" x1="53.362932" x2="47.362932" y1="108.06195" y2="108.06195"/>
				<line id="tic at 0.00175" class="axis tic" x1="53.362932" x2="47.362932" y1="54.072277" y2="54.072277"/>
			</g>
			<g id="y-axis small tics">
				<line id="small tic at 0.000125" class="axis tic small" x1="51.862932" x2="48.862932" y1="405.00516" y2="405.00516"/>
				<line id="small tic at 0.000125" class="axis tic small" x1="51.862932" x2="48.862932" y1="405.00516" y2="405.00516"/>
				<line id="small tic at 0.000375" class="axis tic small" x1="51.862932" x2="48.862932" y1="351.01549" y2="351.01549"/>
				<line id="small tic at 0.000625" class="axis tic small" x1="51.862932" x2="48.862932" y1="297.02581" y2="297.02581"/>
				<line id="small tic at 0.000875" class="axis tic small" x1="51.862932" x2="48.862932" y1="243.03614" y2="243.03614"/>
				<line id="small tic at 0.001125" class="axis tic small" x1="51.862932" x2="48.862932" y1="189.04646" y2="189.04646"/>
				<line id="small tic at 0.001375" class="axis tic small" x1="51.862932" x2="48.862932" y1="135.05679" y2="135.05679"/>
				<line id="small tic at 0.001625" class="axis tic small" x1="51.862932" x2="48.862932" y1="81.067114" y2="81.067114"/>
				<line id="small tic at 0.001875" class="axis tic small" x1="51.862932" x2="48.862932" y1="27.077439" y2="27.077439"/>
			</g>
		</g>
		<g id="y-axis labels">
			<text font-size="12" class="axis label" text-anchor="end" x="44.362932" y="382.51033">0.00025</text>
			<text font-size="12" class="axis label" text-anchor="end" x="44.362932" y="328.52065">0.0005</text>
			<text font-size="12" class="axis label" text-anchor="end" x="44.362932" y="274.53098">0.00075</text>
			<text font-size="12" class="axis label" text-anchor="end" x="44.362932" y="220.5413">0.001</text>
			<text font-size="12" class="axis label" text-anchor="end" x="44.362932" y="166.55163">0.00125</text>
			<text font-size="12" class="axis label" text-anchor="end" x="44.362932" y="112.56195">0.0015</text>
			<text font-size="12" class="axis label" text-anchor="end" x="44.362932" y="58.572277">0.00175</text>
		</g>
	</g>
	<g id="allCurvature" class="layer">
		<path d="M 50.454544 24 C54.017446,425.66643 57.580348,429.39787 61.14325,430.78776 C62.924701,431.4827 64.706152,431.59226 66.487602,431.70931 C68.269053,431.82635 70.050504,431.95089 71.831955,431.9964 C73.613406,432.04192 75.394857,432.00841 77.176308,431.99997 C78.957759,431.99153 80.739209,432.00815 82.52066,431.96674 C84.302111,431.92533 86.083562,431.82589 87.865013,431.84038 C89.646464,431.85486 91.427915,431.98327 93.209366,431.99546 C94.990816,432.00765 96.772267,431.90362 98.553718,431.87718 C100.33517,431.85073 102.11662,431.90186 103.89807,431.93732 C105.67952,431.97278 107.46097,431.99257 109.24242,431.99986 C111.02387,432.00714 112.80533,432.00191 114.58678,432 C116.36823,431.99809 118.14968,431.99949 119.93113,432 C121.71258,432.00051 123.49403,432.00014 125.27548,432 C127.05693,431.99986 128.83838,431.99996 130.61983,432 C132.40128,432.00004 134.18274,432.00001 135.96419,432 C137.74564,431.99999 139.52709,432 141.30854,432 C143.08999,432 144.87144,432 146.65289,432 C148.43434,432 150.21579,432 151.99724,432 C153.7787,432 155.56015,432 157.3416,432 C159.12305,432 160.9045,432 162.68595,432 C164.4674,432 166.24885,432 168.0303,432 C169.81175,432 171.5932,432 173.37466,432 C175.15611,432 176.93756,432 178.71901,432 C180.50046,432 182.28191,432 184.06336,432 C185.84481,432 187.62626,432 189.40771,432 C191.18916,432 192.97061,432 194.75207,432 C196.53352,432 198.31497,432 200.09642,432 C201.87787,432 203.65932,432 205.44077,432 C207.22222,432 209.00367,432 210.78512,432 C212.56657,432 214.34803,432 216.12948,432 C217.91093,432 219.69238,432 221.47383,432 C223.25528,432 225.03673,432 226.81818,432 C228.59963,432 230.38108,432 232.16253,432 C233.94399,432 235.72544,432 237.50689,432 C239.28834,432 241.06979,432 242.85124,432 C244.63269,432 246.41414,432 248.19559,432 C249.97704,432 251.75849,432 253.53994,432 C255.3214,432 257.10285,432 258.8843,432 C260.66575,432 262.4472,432 264.22865,432 C266.0101,432 267.79155,432 269.573,432 C271.35445,432 273.1359,432 274.91736,432 C276.69881,432 278.48026,432 280.26171,432 C282.04316,432 283.82461,432 285.60606,432 C287.38751,432 289.16896,432 290.95041,432 C292.73186,432 294.51331,432 296.29477,432 C298.07622,432 299.85767,432 301.63912,432 C303.42057,432 305.20202,432 306.98347,432 C308.76492,432 310.54637,432 312.32782,432 C314.10927,432 315.89073,432 317.67218,432 C319.45363,432 321.23508,432 323.01653,432 C324.79798,432 326.57943,432 328.36088,432 C330.14233,432 331.92378,432 333.70523,432 C335.48669,432 337.26814,432 339.04959,432 C340.83104,432 342.61249,432 344.39394,432 C346.17539,432 347.95684,432 349.73829,432 C351.51974,432 353.30119,432 355.08264,432 C356.8641,432 358.64555,432 360.427,432 C362.20845,432 363.9899,432 365.77135,432 C367.5528,432 369.33425,432 371.1157,432 C372.89715,432 374.6786,432 376.46006,432 C378.24151,432 380.02296,432 381.80441,432 C383.58586,432 385.36731,432 387.14876,432 C388.93021,432 390.71166,432 392.49311,432 C394.27456,432 396.05601,432 397.83747,432 C399.61892,432 401.40037,432 403.18182,432 C404.96327,432 406.74472,432 408.52617,432 C410.30762,432 412.08907,432 413.87052,432 C415.65197,432 417.43343,432 419.21488,432 C420.99633,432 422.77778,432 424.55923,432 C426.34068,432 428.12213,432 429.90358,432 C431.68503,432 433.46648,432 435.24793,432 C437.02939,432 438.81084,432 440.59229,432 C442.37374,432 444.15519,432 445.93664,432 C447.71809,432 449.49954,432 451.28099,432 C453.06244,432 454.84389,432 456.62534,432 C458.4068,432 460.18825,432 461.9697,432 C463.75115,432 465.5326,432 467.31405,432 C469.0955,432 470.87695,432 472.6584,432 C474.43985,432 476.2213,432 478.00276,432 C479.78421,432 481.56566,432 483.34711,432 C485.12856,432 486.91001,432 488.69146,432 C490.47291,432 492.25436,432 494.03581,432 C495.81726,432 497.59872,432 499.38017,432 C501.16162,432 502.94307,432 504.72452,432 C506.50597,432 508.28742,432 510.06887,432 C511.85032,432 513.63177,432 515.41322,432 C517.19467,432 518.97613,432 520.75758,432 C522.53903,432 524.32048,432 526.10193,432 C527.88338,432 529.66483,432 531.44628,432 C533.22773,432 535.00918,432 536.79063,432 C538.57209,432 540.35354,432 542.13499,432 C543.91644,432 545.69789,431.99999 547.47934,432 C549.26079,432.00001 551.04224,432.00004 552.82369,432 C554.60514,431.99996 556.38659,431.99985 558.16804,432 C559.9495,432.00015 561.73095,432.00058 563.5124,432 C565.29385,431.99942 567.0753,431.99785 568.85675,432 C572.41965,432.00429 575.98255,432.02345 579.54546,431.82026" id="allCurvature" class="data density"/>
	</g>
	<g id="axis titles" class="layer">
		<text font-size="12" class="axis title" text-anchor="middle" x="606" y="426">Normalized Curvature</text>
	</g>
	<g id="legend" class="layer">
		<g id="allCurvature row">
			<line id="allCurvature" class="data legend" x1="550" x2="600" y1="19" y2="19"/>
			<text font-size="12" class="legend label" text-anchor="start" x="603" y="22">allCurvature</text>
		</g>
	</g>
</svg>
