<?xml version='1.0' encoding='UTF-8'?>
<!DOCTYPE svg PUBLIC "-//W3C//DTD SVG 1.0//EN" "http://www.w3.org/TR/2001/REC-SVG-20010904/DTD/svg10.dtd ">
<svg height="480" viewBox="0 0 640 480" width="640" xmlns="http://www.w3.org/2000/svg" >
	<defs>
		<style type="text/css">
			<![CDATA[
				.data {
					fill: none;
					stroke: black;
					stroke-linecap: round;
					stroke-width: 1.5;
				}
				[class~="density"][id="allPathLength"] {
					fill: none;
					stroke: rgb(67, 0, 246);
				}
				[class~="legend"][id="allPathLength"] {
					fill: none;
					stroke: rgb(67, 0, 246);
				}
				line.axis {
					stroke: dimgrey;
					stroke-width: 0.75;
				}
				line.colorbar.tic {
					stroke: black;
					stroke-linecap: butt;
					stroke-width: 0.5;
				}
				line.scalebar {
					stroke: black;
					stroke-width: 0.75;
				}
				line.tic {
					stroke-linecap: round;
				}
				rect.colorbar {
					fill: none;
					stroke: black;
					stroke-width: 0.5;
				}
				rect.plot {
					fill: none;
					stroke: none;
				}
				text {
					font-family: Times;
				}
				text.axis {
					fill: dimgrey;
				}
				text.colorbar.label {
					fill: black;
				}
				text.label {
					font-weight: normal;
				}
				text.title {
					font-weight: bold;
				}
			]]>
		</style>
	</defs>
	<g id="axes" class="layer">
		<g id="x-axis">
			<line id="x-axis" class="axis" x1="24" x2="606" y1="432" y2="432"/>
			<g id="x-axis tics">
				<line id="tic at 0" class="axis tic" x1="47.745251" x2="47.745251" y1="429" y2="435"/>
				<line id="tic at 1000" class="axis tic" x1="107.78262" x2="107.78262" y1="429" y2="435"/>
				<line id="tic at 2000" class="axis tic" x1="167.81998" x2="167.81998" y1="429" y2="435"/>
				<line id="tic at 3000" class="axis tic" x1="227.85735" x2="227.85735" y1="429" y2="435"/>
				<line id="tic at 4000" class="axis tic" x1="287.89472" x2="287.89472" y1="429" y2="435"/>
				<line id="tic at 5000" class="axis tic" x1="347.93208" x2="347.93208" y1="429" y2="435"/>
				<line id="tic at 6000" class="axis tic" x1="407.96945" x2="407.96945" y1="429" y2="435"/>
				<line id="tic at 7000" class="axis tic" x1="468.00682" x2="468.00682" y1="429" y2="435"/>
				<line id="tic at 8000" class="axis tic" x1="528.04418" x2="528.04418" y1="429" y2="435"/>
				<line id="tic at 9000" class="axis tic" x1="588.08155" x2="588.08155" y1="429" y2="435"/>
			</g>
			<g id="x-axis small tics">
				<line id="small tic at 500" class="axis tic small" x1="77.763934" x2="77.763934" y1="430.5" y2="433.5"/>
				<line id="small tic at 1500" class="axis tic small" x1="137.8013" x2="137.8013" y1="430.5" y2="433.5"/>
				<line id="small tic at 2500" class="axis tic small" x1="197.83867" x2="197.83867" y1="430.5" y2="433.5"/>
				<line id="small tic at 3500" class="axis tic small" x1="257.87603" x2="257.87603" y1="430.5" y2="433.5"/>
				<line id="small tic at 4500" class="axis tic small" x1="317.9134" x2="317.9134" y1="430.5" y2="433.5"/>
				<line id="small tic at 5500" class="axis tic small" x1="377.95077" x2="377.95077" y1="430.5" y2="433.5"/>
				<line id="small tic at 6500" class="axis tic small" x1="437.98813" x2="437.98813" y1="430.5" y2="433.5"/>
				<line id="small tic at 7500" class="axis tic small" x1="498.0255" x2="498.0255" y1="430.5" y2="433.5"/>
				<line id="small tic at 8500" class="axis tic small" x1="558.06287" x2="558.06287" y1="430.5" y2="433.5"/>
			</g>
		</g>
		<g id="x-axis labels">
			<text font-size="12" class="axis label" text-anchor="middle" x="47.745251" y="450">0</text>
			<text font-size="12" class="axis label" text-anchor="middle" x="107.78262" y="450">1000</text>
			<text font-size="12" class="axis label" text-anchor="middle" x="167.81998" y="450">2000</text>
			<text font-size="12" class="axis label" text-anchor="middle" x="227.85735" y="450">3000</text>
			<text font-size="12" class="axis label" text-anchor="middle" x="287.89472" y="450">4000</text>
			<text font-size="12" class="axis label" text-anchor="middle" x="347.93208" y="450">5000</text>
			<text font-size="12" class="axis label" text-anchor="middle" x="407.96945" y="450">6000</text>
			<text font-size="12" class="axis label" text-anchor="middle" x="468.00682" y="450">7000</text>
			<text font-size="12" class="axis label" text-anchor="middle" x="528.04418" y="450">8000</text>
			<text font-size="12" class="axis label" text-anchor="middle" x="588.08155" y="450">9000</text>
		</g>
		<g id="y-axis">
			<line id="y-axis" class="axis" x1="47.745251" x2="47.745251" y1="432" y2="24"/>
			<g id="y-axis tics">
				<line id="tic at 0.0005" class="axis tic" x1="50.745251" x2="44.745251" y1="370.21027" y2="370.21027"/>
				<line id="tic at 0.001" class="axis tic" x1="50.745251" x2="44.745251" y1="308.42055" y2="308.42055"/>
				<line id="tic at 0.0015" class="axis tic" x1="50.745251" x2="44.745251" y1="246.63082" y2="246.63082"/>
				<line id="tic at 0.002" class="axis tic" x1="50.745251" x2="44.745251" y1="184.8411" y2="184.8411"/>
				<line id="tic at 0.0025" class="axis tic" x1="50.745251" x2="44.745251" y1="123.05137" y2="123.05137"/>
				<line id="tic at 0.003" class="axis tic" x1="50.745251" x2="44.745251" y1="61.261643" y2="61.261643"/>
			</g>
			<g id="y-axis small tics">
				<line id="small tic at 0.00025" class="axis tic small" x1="49.245251" x2="46.245251" y1="401.10514" y2="401.10514"/>
				<line id="small tic at 0.00025" class="axis tic small" x1="49.245251" x2="46.245251" y1="401.10514" y2="401.10514"/>
				<line id="small tic at 0.00075" class="axis tic small" x1="49.245251" x2="46.245251" y1="339.31541" y2="339.31541"/>
				<line id="small tic at 0.00125" class="axis tic small" x1="49.245251" x2="46.245251" y1="277.52568" y2="277.52568"/>
				<line id="small tic at 0.00175" class="axis tic small" x1="49.245251" x2="46.245251" y1="215.73596" y2="215.73596"/>
				<line id="small tic at 0.00225" class="axis tic small" x1="49.245251" x2="46.245251" y1="153.94623" y2="153.94623"/>
				<line id="small tic at 0.00275" class="axis tic small" x1="49.245251" x2="46.245251" y1="92.156506" y2="92.156506"/>
				<line id="small tic at 0.00325" class="axis tic small" x1="49.245251" x2="46.245251" y1="30.36678" y2="30.36678"/>
			</g>
		</g>
		<g id="y-axis labels">
			<text font-size="12" class="axis label" text-anchor="end" x="41.745251" y="374.71027">0.0005</text>
			<text font-size="12" class="axis label" text-anchor="end" x="41.745251" y="312.92055">0.001</text>
			<text font-size="12" class="axis label" text-anchor="end" x="41.745251" y="251.13082">0.0015</text>
			<text font-size="12" class="axis label" text-anchor="end" x="41.745251" y="189.3411">0.002</text>
			<text font-size="12" class="axis label" text-anchor="end" x="41.745251" y="127.55137">0.0025</text>
			<text font-size="12" class="axis label" text-anchor="end" x="41.745251" y="65.761643">0.003</text>
		</g>
	</g>
	<g id="allPathLength" class="layer">
		<path d="M 50.454545 429.51616 C54.017447,427.39765 57.580349,429.20528 61.14325,430.06932 C62.924701,430.50134 64.706152,430.69747 66.487603,430.63255 C68.269054,430.56762 70.050505,430.24166 71.831956,426.45927 C73.613406,422.67688 75.394857,415.43808 77.176308,376.63271 C78.957759,337.82734 80.73921,267.45541 82.520661,192.32567 C84.302112,117.19594 86.083563,37.308409 87.865013,24 C89.646464,10.691591 91.427915,63.962307 93.209366,125.51471 C94.990817,187.06712 96.772268,256.90121 98.553719,301.76607 C100.33517,346.63093 102.11662,366.52657 103.89807,376.84329 C105.67952,387.16002 107.46097,387.89783 109.24242,389.50703 C111.02387,391.11623 112.80533,393.59682 114.58678,394.98825 C116.36823,396.37968 118.14968,396.68196 119.93113,399.07332 C121.71258,401.46467 123.49403,405.9451 125.27548,409.34376 C127.05693,412.74242 128.83838,415.05931 130.61983,417.45585 C132.40129,419.85239 134.18274,422.32857 135.96419,423.50521 C137.74564,424.68184 139.52709,424.55891 141.30854,424.69764 C143.08999,424.83637 144.87144,425.23675 146.65289,426.22675 C148.43434,427.21674 150.21579,428.79635 151.99724,429.85486 C153.7787,430.91337 155.56015,431.45077 157.3416,431.58448 C159.12305,431.71818 160.9045,431.4482 162.68595,431.38592 C164.4674,431.32364 166.24885,431.46907 168.0303,431.61429 C169.81175,431.75951 171.5932,431.90452 173.37466,431.96645 C175.15611,432.02839 176.93756,432.00725 178.71901,431.9996 C180.50046,431.99196 182.28191,431.9978 184.06336,432 C185.84481,432.0022 187.62626,432.00074 189.40771,431.99999 C191.18916,431.99923 192.97062,431.99917 194.75207,431.99732 C196.53352,431.99547 198.31497,431.99183 200.09642,431.9184 C201.87787,431.84497 203.65932,431.70174 205.44077,431.67517 C207.22222,431.6486 209.00367,431.73869 210.78512,431.73927 C212.56657,431.73985 214.34803,431.65092 216.12948,431.66151 C217.91093,431.6721 219.69238,431.7822 221.47383,431.85789 C223.25528,431.93358 225.03673,431.97485 226.81818,431.99206 C228.59963,432.00927 230.38108,432.00241 232.16253,431.99994 C233.94399,431.99748 235.72544,431.9994 237.50689,432 C239.28834,432.0006 241.06979,431.99986 242.85124,432 C244.63269,432.00014 246.41414,432.00116 248.19559,432 C249.97704,431.99884 251.75849,431.9955 253.53994,431.99891 C255.3214,432.00233 257.10285,432.01251 258.8843,431.95071 C260.66575,431.88892 262.4472,431.75516 264.22865,431.71122 C266.0101,431.66727 267.79155,431.71315 269.573,431.78162 C271.35445,431.8501 273.1359,431.94117 274.91736,431.97868 C276.69881,432.0162 278.48026,432.00015 280.26171,431.99851 C282.04316,431.99688 283.82461,432.00965 285.60606,431.9447 C287.38751,431.87974 289.16896,431.73706 290.95041,431.62035 C292.73186,431.50364 294.51331,431.4129 296.29477,431.46425 C298.07622,431.51559 299.85767,431.70902 301.63912,431.82367 C303.42057,431.93832 305.20202,431.9742 306.98347,431.98999 C308.76492,432.00578 310.54637,432.00147 312.32782,431.99992 C314.10927,431.99837 315.89073,431.99956 317.67218,432 C319.45363,432.00044 321.23508,432.00012 323.01653,432 C324.79798,431.99988 326.57943,431.99997 328.36088,432 C330.14233,432.00003 331.92378,432.00001 333.70523,432 C335.48669,431.99999 337.26814,432 339.04959,432 C340.83104,432 342.61249,432 344.39394,432 C346.17539,432 347.95684,432 349.73829,432 C351.51974,432 353.30119,432 355.08264,432 C356.8641,432 358.64555,432 360.427,432 C362.20845,432 363.9899,432 365.77135,432 C367.5528,432 369.33425,432 371.1157,432 C372.89715,432 374.6786,432 376.46006,432 C378.24151,432 380.02296,432 381.80441,432 C383.58586,432 385.36731,432 387.14876,432 C388.93021,432 390.71166,432 392.49311,432 C394.27456,432 396.05601,432 397.83747,432 C399.61892,432 401.40037,432 403.18182,432 C404.96327,432 406.74472,432 408.52617,432 C410.30762,432 412.08907,432 413.87052,432 C415.65197,432 417.43343,432 419.21488,432 C420.99633,432 422.77778,432 424.55923,432 C426.34068,432 428.12213,432 429.90358,432 C431.68503,432 433.46648,432 435.24793,432 C437.02938,432 438.81084,432 440.59229,432 C442.37374,432 444.15519,432 445.93664,432 C447.71809,432 449.49954,432 451.28099,432 C453.06244,432 454.84389,432 456.62534,432 C458.4068,432 460.18825,432 461.9697,432 C463.75115,432 465.5326,432 467.31405,432 C469.0955,432 470.87695,432 472.6584,432 C474.43985,432 476.2213,432 478.00276,432 C479.78421,432 481.56566,432 483.34711,432 C485.12856,432 486.91001,432 488.69146,432 C490.47291,432 492.25436,432 494.03581,432 C495.81726,432 497.59871,432 499.38017,432 C501.16162,432 502.94307,432 504.72452,432 C506.50597,432 508.28742,432 510.06887,432 C511.85032,432 513.63177,432 515.41322,432 C517.19467,432 518.97613,432 520.75758,432 C522.53903,432 524.32048,432 526.10193,432 C527.88338,432 529.66483,432 531.44628,432 C533.22773,432 535.00918,432 536.79063,432 C538.57208,432 540.35354,431.99999 542.13499,432 C543.91644,432.00001 545.69789,432.00006 547.47934,432 C549.26079,431.99994 551.04224,431.99979 552.82369,432 C554.60514,432.00021 556.38659,432.00078 558.16804,432 C559.9495,431.99922 561.73095,431.99709 563.5124,431.99997 C565.29385,432.00284 567.0753,432.01071 568.85675,431.99449 C572.41965,431.96206 575.98255,431.83326 579.54545,431.66938" id="allPathLength" class="data density"/>
	</g>
	<g id="axis titles" class="layer">
		<text font-size="12" class="axis title" text-anchor="middle" x="606" y="426">Path Length</text>
	</g>
	<g id="legend" class="layer">
		<g id="allPathLength row">
			<line id="allPathLength" class="data legend" x1="550" x2="600" y1="19" y2="19"/>
			<text font-size="12" class="legend label" text-anchor="start" x="603" y="22">allPathLength</text>
		</g>
	</g>
</svg>
