<?xml version='1.0' encoding='UTF-8'?>
<!DOCTYPE svg PUBLIC "-//W3C//DTD SVG 1.0//EN" "http://www.w3.org/TR/2001/REC-SVG-20010904/DTD/svg10.dtd ">
<svg height="480" viewBox="0 0 640 480" width="640" xmlns="http://www.w3.org/2000/svg" >
	<defs>
		<style type="text/css">
			<![CDATA[
				.data {
					fill: none;
					stroke: black;
					stroke-linecap: round;
					stroke-width: 1.5;
				}
				[id~="UID_1_10_1_all-08"] {
					fill: none;
					stroke: black;
				}
				line.axis {
					stroke: dimgrey;
					stroke-width: 0.75;
				}
				line.colorbar.tic {
					stroke: black;
					stroke-linecap: butt;
					stroke-width: 0.5;
				}
				line.scalebar {
					stroke: black;
					stroke-width: 0.75;
				}
				line.tic {
					stroke-linecap: round;
				}
				path.data.contour {
					fill: none;
					stroke-width: 2.5;
				}
				rect.colorbar {
					fill: none;
					stroke: black;
					stroke-width: 0.5;
				}
				rect.plot {
					fill: none;
					stroke: none;
				}
				text {
					font-family: Times;
				}
				text.axis {
					fill: dimgrey;
				}
				text.colorbar.label {
					fill: black;
				}
				text.label {
					font-weight: normal;
				}
				text.title {
					font-weight: bold;
				}
			]]>
		</style>
	</defs>
	<g id="contours" class="layer">
		<path d="M 562.11637 93.847309 C557.52479,88.456648 554.47754,80.467765 548.89573,78.454837 C543.31391,76.44191 535.19754,80.404939 530.24752,85.672918 C525.2975,90.940897 523.51384,97.513825 518.55543,102.65924 C513.59702,107.80465 505.46387,111.52254 499.79484,109.45056 C494.1258,107.37857 490.92088,99.516709 486.59288,93.994769 C482.26488,88.472829 476.81379,85.290813 472.37123,79.853901 C467.92867,74.41699 464.49463,66.725184 459.28981,63.243223 C448.88017,56.279299 431.38739,66.154753 419.03717,61.742671 C412.86206,59.53663 407.97258,53.758704 401.88518,52.50196 C395.79777,51.245216 388.51245,54.509653 381.60873,54.620976 C374.70501,54.7323 368.18291,51.69051 362.89289,46.997139 C357.60287,42.303769 353.54493,35.958817 347.78359,33.267842 C342.02225,30.576868 334.55751,31.539871 327.60487,31.551152 C320.65223,31.562434 314.21168,30.621994 307.37533,28.261777 C300.53898,25.90156 293.30683,22.121566 287.57548,24.15799 C281.84414,26.194415 277.61359,34.047258 271.76017,36.843868 C265.90676,39.640479 258.43047,37.380857 251.32779,36.814377 C244.22512,36.247897 237.49606,37.374559 231.37493,40.011289 C219.13267,45.284748 209.32215,56.598479 196.78541,61.588052 C190.51704,64.082839 183.56712,64.996587 176.63035,66.000931 C169.69358,67.005276 162.76996,68.100216 156.36845,66.642623 C149.96694,65.18503 144.08754,61.174902 137.09132,59.539235 C130.09509,57.903567 121.98206,58.64236 117.03072,62.857301 C112.07939,67.072242 110.28977,74.763332 109.57359,81.846479 C108.85741,88.929627 109.21467,95.404832 109.76357,102.35895 C110.31247,109.31308 111.053,116.74612 114.93743,122.14691 C118.82187,127.54771 125.85021,130.91626 132.71715,131.78198 C139.58409,132.6477 146.28963,131.0106 153.31795,133.76476 C160.34627,136.51893 167.69738,143.66436 166.79989,148.49383 C165.90241,153.32331 156.75635,155.83684 149.72868,159.42154 C142.70102,163.00625 137.79176,167.66213 131.5026,168.5902 C125.21344,169.51826 117.54439,166.71851 111.14836,169.19933 C104.75233,171.68015 99.629318,179.44154 100.85169,186.33734 C102.07406,193.23315 109.64182,199.26337 109.59636,204.60824 C109.55089,209.95311 101.8922,214.61263 97.075523,220.26689 C92.258845,225.92116 90.284179,232.57017 89.921711,239.26988 C89.559243,245.96958 90.808973,252.71998 91.944311,259.55105 C93.079649,266.38211 94.100596,273.29385 97.978285,278.72626 C101.85597,284.15867 108.5904,288.11175 109.70416,295.4353 C110.81792,302.75886 106.31101,313.45289 102.60492,313.83439 C98.898839,314.21588 95.993585,304.28483 90.501936,298.3486 C85.010287,292.41236 76.932245,290.47095 70.184995,291.5132 C49.943248,294.63995 41.67864,324.61962 53.40133,340.77153 C61.216456,351.53947 77.914826,356.16174 84.958583,366.85951 C88.480462,372.20839 89.588687,379.07615 91.122172,385.84526 C92.655656,392.61437 94.614399,399.28482 98.382494,404.71932 C102.15059,410.15382 107.72803,414.35236 114.21159,417.37636 C120.69515,420.40036 128.08481,422.24983 134.09073,419.40118 C140.09666,416.55253 144.71883,409.00577 150.57674,408.5779 C156.43465,408.15002 163.52829,414.84104 169.61188,412.56763 C175.69548,410.29421 180.76904,399.05635 182.74156,398.82174 C184.71408,398.58713 183.58556,409.35578 185.63263,417.18975 C189.72676,432.85768 206.52322,436.7869 215.9249,427.13195 C220.62574,422.30448 223.47789,414.08097 221.65369,408.15537 C219.82949,402.22977 213.32893,398.60209 209.15456,393.0953 C204.98019,387.58851 203.13201,380.20261 205.10785,374.2741 C207.0837,368.34558 212.88357,363.87446 216.2991,358.36981 C219.71463,352.86517 220.74583,346.32701 223.25976,340.3146 C225.77369,334.30219 229.77035,328.81553 233.8223,323.86233 C237.87424,318.90912 241.98148,314.48937 245.34944,308.99523 C252.08537,298.00697 255.86422,282.72118 249.29484,271.39284 C246.01015,265.72867 240.1384,261.05386 239.58584,255.01744 C239.03328,248.98102 243.79992,241.58299 250.11761,239.25648 C256.43531,236.92997 264.30405,239.67499 268.50267,244.84572 C272.7013,250.01646 273.2298,257.61293 277.82845,261.86547 C282.4271,266.11801 291.0959,267.02664 296.81901,264.36765 C302.54212,261.70866 305.31955,255.48207 307.16047,247.66535 C309.00139,239.84864 309.90581,230.44179 313.51668,229.56532 C317.12754,228.68884 323.44485,236.34273 329.94314,239.75157 C336.44143,243.16041 343.12069,242.3242 349.08879,244.20813 C361.02498,247.976 370.11652,262.62445 381.93311,265.09613 C387.84141,266.33197 394.43097,264.52362 400.75351,260.2274 C407.07604,255.93117 413.13155,249.14708 410.6159,243.24163 C408.10024,237.33617 397.01343,232.30934 396.94016,229.81773 C396.86688,227.32612 407.80715,227.36972 415.81818,226.70451 C423.82922,226.0393 428.91102,224.66527 435.69007,223.09375 C442.46912,221.52223 450.94541,219.75322 453.42745,215.19323 C455.90949,210.63324 452.39728,203.28228 448.08349,196.4494 C443.7697,189.61652 438.65432,183.30171 440.55878,178.22178 C442.46325,173.14185 451.38755,169.29679 458.27207,170.25823 C465.15658,171.21968 470.00131,176.98762 473.28556,182.92273 C476.5698,188.85784 478.29358,194.96012 481.93936,200.69263 C485.58514,206.42515 491.15294,211.7879 497.76946,212.34218 C504.38599,212.89645 512.05124,208.64225 514.88265,202.96674 C517.71406,197.29124 515.71162,190.19443 515.1586,183.22063 C514.60558,176.24682 515.50198,169.39602 519.04061,163.90177 C522.57923,158.40751 528.76008,154.26981 535.17778,152.6093 C541.59547,150.94879 548.25002,151.76547 554.89365,151.02939 C561.53728,150.29331 568.17001,148.00447 573.15948,143.63024 C578.14895,139.25601 581.49516,132.7964 582.19134,125.98094 C582.88751,119.16547 580.93364,111.99416 576.88875,107.01228 C572.84386,102.03041 566.70795,99.237969 562.11637,93.847309 z" id="UID_1_10_1_all-08" class="data contour"/>
	</g>
	<g id="scale bar" class="layer">
		<g id="scalebar lines">
			<line id="scalebar" class="scalebar" x1="30" x2="77.068114" y1="480" y2="480"/>
			<line id="scalebar left tic" class="scalebar tic" x1="30" x2="30" y1="478.5" y2="481.5"/>
			<line id="scalebar right tic" class="scalebar tic" x1="77.068114" x2="77.068114" y1="478.5" y2="481.5"/>
		</g>
		<text font-size="12" class="scalebar label" text-anchor="middle" x="53.534057" y="493.5">2.5 pixels</text>
	</g>
</svg>
