<?xml version='1.0' encoding='UTF-8'?>
<!DOCTYPE svg PUBLIC "-//W3C//DTD SVG 1.0//EN" "http://www.w3.org/TR/2001/REC-SVG-20010904/DTD/svg10.dtd ">
<svg height="480" viewBox="0 0 640 480" width="640" xmlns="http://www.w3.org/2000/svg" >
	<defs>
		<style type="text/css">
			<![CDATA[
				.data {
					fill: none;
					stroke: black;
					stroke-linecap: round;
					stroke-width: 1.5;
				}
				[id~="UID_1_10_1_all-12"] {
					fill: none;
					stroke: black;
				}
				line.axis {
					stroke: dimgrey;
					stroke-width: 0.75;
				}
				line.colorbar.tic {
					stroke: black;
					stroke-linecap: butt;
					stroke-width: 0.5;
				}
				line.scalebar {
					stroke: black;
					stroke-width: 0.75;
				}
				line.tic {
					stroke-linecap: round;
				}
				path.data.contour {
					fill: none;
					stroke-width: 2.5;
				}
				rect.colorbar {
					fill: none;
					stroke: black;
					stroke-width: 0.5;
				}
				rect.plot {
					fill: none;
					stroke: none;
				}
				text {
					font-family: Times;
				}
				text.axis {
					fill: dimgrey;
				}
				text.colorbar.label {
					fill: black;
				}
				text.label {
					font-weight: normal;
				}
				text.title {
					font-weight: bold;
				}
			]]>
		</style>
	</defs>
	<g id="contours" class="layer">
		<path d="M 535.33325 221.51707 C533.66857,211.95045 528.83232,203.2487 525.16837,194.1428 C521.50442,185.0369 519.01277,175.52684 519.05777,165.69771 C519.08028,160.78315 519.73694,155.78882 518.99672,151.02715 C518.2565,146.26548 516.11941,141.73648 513.8927,137.33822 C511.66598,132.93997 509.34966,128.67246 507.53604,124.15059 C505.72243,119.62872 504.41153,114.85248 502.21675,110.52899 C500.02196,106.2055 496.94329,102.33475 493.86171,98.531329 C490.78012,94.727908 487.69562,90.991815 484.49368,87.299606 C481.29173,83.607397 477.97235,79.959072 474.15077,76.98337 C470.3292,74.007668 466.00544,71.70459 462.07402,68.753947 C458.14261,65.803304 454.60354,62.205097 450.33723,60.067851 C446.07093,57.930605 441.07738,57.25432 436.27798,56.152889 C431.47858,55.051459 426.87333,53.524882 422.37461,51.704441 C417.8759,49.884001 413.48372,47.769697 408.97458,45.937457 C404.46545,44.105217 399.83936,42.555041 395.07884,41.517077 C390.31833,40.479113 385.4234,39.95336 380.7928,38.621127 C376.1622,37.288894 371.79593,35.150182 367.42161,32.848725 C363.0473,30.547269 358.66494,28.083069 354.03575,27.040165 C349.40656,25.997261 344.53054,26.375654 339.63229,25.962547 C334.73404,25.54944 329.81356,24.344834 324.96861,23.905596 C310.43377,22.587881 296.5788,28.158474 282.40384,31.844323 C272.95387,34.301555 263.36168,35.921124 254.34252,39.251402 C245.32335,42.581681 236.87721,47.622669 227.61347,50.627564 C218.34974,53.632458 208.26841,54.60126 200.01503,59.376604 C195.88833,61.764277 192.21863,65.103585 189.01961,68.778977 C182.62157,76.129763 178.10626,84.824889 172.57971,92.718344 C169.81643,96.665072 166.80035,100.41138 164.39402,104.70028 C161.98769,108.98918 160.19112,113.82067 160.38998,118.64093 C160.58885,123.46118 162.78314,128.2702 162.24868,132.99168 C161.71423,137.71316 158.45101,142.3471 158.60296,146.98283 C158.7549,151.61857 162.322,156.2561 162.24043,160.96661 C162.15885,165.67713 158.42859,170.46062 158.52186,174.93891 C158.61512,179.4172 162.53189,183.59029 166.65338,186.86048 C170.77487,190.13068 175.10108,192.49798 177.84002,196.07855 C180.57896,199.65913 181.73065,204.45298 182.9539,209.63761 C184.17715,214.82224 185.47196,220.39765 183.36758,224.08101 C181.26321,227.76437 175.75964,229.55568 171.44091,232.22581 C167.12217,234.89594 163.98827,238.4449 160.33868,241.52835 C156.68909,244.6118 152.52381,247.22975 149.10762,250.67098 C145.69143,254.1122 143.02432,258.3767 141.03365,262.62609 C139.04298,266.87549 137.72875,271.10978 133.78395,275.24669 C129.83915,279.3836 123.26377,283.42312 121.05694,281.90563 C118.85011,280.38814 121.01183,273.31365 122.55916,267.59963 C124.10649,261.8856 125.03943,257.53206 123.92201,253.12061 C122.80459,248.70917 119.63681,244.23982 115.19105,241.58433 C110.74529,238.92884 105.02156,238.08722 100.74307,240.45514 C96.464591,242.82306 93.631359,248.40052 93.991894,253.21336 C94.352429,258.02621 97.906731,262.07443 99.39415,266.6662 C100.88157,271.25798 100.3021,276.39331 101.51892,280.97484 C102.73574,285.55638 105.74884,289.58412 108.37543,293.72979 C111.00203,297.87545 113.24213,302.13904 116.29824,305.87313 C119.35435,309.60722 123.22647,312.81182 125.8067,316.79889 C128.38693,320.78596 129.67527,325.5555 131.43729,330.14832 C133.19932,334.74113 135.43504,339.15722 138.46323,342.85965 C141.49142,346.56208 145.31207,349.55086 148.68618,353.03311 C155.4344,359.9976 160.39646,368.93599 168.18479,374.47437 C172.07896,377.24356 176.67969,379.16275 181.012,381.42088 C185.34431,383.67902 189.4082,386.2761 192.96085,389.59333 C196.51351,392.91056 199.55494,396.94793 203.42129,399.71219 C207.28765,402.47646 211.97894,403.9676 216.55831,405.68759 C230.29642,410.84756 243.02725,418.06712 257.1741,421.48207 C261.88972,422.62038 266.76267,423.33597 271.44198,424.54197 C276.12129,425.74797 280.60695,427.4444 285.25376,428.90733 C289.90058,430.37027 294.70856,431.59972 299.52891,432.08121 C309.1696,433.04421 318.85976,431.0154 328.5498,430.49462 C333.39481,430.23422 338.2398,430.35083 343.07274,430.03403 C347.90568,429.71723 352.72658,428.96702 357.52861,428.19453 C362.33065,427.42204 367.11382,426.62727 371.95216,426.11378 C376.7905,425.6003 381.68401,425.36809 386.41767,424.33023 C391.15133,423.29237 395.72514,421.44885 400.51024,420.58622 C405.29534,419.72358 410.29172,419.84183 414.97478,418.73621 C419.65783,417.63058 424.02756,415.30109 428.54173,413.37245 C433.0559,411.44382 437.71451,409.91604 441.97108,407.6428 C446.22766,405.36956 450.08219,402.35086 454.27698,399.80767 C458.47177,397.26449 463.00681,395.19681 466.8241,392.24738 C470.64139,389.29794 473.74094,385.46674 476.92638,381.74498 C483.29728,374.30145 490.0118,367.29567 496.25581,359.80288 C499.37781,356.05649 502.38218,352.18834 504.97928,348.08198 C512.77058,335.76289 516.89642,321.29983 521.13306,307.34491 C522.54528,302.69327 523.9698,298.09809 525.69597,293.49699 C527.42215,288.89588 529.44996,284.28885 530.02795,279.4791 C530.60594,274.66936 529.7341,269.65692 530.35349,264.85809 C530.97289,260.05926 533.08352,255.47405 534.31389,250.74988 C535.54426,246.0257 535.89437,241.16256 536.0497,236.23123 C536.20503,231.29989 536.16559,226.30037 535.33325,221.51707 z" id="UID_1_10_1_all-12" class="data contour"/>
	</g>
	<g id="scale bar" class="layer">
		<g id="scalebar lines">
			<line id="scalebar" class="scalebar" x1="30" x2="77.450074" y1="480" y2="480"/>
			<line id="scalebar left tic" class="scalebar tic" x1="30" x2="30" y1="478.5" y2="481.5"/>
			<line id="scalebar right tic" class="scalebar tic" x1="77.450074" x2="77.450074" y1="478.5" y2="481.5"/>
		</g>
		<text font-size="12" class="scalebar label" text-anchor="middle" x="53.725037" y="493.5">25 pixels</text>
	</g>
</svg>
