<?xml version='1.0' encoding='UTF-8'?>
<!DOCTYPE svg PUBLIC "-//W3C//DTD SVG 1.0//EN" "http://www.w3.org/TR/2001/REC-SVG-20010904/DTD/svg10.dtd ">
<svg height="480" viewBox="0 0 640 480" width="640" xmlns="http://www.w3.org/2000/svg" >
	<defs>
		<style type="text/css">
			<![CDATA[
				.data {
					fill: none;
					stroke: black;
					stroke-linecap: round;
					stroke-width: 1.5;
				}
				[class~="density"][id="hemCentroid"] {
					fill: none;
					stroke: rgb(67, 0, 246);
				}
				[class~="legend"][id="hemCentroid"] {
					fill: none;
					stroke: rgb(67, 0, 246);
				}
				line.axis {
					stroke: dimgrey;
					stroke-width: 0.75;
				}
				line.colorbar.tic {
					stroke: black;
					stroke-linecap: butt;
					stroke-width: 0.5;
				}
				line.scalebar {
					stroke: black;
					stroke-width: 0.75;
				}
				line.tic {
					stroke-linecap: round;
				}
				rect.colorbar {
					fill: none;
					stroke: black;
					stroke-width: 0.5;
				}
				rect.plot {
					fill: none;
					stroke: none;
				}
				text {
					font-family: Times;
				}
				text.axis {
					fill: dimgrey;
				}
				text.colorbar.label {
					fill: black;
				}
				text.label {
					font-weight: normal;
				}
				text.title {
					font-weight: bold;
				}
			]]>
		</style>
	</defs>
	<g id="axes" class="layer">
		<g id="x-axis">
			<line id="x-axis" class="axis" x1="24" x2="606" y1="432" y2="432"/>
			<g id="x-axis tics">
				<line id="tic at 180" class="axis tic" x1="45.10978" x2="45.10978" y1="429" y2="435"/>
				<line id="tic at 200" class="axis tic" x1="129.34583" x2="129.34583" y1="429" y2="435"/>
				<line id="tic at 220" class="axis tic" x1="213.58188" x2="213.58188" y1="429" y2="435"/>
				<line id="tic at 240" class="axis tic" x1="297.81793" x2="297.81793" y1="429" y2="435"/>
				<line id="tic at 260" class="axis tic" x1="382.05398" x2="382.05398" y1="429" y2="435"/>
				<line id="tic at 280" class="axis tic" x1="466.29002" x2="466.29002" y1="429" y2="435"/>
				<line id="tic at 300" class="axis tic" x1="550.52607" x2="550.52607" y1="429" y2="435"/>
			</g>
			<g id="x-axis small tics">
				<line id="small tic at 190" class="axis tic small" x1="87.227804" x2="87.227804" y1="430.5" y2="433.5"/>
				<line id="small tic at 210" class="axis tic small" x1="171.46385" x2="171.46385" y1="430.5" y2="433.5"/>
				<line id="small tic at 230" class="axis tic small" x1="255.6999" x2="255.6999" y1="430.5" y2="433.5"/>
				<line id="small tic at 250" class="axis tic small" x1="339.93595" x2="339.93595" y1="430.5" y2="433.5"/>
				<line id="small tic at 270" class="axis tic small" x1="424.172" x2="424.172" y1="430.5" y2="433.5"/>
				<line id="small tic at 290" class="axis tic small" x1="508.40805" x2="508.40805" y1="430.5" y2="433.5"/>
				<line id="small tic at 310" class="axis tic small" x1="592.6441" x2="592.6441" y1="430.5" y2="433.5"/>
			</g>
		</g>
		<g id="x-axis labels">
			<text font-size="12" class="axis label" text-anchor="middle" x="45.10978" y="450">180</text>
			<text font-size="12" class="axis label" text-anchor="middle" x="129.34583" y="450">200</text>
			<text font-size="12" class="axis label" text-anchor="middle" x="213.58188" y="450">220</text>
			<text font-size="12" class="axis label" text-anchor="middle" x="297.81793" y="450">240</text>
			<text font-size="12" class="axis label" text-anchor="middle" x="382.05398" y="450">260</text>
			<text font-size="12" class="axis label" text-anchor="middle" x="466.29002" y="450">280</text>
			<text font-size="12" class="axis label" text-anchor="middle" x="550.52607" y="450">300</text>
		</g>
		<g id="y-axis">
			<line id="y-axis" class="axis" x1="24" x2="24" y1="432" y2="24"/>
			<g id="y-axis tics">
				<line id="tic at 0.02" class="axis tic" x1="27" x2="21" y1="376.66919" y2="376.66919"/>
				<line id="tic at 0.04" class="axis tic" x1="27" x2="21" y1="321.33838" y2="321.33838"/>
				<line id="tic at 0.06" class="axis tic" x1="27" x2="21" y1="266.00757" y2="266.00757"/>
				<line id="tic at 0.08" class="axis tic" x1="27" x2="21" y1="210.67677" y2="210.67677"/>
				<line id="tic at 0.1" class="axis tic" x1="27" x2="21" y1="155.34596" y2="155.34596"/>
				<line id="tic at 0.12" class="axis tic" x1="27" x2="21" y1="100.01515" y2="100.01515"/>
				<line id="tic at 0.14" class="axis tic" x1="27" x2="21" y1="44.68434" y2="44.68434"/>
			</g>
			<g id="y-axis small tics">
				<line id="small tic at 0.01" class="axis tic small" x1="25.5" x2="22.5" y1="404.3346" y2="404.3346"/>
				<line id="small tic at 0.01" class="axis tic small" x1="25.5" x2="22.5" y1="404.3346" y2="404.3346"/>
				<line id="small tic at 0.03" class="axis tic small" x1="25.5" x2="22.5" y1="349.00379" y2="349.00379"/>
				<line id="small tic at 0.05" class="axis tic small" x1="25.5" x2="22.5" y1="293.67298" y2="293.67298"/>
				<line id="small tic at 0.07" class="axis tic small" x1="25.5" x2="22.5" y1="238.34217" y2="238.34217"/>
				<line id="small tic at 0.09" class="axis tic small" x1="25.5" x2="22.5" y1="183.01136" y2="183.01136"/>
				<line id="small tic at 0.11" class="axis tic small" x1="25.5" x2="22.5" y1="127.68055" y2="127.68055"/>
				<line id="small tic at 0.13" class="axis tic small" x1="25.5" x2="22.5" y1="72.349744" y2="72.349744"/>
			</g>
		</g>
		<g id="y-axis labels">
			<text font-size="12" class="axis label" text-anchor="end" x="18" y="381.16919">0.02</text>
			<text font-size="12" class="axis label" text-anchor="end" x="18" y="325.83838">0.04</text>
			<text font-size="12" class="axis label" text-anchor="end" x="18" y="270.50757">0.06</text>
			<text font-size="12" class="axis label" text-anchor="end" x="18" y="215.17677">0.08</text>
			<text font-size="12" class="axis label" text-anchor="end" x="18" y="159.84596">0.1</text>
			<text font-size="12" class="axis label" text-anchor="end" x="18" y="104.51515">0.12</text>
			<text font-size="12" class="axis label" text-anchor="end" x="18" y="49.18434">0.14</text>
		</g>
	</g>
	<g id="hemCentroid" class="layer">
		<path d="M 50.454545 431.38683 C54.017447,431.39236 57.580349,431.67891 61.143251,431.82765 C62.924702,431.90202 64.706152,431.94194 66.487603,431.96473 C68.269054,431.98751 70.050505,431.99316 71.831956,431.99617 C73.613407,431.99919 75.394858,431.99958 77.176309,431.99978 C78.957759,431.99998 80.73921,431.99999 82.520661,431.99999 C84.302112,432 86.083563,432 87.865014,432 C89.646465,432 91.427916,432 93.209366,432 C94.990817,432 96.772268,432 98.553719,432 C100.33517,432 102.11662,432 103.89807,431.99996 C105.67952,431.99992 107.46097,431.99985 109.24242,431.99894 C111.02388,431.99802 112.80533,431.99626 114.58678,431.98507 C116.36823,431.97388 118.14968,431.95325 119.93113,431.88429 C121.71258,431.81533 123.49403,431.69804 125.27548,431.49439 C127.05693,431.29074 128.83838,431.00073 130.61983,430.69747 C132.40129,430.39421 134.18274,430.07771 135.96419,429.78114 C137.74564,429.48457 139.52709,429.20793 141.30854,428.82051 C143.08999,428.43308 144.87144,427.93486 146.65289,427.357 C148.43434,426.77913 150.21579,426.12163 151.99725,425.63382 C153.7787,425.14601 155.56015,424.82789 157.3416,424.78245 C159.12305,424.73701 160.9045,424.96425 162.68595,425.08349 C164.4674,425.20273 166.24885,425.21397 168.0303,424.87875 C169.81175,424.54353 171.5932,423.86185 173.37466,423.21928 C175.15611,422.5767 176.93756,421.97324 178.71901,421.67 C180.50046,421.36677 182.28191,421.36378 184.06336,421.24691 C185.84481,421.13005 187.62626,420.89932 189.40771,420.18151 C191.18916,419.4637 192.97062,418.25882 194.75207,416.82363 C196.53352,415.38845 198.31497,413.72296 200.09642,412.02012 C201.87787,410.31728 203.65932,408.57708 205.44077,405.97449 C207.22222,403.3719 209.00367,399.90692 210.78512,393.2335 C212.56657,386.56008 214.34803,376.67823 216.12948,358.34957 C217.91093,340.02092 219.69238,313.24546 221.47383,274.8848 C223.25528,236.52413 225.03673,186.57826 226.81818,138.74049 C228.59963,90.902721 230.38108,45.17305 232.16253,24 C233.94399,2.8269496 235.72544,6.2105192 237.50689,31.604185 C239.28834,56.997851 241.06979,104.40161 242.85124,151.59603 C244.63269,198.79044 246.41414,245.77551 248.19559,282.14065 C249.97704,318.50579 251.75849,344.25101 253.53994,362.32504 C255.3214,380.39907 257.10285,390.80192 258.8843,397.75689 C260.66575,404.71187 262.4472,408.21897 264.22865,410.63063 C266.0101,413.0423 267.79155,414.35853 269.573,415.58055 C271.35445,416.80257 273.1359,417.93038 274.91736,419.03159 C276.69881,420.1328 278.48026,421.20741 280.26171,421.92791 C282.04316,422.64841 283.82461,423.01481 285.60606,423.18663 C287.38751,423.35844 289.16896,423.33567 290.95041,423.51572 C292.73186,423.69578 294.51331,424.07865 296.29477,424.53219 C298.07622,424.98573 299.85767,425.50992 301.63912,425.87248 C303.42057,426.23503 305.20202,426.43595 306.98347,426.61851 C308.76492,426.80107 310.54637,426.96528 312.32782,427.23439 C314.10927,427.5035 315.89073,427.87752 317.67218,428.19657 C319.45363,428.51563 321.23508,428.77973 323.01653,428.88842 C324.79798,428.99712 326.57943,428.9504 328.36088,428.90048 C330.14233,428.85056 331.92378,428.79743 333.70523,428.87987 C335.48669,428.9623 337.26814,429.18029 339.04959,429.45272 C340.83104,429.72515 342.61249,430.05202 344.39394,430.32714 C346.17539,430.60226 347.95684,430.82562 349.73829,431.02187 C351.51974,431.21812 353.30119,431.38725 355.08264,431.52693 C356.8641,431.6666 358.64555,431.7768 360.427,431.84535 C362.20845,431.9139 363.9899,431.9408 365.77135,431.93533 C367.5528,431.92985 369.33425,431.892 371.1157,431.81838 C372.89715,431.74476 374.6786,431.63537 376.46006,431.54502 C378.24151,431.45466 380.02296,431.38334 381.80441,431.38696 C383.58586,431.39058 385.36731,431.46914 387.14876,431.56106 C388.93021,431.65298 390.71166,431.75827 392.49311,431.82199 C394.27456,431.8857 396.05601,431.90785 397.83747,431.8846 C399.61892,431.86135 401.40037,431.7927 403.18182,431.70117 C404.96327,431.60964 406.74472,431.49524 408.52617,431.43659 C410.30762,431.37795 412.08907,431.37507 413.87052,431.43042 C415.65197,431.48577 417.43343,431.59935 419.21488,431.69338 C420.99633,431.78742 422.77778,431.86191 424.55923,431.89782 C426.34068,431.93372 428.12213,431.93104 429.90358,431.88947 C431.68503,431.84791 433.46648,431.76746 435.24793,431.67198 C437.02938,431.5765 438.81084,431.46599 440.59229,431.41829 C442.37374,431.37059 444.15519,431.38571 445.93664,431.45142 C447.71809,431.51713 449.49954,431.63343 451.28099,431.7257 C453.06244,431.81798 454.84389,431.88623 456.62534,431.92729 C458.4068,431.96835 460.18825,431.98222 461.9697,431.98978 C463.75115,431.99734 465.5326,431.99859 467.31405,431.99924 C469.0955,431.99989 470.87695,431.99994 472.6584,431.99997 C474.43985,432 476.2213,432 478.00275,432 C479.78421,432 481.56566,432 483.34711,432 C485.12856,432 486.91001,432 488.69146,432 C490.47291,432 492.25436,432 494.03581,432 C495.81726,432 497.59871,432 499.38017,432 C501.16162,432 502.94307,432 504.72452,432 C506.50597,432 508.28742,432 510.06887,432 C511.85032,432 513.63177,432 515.41322,431.99999 C517.19467,431.99999 518.97612,431.99999 520.75758,431.99981 C522.53903,431.99963 524.32048,431.99927 526.10193,431.99656 C527.88338,431.99384 529.66483,431.98876 531.44628,431.96741 C533.22773,431.94606 535.00918,431.90845 536.79063,431.83654 C538.57208,431.76463 540.35354,431.65842 542.13499,431.56532 C543.91644,431.47222 545.69789,431.39224 547.47934,431.38716 C549.26079,431.38208 551.04224,431.45191 552.82369,431.54171 C554.60514,431.63151 556.38659,431.74128 558.16804,431.81465 C559.94949,431.88802 561.73095,431.925 563.5124,431.92659 C565.29385,431.92818 567.0753,431.8944 568.85675,431.8234 C572.41965,431.68142 575.98255,431.3906 579.54545,431.38683" id="hemCentroid" class="data density"/>
	</g>
	<g id="axis titles" class="layer">
		<text font-size="12" class="axis title" text-anchor="middle" x="606" y="426">x-centroid</text>
	</g>
	<g id="legend" class="layer">
		<g id="hemCentroid row">
			<line id="hemCentroid" class="data legend" x1="550" x2="600" y1="19" y2="19"/>
			<text font-size="12" class="legend label" text-anchor="start" x="603" y="22">hemCentroid</text>
		</g>
	</g>
</svg>
