<?xml version='1.0' encoding='UTF-8'?>
<!DOCTYPE svg PUBLIC "-//W3C//DTD SVG 1.0//EN" "http://www.w3.org/TR/2001/REC-SVG-20010904/DTD/svg10.dtd ">
<svg height="480" viewBox="0 0 640 480" width="640" xmlns="http://www.w3.org/2000/svg" >
	<defs>
		<style type="text/css">
			<![CDATA[
				.data {
					fill: none;
					stroke: black;
					stroke-linecap: round;
					stroke-width: 1.5;
				}
				[class~="density"][id="hemAspectRatio"] {
					fill: none;
					stroke: rgb(67, 0, 246);
				}
				[class~="legend"][id="hemAspectRatio"] {
					fill: none;
					stroke: rgb(67, 0, 246);
				}
				line.axis {
					stroke: dimgrey;
					stroke-width: 0.75;
				}
				line.colorbar.tic {
					stroke: black;
					stroke-linecap: butt;
					stroke-width: 0.5;
				}
				line.scalebar {
					stroke: black;
					stroke-width: 0.75;
				}
				line.tic {
					stroke-linecap: round;
				}
				rect.colorbar {
					fill: none;
					stroke: black;
					stroke-width: 0.5;
				}
				rect.plot {
					fill: none;
					stroke: none;
				}
				text {
					font-family: Times;
				}
				text.axis {
					fill: dimgrey;
				}
				text.colorbar.label {
					fill: black;
				}
				text.label {
					font-weight: normal;
				}
				text.title {
					font-weight: bold;
				}
			]]>
		</style>
	</defs>
	<g id="axes" class="layer">
		<g id="x-axis">
			<line id="x-axis" class="axis" x1="24" x2="606" y1="432" y2="432"/>
			<g id="x-axis tics">
				<line id="tic at 0.5" class="axis tic" x1="46.816068" x2="46.816068" y1="429" y2="435"/>
				<line id="tic at 0.75" class="axis tic" x1="111.59442" x2="111.59442" y1="429" y2="435"/>
				<line id="tic at 1" class="axis tic" x1="176.37277" x2="176.37277" y1="429" y2="435"/>
				<line id="tic at 1.25" class="axis tic" x1="241.15113" x2="241.15113" y1="429" y2="435"/>
				<line id="tic at 1.5" class="axis tic" x1="305.92948" x2="305.92948" y1="429" y2="435"/>
				<line id="tic at 1.75" class="axis tic" x1="370.70783" x2="370.70783" y1="429" y2="435"/>
				<line id="tic at 2" class="axis tic" x1="435.48618" x2="435.48618" y1="429" y2="435"/>
				<line id="tic at 2.25" class="axis tic" x1="500.26454" x2="500.26454" y1="429" y2="435"/>
				<line id="tic at 2.5" class="axis tic" x1="565.04289" x2="565.04289" y1="429" y2="435"/>
			</g>
			<g id="x-axis small tics">
				<line id="small tic at 0.625" class="axis tic small" x1="79.205245" x2="79.205245" y1="430.5" y2="433.5"/>
				<line id="small tic at 0.875" class="axis tic small" x1="143.9836" x2="143.9836" y1="430.5" y2="433.5"/>
				<line id="small tic at 1.125" class="axis tic small" x1="208.76195" x2="208.76195" y1="430.5" y2="433.5"/>
				<line id="small tic at 1.375" class="axis tic small" x1="273.5403" x2="273.5403" y1="430.5" y2="433.5"/>
				<line id="small tic at 1.625" class="axis tic small" x1="338.31866" x2="338.31866" y1="430.5" y2="433.5"/>
				<line id="small tic at 1.875" class="axis tic small" x1="403.09701" x2="403.09701" y1="430.5" y2="433.5"/>
				<line id="small tic at 2.125" class="axis tic small" x1="467.87536" x2="467.87536" y1="430.5" y2="433.5"/>
				<line id="small tic at 2.375" class="axis tic small" x1="532.65371" x2="532.65371" y1="430.5" y2="433.5"/>
				<line id="small tic at 2.625" class="axis tic small" x1="597.43207" x2="597.43207" y1="430.5" y2="433.5"/>
			</g>
		</g>
		<g id="x-axis labels">
			<text font-size="12" class="axis label" text-anchor="middle" x="46.816068" y="450">0.5</text>
			<text font-size="12" class="axis label" text-anchor="middle" x="111.59442" y="450">0.75</text>
			<text font-size="12" class="axis label" text-anchor="middle" x="176.37277" y="450">1</text>
			<text font-size="12" class="axis label" text-anchor="middle" x="241.15113" y="450">1.25</text>
			<text font-size="12" class="axis label" text-anchor="middle" x="305.92948" y="450">1.5</text>
			<text font-size="12" class="axis label" text-anchor="middle" x="370.70783" y="450">1.75</text>
			<text font-size="12" class="axis label" text-anchor="middle" x="435.48618" y="450">2</text>
			<text font-size="12" class="axis label" text-anchor="middle" x="500.26454" y="450">2.25</text>
			<text font-size="12" class="axis label" text-anchor="middle" x="565.04289" y="450">2.5</text>
		</g>
		<g id="y-axis">
			<line id="y-axis" class="axis" x1="24" x2="24" y1="432" y2="24"/>
			<g id="y-axis tics">
				<line id="tic at 0.5" class="axis tic" x1="27" x2="21" y1="378.6165" y2="378.6165"/>
				<line id="tic at 1" class="axis tic" x1="27" x2="21" y1="325.23299" y2="325.23299"/>
				<line id="tic at 1.5" class="axis tic" x1="27" x2="21" y1="271.84949" y2="271.84949"/>
				<line id="tic at 2" class="axis tic" x1="27" x2="21" y1="218.46598" y2="218.46598"/>
				<line id="tic at 2.5" class="axis tic" x1="27" x2="21" y1="165.08248" y2="165.08248"/>
				<line id="tic at 3" class="axis tic" x1="27" x2="21" y1="111.69897" y2="111.69897"/>
				<line id="tic at 3.5" class="axis tic" x1="27" x2="21" y1="58.315468" y2="58.315468"/>
			</g>
			<g id="y-axis small tics">
				<line id="small tic at 0.25" class="axis tic small" x1="25.5" x2="22.5" y1="405.30825" y2="405.30825"/>
				<line id="small tic at 0.25" class="axis tic small" x1="25.5" x2="22.5" y1="405.30825" y2="405.30825"/>
				<line id="small tic at 0.75" class="axis tic small" x1="25.5" x2="22.5" y1="351.92474" y2="351.92474"/>
				<line id="small tic at 1.25" class="axis tic small" x1="25.5" x2="22.5" y1="298.54124" y2="298.54124"/>
				<line id="small tic at 1.75" class="axis tic small" x1="25.5" x2="22.5" y1="245.15773" y2="245.15773"/>
				<line id="small tic at 2.25" class="axis tic small" x1="25.5" x2="22.5" y1="191.77423" y2="191.77423"/>
				<line id="small tic at 2.75" class="axis tic small" x1="25.5" x2="22.5" y1="138.39073" y2="138.39073"/>
				<line id="small tic at 3.25" class="axis tic small" x1="25.5" x2="22.5" y1="85.007221" y2="85.007221"/>
				<line id="small tic at 3.75" class="axis tic small" x1="25.5" x2="22.5" y1="31.623716" y2="31.623716"/>
			</g>
		</g>
		<g id="y-axis labels">
			<text font-size="12" class="axis label" text-anchor="end" x="18" y="383.1165">0.5</text>
			<text font-size="12" class="axis label" text-anchor="end" x="18" y="329.73299">1</text>
			<text font-size="12" class="axis label" text-anchor="end" x="18" y="276.34949">1.5</text>
			<text font-size="12" class="axis label" text-anchor="end" x="18" y="222.96598">2</text>
			<text font-size="12" class="axis label" text-anchor="end" x="18" y="169.58248">2.5</text>
			<text font-size="12" class="axis label" text-anchor="end" x="18" y="116.19897">3</text>
			<text font-size="12" class="axis label" text-anchor="end" x="18" y="62.815468">3.5</text>
		</g>
	</g>
	<g id="hemAspectRatio" class="layer">
		<path d="M 50.454544 431.04024 C54.017446,431.02933 57.580348,431.24521 61.143249,431.44694 C62.9247,431.5478 64.706151,431.64513 66.487602,431.72079 C68.269053,431.79645 70.050504,431.85044 71.831955,431.88321 C73.613406,431.91598 75.394856,431.92752 77.176307,431.91584 C78.957758,431.90416 80.739209,431.86924 82.52066,431.79364 C84.302111,431.71804 86.083562,431.60175 87.865013,431.42152 C89.646463,431.2413 91.427914,430.99714 93.209365,430.69351 C94.990816,430.38989 96.772267,430.02679 98.553718,429.65737 C100.33517,429.28796 102.11662,428.91223 103.89807,428.59593 C105.67952,428.27964 107.46097,428.02278 109.24242,427.8421 C111.02387,427.66141 112.80532,427.55689 114.58678,427.48498 C116.36823,427.41307 118.14968,427.37377 119.93113,427.30168 C121.71258,427.2296 123.49403,427.12472 125.27548,426.93973 C127.05693,426.75475 128.83838,426.48965 130.61983,426.12981 C132.40128,425.76997 134.18274,425.31539 135.96419,424.74103 C137.74564,424.16667 139.52709,423.47254 141.30854,422.55552 C143.08999,421.63851 144.87144,420.4986 146.65289,418.96944 C148.43434,417.44027 150.21579,415.52184 151.99724,412.99372 C153.7787,410.4656 155.56015,407.32779 157.3416,403.07305 C159.12305,398.8183 160.9045,393.44662 162.68595,385.89598 C164.4674,378.34534 166.24885,368.61574 168.0303,355.48741 C169.81175,342.35908 171.5932,325.83203 173.37465,305.75073 C175.15611,285.66943 176.93756,262.03388 178.71901,236.68624 C180.50046,211.3386 182.28191,184.27886 184.06336,158.6926 C185.84481,133.10634 187.62626,108.99357 189.40771,89.014439 C191.18916,69.035309 192.97061,53.189828 194.75207,42.332406 C196.53352,31.474984 198.31497,25.605622 200.09642,24 C201.87787,22.394378 203.65932,25.052495 205.44077,30.589989 C207.22222,36.127484 209.00367,44.544355 210.78512,54.451414 C212.56657,64.358473 214.34803,75.755719 216.12948,87.614869 C217.91093,99.474019 219.69238,111.79507 221.47383,124.11804 C223.25528,136.441 225.03673,148.76588 226.81818,160.98784 C228.59963,173.20981 230.38108,185.32887 232.16253,197.16247 C233.94398,208.99607 235.72544,220.54421 237.50689,231.60988 C239.28834,242.67554 241.06979,253.25873 242.85124,263.43146 C244.63269,273.60419 246.41414,283.36647 248.19559,292.74021 C249.97704,302.11395 251.75849,311.09915 253.53994,319.31812 C255.3214,327.53709 257.10285,334.98982 258.8843,341.36509 C260.66575,347.74037 262.4472,353.0382 264.22865,357.51374 C266.0101,361.98928 267.79155,365.64254 269.573,368.97127 C271.35445,372.3 273.1359,375.3042 274.91736,378.18093 C276.69881,381.05766 278.48026,383.80692 280.26171,386.31763 C282.04316,388.82835 283.82461,391.10051 285.60606,393.06058 C287.38751,395.02065 289.16896,396.66864 290.95041,398.1411 C292.73186,399.61355 294.51331,400.91048 296.29477,402.22138 C298.07622,403.53229 299.85767,404.85718 301.63912,406.22512 C303.42057,407.59306 305.20202,409.00406 306.98347,410.3457 C308.76492,411.68734 310.54637,412.95964 312.32782,414.08204 C314.10927,415.20444 315.89073,416.17695 317.67218,417.0208 C319.45363,417.86464 321.23508,418.57981 323.01653,419.23422 C324.79798,419.88863 326.57943,420.48228 328.36088,421.07656 C330.14233,421.67084 331.92378,422.26576 333.70523,422.88051 C335.48669,423.49525 337.26814,424.12982 339.04959,424.74247 C340.83104,425.35512 342.61249,425.94585 344.39394,426.44915 C346.17539,426.95244 347.95684,427.3683 349.73829,427.66478 C351.51974,427.96125 353.30119,428.13834 355.08264,428.20968 C356.8641,428.28102 358.64555,428.24661 360.427,428.14585 C362.20845,428.04509 363.9899,427.87797 365.77135,427.70254 C367.5528,427.5271 369.33425,427.34335 371.1157,427.21672 C372.89715,427.09008 374.6786,427.02056 376.46006,427.03544 C378.24151,427.05031 380.02296,427.14959 381.80441,427.29436 C383.58586,427.43913 385.36731,427.62939 387.14876,427.80557 C388.93021,427.98175 390.71166,428.14385 392.49311,428.26711 C394.27456,428.39037 396.05602,428.4748 397.83747,428.52149 C399.61892,428.56818 401.40037,428.57715 403.18182,428.55075 C404.96327,428.52435 406.74472,428.46259 408.52617,428.37749 C410.30762,428.29239 412.08907,428.18395 413.87052,428.0785 C415.65197,427.97306 417.43343,427.87061 419.21488,427.79165 C420.99633,427.7127 422.77778,427.65724 424.55923,427.6219 C426.34068,427.58655 428.12213,427.57132 429.90358,427.56418 C431.68503,427.55704 433.46648,427.55798 435.24793,427.58181 C437.02939,427.60564 438.81084,427.65235 440.59229,427.7574 C442.37374,427.86246 444.15519,428.02585 445.93664,428.25454 C447.71809,428.48323 449.49954,428.77722 451.28099,429.09745 C453.06244,429.41769 454.84389,429.76419 456.62535,430.08569 C458.4068,430.4072 460.18825,430.70372 461.9697,430.94789 C463.75115,431.19206 465.5326,431.38389 467.31405,431.52699 C469.0955,431.67009 470.87695,431.76447 472.6584,431.82916 C474.43985,431.89386 476.2213,431.92888 478.00276,431.95123 C479.78421,431.97359 481.56566,431.98329 483.34711,431.98914 C485.12856,431.99499 486.91001,431.99698 488.69146,431.99813 C490.47291,431.99928 492.25436,431.99958 494.03581,431.99975 C495.81726,431.99992 497.59872,431.99996 499.38017,431.99998 C501.16162,431.99999 502.94307,432 504.72452,432 C506.50597,432 508.28742,432 510.06887,432 C511.85032,432 513.63177,432 515.41322,432 C517.19468,432 518.97613,432 520.75758,432 C522.53903,432 524.32048,432 526.10193,432 C527.88338,432 529.66483,432 531.44628,431.99999 C533.22773,431.99998 535.00918,431.99996 536.79063,431.99986 C538.57209,431.99976 540.35354,431.99958 542.13499,431.99888 C543.91644,431.99818 545.69789,431.99696 547.47934,431.9933 C549.26079,431.98964 551.04224,431.98353 552.82369,431.96946 C554.60514,431.95538 556.38659,431.93334 558.16805,431.89434 C559.9495,431.85533 561.73095,431.79936 563.5124,431.72257 C565.29385,431.64578 567.0753,431.54818 568.85675,431.44715 C572.41965,431.24511 575.98255,431.02941 579.54546,431.04024" id="hemAspectRatio" class="data density"/>
	</g>
	<g id="axis titles" class="layer">
		<text font-size="12" class="axis title" text-anchor="middle" x="606" y="426">Aspect Ratio</text>
	</g>
	<g id="legend" class="layer">
		<g id="hemAspectRatio row">
			<line id="hemAspectRatio" class="data legend" x1="550" x2="600" y1="19" y2="19"/>
			<text font-size="12" class="legend label" text-anchor="start" x="603" y="22">hemAspectRatio</text>
		</g>
	</g>
</svg>
