<?xml version='1.0' encoding='UTF-8'?>
<!DOCTYPE svg PUBLIC "-//W3C//DTD SVG 1.0//EN" "http://www.w3.org/TR/2001/REC-SVG-20010904/DTD/svg10.dtd ">
<svg height="480" viewBox="0 0 640 480" width="640" xmlns="http://www.w3.org/2000/svg" >
	<defs>
		<style type="text/css">
			<![CDATA[
				.data {
					fill: none;
					stroke: black;
					stroke-linecap: round;
					stroke-width: 1.5;
				}
				[class~="density"][id="hemAreas"] {
					fill: none;
					stroke: rgb(67, 0, 246);
				}
				[class~="legend"][id="hemAreas"] {
					fill: none;
					stroke: rgb(67, 0, 246);
				}
				line.axis {
					stroke: dimgrey;
					stroke-width: 0.75;
				}
				line.colorbar.tic {
					stroke: black;
					stroke-linecap: butt;
					stroke-width: 0.5;
				}
				line.scalebar {
					stroke: black;
					stroke-width: 0.75;
				}
				line.tic {
					stroke-linecap: round;
				}
				rect.colorbar {
					fill: none;
					stroke: black;
					stroke-width: 0.5;
				}
				rect.plot {
					fill: none;
					stroke: none;
				}
				text {
					font-family: Times;
				}
				text.axis {
					fill: dimgrey;
				}
				text.colorbar.label {
					fill: black;
				}
				text.label {
					font-weight: normal;
				}
				text.title {
					font-weight: bold;
				}
			]]>
		</style>
	</defs>
	<g id="axes" class="layer">
		<g id="x-axis">
			<line id="x-axis" class="axis" x1="24" x2="606" y1="432" y2="432"/>
			<g id="x-axis tics">
				<line id="tic at 0" class="axis tic" x1="42.493624" x2="42.493624" y1="429" y2="435"/>
				<line id="tic at 5000" class="axis tic" x1="96.536686" x2="96.536686" y1="429" y2="435"/>
				<line id="tic at 10000" class="axis tic" x1="150.57975" x2="150.57975" y1="429" y2="435"/>
				<line id="tic at 15000" class="axis tic" x1="204.62281" x2="204.62281" y1="429" y2="435"/>
				<line id="tic at 20000" class="axis tic" x1="258.66587" x2="258.66587" y1="429" y2="435"/>
				<line id="tic at 25000" class="axis tic" x1="312.70893" x2="312.70893" y1="429" y2="435"/>
				<line id="tic at 30000" class="axis tic" x1="366.752" x2="366.752" y1="429" y2="435"/>
				<line id="tic at 35000" class="axis tic" x1="420.79506" x2="420.79506" y1="429" y2="435"/>
				<line id="tic at 40000" class="axis tic" x1="474.83812" x2="474.83812" y1="429" y2="435"/>
				<line id="tic at 45000" class="axis tic" x1="528.88118" x2="528.88118" y1="429" y2="435"/>
				<line id="tic at 50000" class="axis tic" x1="582.92424" x2="582.92424" y1="429" y2="435"/>
			</g>
			<g id="x-axis small tics">
				<line id="small tic at 2500" class="axis tic small" x1="69.515155" x2="69.515155" y1="430.5" y2="433.5"/>
				<line id="small tic at 7500" class="axis tic small" x1="123.55822" x2="123.55822" y1="430.5" y2="433.5"/>
				<line id="small tic at 12500" class="axis tic small" x1="177.60128" x2="177.60128" y1="430.5" y2="433.5"/>
				<line id="small tic at 17500" class="axis tic small" x1="231.64434" x2="231.64434" y1="430.5" y2="433.5"/>
				<line id="small tic at 22500" class="axis tic small" x1="285.6874" x2="285.6874" y1="430.5" y2="433.5"/>
				<line id="small tic at 27500" class="axis tic small" x1="339.73047" x2="339.73047" y1="430.5" y2="433.5"/>
				<line id="small tic at 32500" class="axis tic small" x1="393.77353" x2="393.77353" y1="430.5" y2="433.5"/>
				<line id="small tic at 37500" class="axis tic small" x1="447.81659" x2="447.81659" y1="430.5" y2="433.5"/>
				<line id="small tic at 42500" class="axis tic small" x1="501.85965" x2="501.85965" y1="430.5" y2="433.5"/>
				<line id="small tic at 47500" class="axis tic small" x1="555.90271" x2="555.90271" y1="430.5" y2="433.5"/>
			</g>
		</g>
		<g id="x-axis labels">
			<text font-size="12" class="axis label" text-anchor="middle" x="42.493624" y="450">0</text>
			<text font-size="12" class="axis label" text-anchor="middle" x="96.536686" y="450">5000</text>
			<text font-size="12" class="axis label" text-anchor="middle" x="150.57975" y="450">10000</text>
			<text font-size="12" class="axis label" text-anchor="middle" x="204.62281" y="450">15000</text>
			<text font-size="12" class="axis label" text-anchor="middle" x="258.66587" y="450">20000</text>
			<text font-size="12" class="axis label" text-anchor="middle" x="312.70893" y="450">25000</text>
			<text font-size="12" class="axis label" text-anchor="middle" x="366.752" y="450">30000</text>
			<text font-size="12" class="axis label" text-anchor="middle" x="420.79506" y="450">35000</text>
			<text font-size="12" class="axis label" text-anchor="middle" x="474.83812" y="450">40000</text>
			<text font-size="12" class="axis label" text-anchor="middle" x="528.88118" y="450">45000</text>
			<text font-size="12" class="axis label" text-anchor="middle" x="582.92424" y="450">50000</text>
		</g>
		<g id="y-axis">
			<line id="y-axis" class="axis" x1="42.493624" x2="42.493624" y1="432" y2="24"/>
			<g id="y-axis tics">
				<line id="tic at 1e-05" class="axis tic" x1="45.493624" x2="39.493624" y1="370.30546" y2="370.30546"/>
				<line id="tic at 2e-05" class="axis tic" x1="45.493624" x2="39.493624" y1="308.61093" y2="308.61093"/>
				<line id="tic at 3e-05" class="axis tic" x1="45.493624" x2="39.493624" y1="246.91639" y2="246.91639"/>
				<line id="tic at 4e-05" class="axis tic" x1="45.493624" x2="39.493624" y1="185.22186" y2="185.22186"/>
				<line id="tic at 5e-05" class="axis tic" x1="45.493624" x2="39.493624" y1="123.52732" y2="123.52732"/>
				<line id="tic at 6e-05" class="axis tic" x1="45.493624" x2="39.493624" y1="61.832785" y2="61.832785"/>
			</g>
			<g id="y-axis small tics">
				<line id="small tic at 5e-06" class="axis tic small" x1="43.993624" x2="40.993624" y1="401.15273" y2="401.15273"/>
				<line id="small tic at 5e-06" class="axis tic small" x1="43.993624" x2="40.993624" y1="401.15273" y2="401.15273"/>
				<line id="small tic at 1.5e-05" class="axis tic small" x1="43.993624" x2="40.993624" y1="339.4582" y2="339.4582"/>
				<line id="small tic at 2.5e-05" class="axis tic small" x1="43.993624" x2="40.993624" y1="277.76366" y2="277.76366"/>
				<line id="small tic at 3.5e-05" class="axis tic small" x1="43.993624" x2="40.993624" y1="216.06912" y2="216.06912"/>
				<line id="small tic at 4.5e-05" class="axis tic small" x1="43.993624" x2="40.993624" y1="154.37459" y2="154.37459"/>
				<line id="small tic at 5.5e-05" class="axis tic small" x1="43.993624" x2="40.993624" y1="92.680053" y2="92.680053"/>
				<line id="small tic at 6.5e-05" class="axis tic small" x1="43.993624" x2="40.993624" y1="30.985517" y2="30.985517"/>
			</g>
		</g>
		<g id="y-axis labels">
			<text font-size="12" class="axis label" text-anchor="end" x="36.493624" y="374.80546">1e-05</text>
			<text font-size="12" class="axis label" text-anchor="end" x="36.493624" y="313.11093">2e-05</text>
			<text font-size="12" class="axis label" text-anchor="end" x="36.493624" y="251.41639">3e-05</text>
			<text font-size="12" class="axis label" text-anchor="end" x="36.493624" y="189.72186">4e-05</text>
			<text font-size="12" class="axis label" text-anchor="end" x="36.493624" y="128.02732">5e-05</text>
			<text font-size="12" class="axis label" text-anchor="end" x="36.493624" y="66.332785">6e-05</text>
		</g>
	</g>
	<g id="hemAreas" class="layer">
		<path d="M 50.454545 399.8207 C54.017447,395.12791 57.580349,390.30594 61.143251,386.15277 C62.924701,384.07618 64.706152,382.1668 66.487603,380.51181 C68.269054,378.85682 70.050505,377.45623 71.831956,376.3676 C73.613407,375.27897 75.394858,374.5023 77.176308,374.05578 C78.957759,373.60927 80.73921,373.49291 82.520661,373.68357 C84.302112,373.87423 86.083563,374.37192 87.865014,375.11876 C89.646465,375.8656 91.427915,376.86159 93.209366,378.02704 C94.990817,379.19249 96.772268,380.52739 98.553719,381.9459 C100.33517,383.36441 102.11662,384.86654 103.89807,386.3748 C105.67952,387.88306 107.46097,389.39746 109.24242,390.85913 C111.02388,392.32081 112.80533,393.72977 114.58678,395.05017 C116.36823,396.37057 118.14968,397.60242 119.93113,398.73172 C121.71258,399.86101 123.49403,400.88776 125.27548,401.8146 C127.05693,402.74144 128.83838,403.56836 130.61983,404.30756 C132.40129,405.04676 134.18274,405.69823 135.96419,406.27658 C137.74564,406.85493 139.52709,407.36015 141.30854,407.80314 C143.08999,408.24614 144.87144,408.62689 146.65289,408.94758 C148.43434,409.26826 150.21579,409.52887 151.99725,409.71857 C153.7787,409.90827 155.56015,410.02706 157.3416,410.04725 C159.12305,410.06745 160.9045,409.98906 162.68595,409.76444 C164.4674,409.53981 166.24885,409.16895 168.0303,408.58269 C169.81175,407.99643 171.5932,407.19477 173.37466,406.08841 C175.15611,404.98204 176.93756,403.57097 178.71901,401.75109 C180.50046,399.9312 182.28191,397.70252 184.06336,394.95594 C185.84481,392.20937 187.62626,388.94491 189.40771,385.06208 C191.18916,381.17926 192.97062,376.67807 194.75207,371.48244 C196.53352,366.28681 198.31497,360.39675 200.09642,353.77635 C201.87787,347.15595 203.65932,339.80522 205.44077,331.7418 C207.22222,323.67837 209.00367,314.90225 210.78512,305.49319 C212.56657,296.08413 214.34803,286.04212 216.12948,275.51083 C217.91093,264.97953 219.69238,253.95895 221.47383,242.65003 C223.25528,231.34112 225.03673,219.74387 226.81818,208.10087 C228.59963,196.45787 230.38108,184.76911 232.16253,173.29494 C233.94399,161.82076 235.72544,150.56116 237.50689,139.76522 C239.28834,128.96928 241.06979,118.637 242.85124,108.97735 C244.63269,99.317692 246.41414,90.330663 248.19559,82.162633 C249.97704,73.994602 251.75849,66.645568 253.53994,60.188624 C255.3214,53.73168 257.10285,48.166824 258.8843,43.497257 C260.66575,38.827691 262.4472,35.053414 264.22865,32.123356 C266.0101,29.193297 267.79155,27.107458 269.573,25.782864 C271.35445,24.45827 273.1359,23.894921 274.91736,24 C276.69881,24.105079 278.48026,24.878586 280.26171,26.233577 C282.04316,27.588568 283.82461,29.525044 285.60606,31.96833 C287.38751,34.411616 289.16896,37.361712 290.95041,40.753993 C292.73186,44.146274 294.51331,47.980739 296.29477,52.195587 C298.07622,56.410434 299.85767,61.005664 301.63912,65.914829 C303.42057,70.823993 305.20202,76.047093 306.98347,81.509313 C308.76492,86.971534 310.54637,92.672875 312.32782,98.532012 C314.10927,104.39115 315.89073,110.40808 317.67218,116.50169 C319.45363,122.59529 321.23508,128.76557 323.01653,134.94052 C324.79798,141.11546 326.57943,147.29506 328.36088,153.42415 C330.14233,159.55323 331.92378,165.6318 333.70523,171.62526 C335.48669,177.61873 337.26814,183.52709 339.04959,189.3349 C340.83104,195.14271 342.61249,200.84997 344.39394,206.4542 C346.17539,212.05843 347.95684,217.55962 349.73829,222.95943 C351.51974,228.35924 353.30119,233.65768 355.08264,238.85198 C356.8641,244.04629 358.64555,249.13646 360.427,254.1099 C362.20845,259.08335 363.9899,263.94007 365.77135,268.6572 C367.5528,273.37433 369.33425,277.95188 371.1157,282.36133 C372.89715,286.77078 374.6786,291.01214 376.46006,295.05916 C378.24151,299.10617 380.02296,302.95883 381.80441,306.60115 C383.58586,310.24347 385.36731,313.67545 387.14876,316.89641 C388.93021,320.11737 390.71166,323.12731 392.49311,325.94107 C394.27456,328.75482 396.05601,331.37238 397.83747,333.81962 C399.61892,336.26686 401.40037,338.54376 403.18182,340.67999 C404.96327,342.81621 406.74472,344.81174 408.52617,346.69282 C410.30762,348.57391 412.08907,350.34054 413.87052,352.0108 C415.65197,353.68107 417.43343,355.25497 419.21488,356.74132 C420.99633,358.22767 422.77778,359.62646 424.55923,360.93943 C426.34068,362.2524 428.12213,363.47954 429.90358,364.61972 C431.68503,365.7599 433.46648,366.8131 435.24793,367.77989 C437.02938,368.74668 438.81084,369.62706 440.59229,370.42684 C442.37374,371.22662 444.15519,371.94581 445.93664,372.59733 C447.71809,373.24884 449.49954,373.83267 451.28099,374.36864 C453.06244,374.90461 454.84389,375.39271 456.62534,375.85774 C458.4068,376.32277 460.18825,376.76471 461.9697,377.21003 C463.75115,377.65534 465.5326,378.10403 467.31405,378.58024 C469.0955,379.05645 470.87695,379.56019 472.6584,380.10938 C474.43985,380.65858 476.2213,381.25323 478.00275,381.90208 C479.78421,382.55093 481.56566,383.25397 483.34711,384.00939 C485.12856,384.7648 486.91001,385.5726 488.69146,386.4212 C490.47291,387.2698 492.25436,388.1592 494.03581,389.07089 C495.81726,389.98258 497.59871,390.91656 499.38017,391.85162 C501.16162,392.78668 502.94307,393.72282 504.72452,394.64068 C506.50597,395.55854 508.28742,396.45811 510.06887,397.32555 C511.85032,398.19298 513.63177,399.02826 515.41322,399.82494 C517.19467,400.62161 518.97612,401.37967 520.75758,402.1 C522.53903,402.82033 524.32048,403.50293 526.10193,404.1545 C527.88338,404.80607 529.66483,405.42662 531.44628,406.02645 C533.22773,406.62628 535.00918,407.20541 536.79063,407.77557 C538.57208,408.34573 540.35354,408.90693 542.13499,409.47048 C543.91644,410.03403 545.69789,410.59994 547.47934,411.17749 C549.26079,411.75504 551.04224,412.34423 552.82369,412.95086 C554.60514,413.55749 556.38659,414.18156 558.16804,414.82413 C559.9495,415.4667 561.73095,416.12778 563.5124,416.80303 C565.29385,417.47828 567.0753,418.1677 568.85675,418.86201 C572.41965,420.25062 575.98255,421.65875 579.54545,422.98174" id="hemAreas" class="data density"/>
	</g>
	<g id="axis titles" class="layer">
		<text font-size="12" class="axis title" text-anchor="middle" x="606" y="426">Area</text>
	</g>
	<g id="legend" class="layer">
		<g id="hemAreas row">
			<line id="hemAreas" class="data legend" x1="550" x2="600" y1="19" y2="19"/>
			<text font-size="12" class="legend label" text-anchor="start" x="603" y="22">hemAreas</text>
		</g>
	</g>
</svg>
