<?xml version='1.0' encoding='UTF-8'?>
<!DOCTYPE svg PUBLIC "-//W3C//DTD SVG 1.0//EN" "http://www.w3.org/TR/2001/REC-SVG-20010904/DTD/svg10.dtd ">
<svg height="480" viewBox="0 0 640 480" width="640" xmlns="http://www.w3.org/2000/svg" >
	<defs>
		<style type="text/css">
			<![CDATA[
				.data {
					fill: none;
					stroke: black;
					stroke-linecap: round;
					stroke-width: 1.5;
				}
				[class~="density"][id="hemCurvature"] {
					fill: none;
					stroke: rgb(67, 0, 246);
				}
				[class~="legend"][id="hemCurvature"] {
					fill: none;
					stroke: rgb(67, 0, 246);
				}
				line.axis {
					stroke: dimgrey;
					stroke-width: 0.75;
				}
				line.colorbar.tic {
					stroke: black;
					stroke-linecap: butt;
					stroke-width: 0.5;
				}
				line.scalebar {
					stroke: black;
					stroke-width: 0.75;
				}
				line.tic {
					stroke-linecap: round;
				}
				rect.colorbar {
					fill: none;
					stroke: black;
					stroke-width: 0.5;
				}
				rect.plot {
					fill: none;
					stroke: none;
				}
				text {
					font-family: Times;
				}
				text.axis {
					fill: dimgrey;
				}
				text.colorbar.label {
					fill: black;
				}
				text.label {
					font-weight: normal;
				}
				text.title {
					font-weight: bold;
				}
			]]>
		</style>
	</defs>
	<g id="axes" class="layer">
		<g id="x-axis">
			<line id="x-axis" class="axis" x1="24" x2="606" y1="432" y2="432"/>
			<g id="x-axis tics">
				<line id="tic at 0" class="axis tic" x1="49.637369" x2="49.637369" y1="429" y2="435"/>
				<line id="tic at 2000" class="axis tic" x1="145.59001" x2="145.59001" y1="429" y2="435"/>
				<line id="tic at 4000" class="axis tic" x1="241.54266" x2="241.54266" y1="429" y2="435"/>
				<line id="tic at 6000" class="axis tic" x1="337.4953" x2="337.4953" y1="429" y2="435"/>
				<line id="tic at 8000" class="axis tic" x1="433.44795" x2="433.44795" y1="429" y2="435"/>
				<line id="tic at 10000" class="axis tic" x1="529.40059" x2="529.40059" y1="429" y2="435"/>
			</g>
			<g id="x-axis small tics">
				<line id="small tic at 1000" class="axis tic small" x1="97.613691" x2="97.613691" y1="430.5" y2="433.5"/>
				<line id="small tic at 3000" class="axis tic small" x1="193.56634" x2="193.56634" y1="430.5" y2="433.5"/>
				<line id="small tic at 5000" class="axis tic small" x1="289.51898" x2="289.51898" y1="430.5" y2="433.5"/>
				<line id="small tic at 7000" class="axis tic small" x1="385.47163" x2="385.47163" y1="430.5" y2="433.5"/>
				<line id="small tic at 9000" class="axis tic small" x1="481.42427" x2="481.42427" y1="430.5" y2="433.5"/>
				<line id="small tic at 11000" class="axis tic small" x1="577.37692" x2="577.37692" y1="430.5" y2="433.5"/>
			</g>
		</g>
		<g id="x-axis labels">
			<text font-size="12" class="axis label" text-anchor="middle" x="49.637369" y="450">0</text>
			<text font-size="12" class="axis label" text-anchor="middle" x="145.59001" y="450">2000</text>
			<text font-size="12" class="axis label" text-anchor="middle" x="241.54266" y="450">4000</text>
			<text font-size="12" class="axis label" text-anchor="middle" x="337.4953" y="450">6000</text>
			<text font-size="12" class="axis label" text-anchor="middle" x="433.44795" y="450">8000</text>
			<text font-size="12" class="axis label" text-anchor="middle" x="529.40059" y="450">10000</text>
		</g>
		<g id="y-axis">
			<line id="y-axis" class="axis" x1="49.637369" x2="49.637369" y1="432" y2="24"/>
			<g id="y-axis tics">
				<line id="tic at 0.0005" class="axis tic" x1="52.637369" x2="46.637369" y1="380.72803" y2="380.72803"/>
				<line id="tic at 0.001" class="axis tic" x1="52.637369" x2="46.637369" y1="329.45606" y2="329.45606"/>
				<line id="tic at 0.0015" class="axis tic" x1="52.637369" x2="46.637369" y1="278.18409" y2="278.18409"/>
				<line id="tic at 0.002" class="axis tic" x1="52.637369" x2="46.637369" y1="226.91213" y2="226.91213"/>
				<line id="tic at 0.0025" class="axis tic" x1="52.637369" x2="46.637369" y1="175.64016" y2="175.64016"/>
				<line id="tic at 0.003" class="axis tic" x1="52.637369" x2="46.637369" y1="124.36819" y2="124.36819"/>
				<line id="tic at 0.0035" class="axis tic" x1="52.637369" x2="46.637369" y1="73.096221" y2="73.096221"/>
			</g>
			<g id="y-axis small tics">
				<line id="small tic at 0.00025" class="axis tic small" x1="51.137369" x2="48.137369" y1="406.36402" y2="406.36402"/>
				<line id="small tic at 0.00025" class="axis tic small" x1="51.137369" x2="48.137369" y1="406.36402" y2="406.36402"/>
				<line id="small tic at 0.00075" class="axis tic small" x1="51.137369" x2="48.137369" y1="355.09205" y2="355.09205"/>
				<line id="small tic at 0.00125" class="axis tic small" x1="51.137369" x2="48.137369" y1="303.82008" y2="303.82008"/>
				<line id="small tic at 0.00175" class="axis tic small" x1="51.137369" x2="48.137369" y1="252.54811" y2="252.54811"/>
				<line id="small tic at 0.00225" class="axis tic small" x1="51.137369" x2="48.137369" y1="201.27614" y2="201.27614"/>
				<line id="small tic at 0.00275" class="axis tic small" x1="51.137369" x2="48.137369" y1="150.00417" y2="150.00417"/>
				<line id="small tic at 0.00325" class="axis tic small" x1="51.137369" x2="48.137369" y1="98.732205" y2="98.732205"/>
				<line id="small tic at 0.00375" class="axis tic small" x1="51.137369" x2="48.137369" y1="47.460236" y2="47.460236"/>
			</g>
		</g>
		<g id="y-axis labels">
			<text font-size="12" class="axis label" text-anchor="end" x="43.637369" y="385.22803">0.0005</text>
			<text font-size="12" class="axis label" text-anchor="end" x="43.637369" y="333.95606">0.001</text>
			<text font-size="12" class="axis label" text-anchor="end" x="43.637369" y="282.68409">0.0015</text>
			<text font-size="12" class="axis label" text-anchor="end" x="43.637369" y="231.41213">0.002</text>
			<text font-size="12" class="axis label" text-anchor="end" x="43.637369" y="180.14016">0.0025</text>
			<text font-size="12" class="axis label" text-anchor="end" x="43.637369" y="128.86819">0.003</text>
			<text font-size="12" class="axis label" text-anchor="end" x="43.637369" y="77.596221">0.0035</text>
		</g>
	</g>
	<g id="hemCurvature" class="layer">
		<path d="M 50.454545 24 C54.017447,22.080571 57.580348,288.01324 61.14325,377.74188 C62.924701,422.6062 64.706152,423.41952 66.487603,425.11789 C68.269054,426.81625 70.050504,429.39967 71.831955,430.58062 C73.613406,431.76157 75.394857,431.54005 77.176308,431.49553 C78.957759,431.45102 80.73921,431.58351 82.520661,431.6258 C84.302111,431.66809 86.083562,431.62018 87.865013,431.66406 C89.646464,431.70794 91.427915,431.84362 93.209366,431.91372 C94.990817,431.98382 96.772268,431.98834 98.553718,431.98691 C100.33517,431.98548 102.11662,431.97809 103.89807,431.86556 C105.67952,431.75304 107.46097,431.53537 109.24242,431.40286 C111.02387,431.27034 112.80533,431.22299 114.58678,431.32179 C116.36823,431.42059 118.14968,431.66555 119.93113,431.80307 C121.71258,431.94058 123.49403,431.97063 125.27548,431.98544 C127.05693,432.00025 128.83838,431.99982 130.61983,431.99973 C132.40129,431.99964 134.18274,431.9999 135.96419,432 C137.74564,432.0001 139.52709,432.00003 141.30854,432 C143.08999,431.99997 144.87144,431.99999 146.65289,432 C148.43434,432.00001 150.21579,432 151.99724,432 C153.7787,432 155.56015,432 157.3416,432 C159.12305,432 160.9045,432 162.68595,432 C164.4674,432 166.24885,432 168.0303,432 C169.81175,432 171.5932,432 173.37466,432 C175.15611,432 176.93756,432 178.71901,432 C180.50046,432 182.28191,432 184.06336,432 C185.84481,432 187.62626,432 189.40771,432 C191.18916,432 192.97061,432 194.75207,432 C196.53352,432 198.31497,432 200.09642,432 C201.87787,432 203.65932,432 205.44077,432 C207.22222,432 209.00367,432 210.78512,432 C212.56657,432 214.34803,432 216.12948,432 C217.91093,432 219.69238,432 221.47383,432 C223.25528,432 225.03673,432 226.81818,432 C228.59963,432 230.38108,432 232.16253,432 C233.94399,432 235.72544,432 237.50689,432 C239.28834,432 241.06979,432 242.85124,432 C244.63269,432 246.41414,432 248.19559,432 C249.97704,432 251.75849,432 253.53994,432 C255.3214,432 257.10285,432 258.8843,432 C260.66575,432 262.4472,432 264.22865,432 C266.0101,432 267.79155,432 269.573,432 C271.35445,432 273.1359,432 274.91736,432 C276.69881,432 278.48026,432 280.26171,432 C282.04316,432 283.82461,432 285.60606,432 C287.38751,432 289.16896,432 290.95041,432 C292.73186,432 294.51331,432 296.29477,432 C298.07622,432 299.85767,432 301.63912,432 C303.42057,432 305.20202,432 306.98347,432 C308.76492,432 310.54637,431.99999 312.32782,432 C314.10927,432.00001 315.89073,432.00003 317.67218,432 C319.45363,431.99997 321.23508,431.99987 323.01653,432 C324.79798,432.00013 326.57943,432.00047 328.36088,432 C330.14233,431.99952 331.92378,431.99823 333.70523,431.99931 C335.48669,432.0004 337.26814,432.00387 339.04959,431.97668 C340.83104,431.94949 342.61249,431.89165 344.39394,431.80738 C346.17539,431.7231 347.95684,431.6124 349.73829,431.61345 C351.51974,431.61449 353.30119,431.72727 355.08264,431.81153 C356.8641,431.89578 358.64555,431.95151 360.427,431.97767 C362.20845,432.00384 363.9899,432.00043 365.77135,431.99936 C367.5528,431.99828 369.33425,431.99954 371.1157,432 C372.89715,432.00046 374.6786,432.00012 376.46006,432 C378.24151,431.99988 380.02296,431.99997 381.80441,432 C383.58586,432.00003 385.36731,432.00001 387.14876,432 C388.93021,431.99999 390.71166,432 392.49311,432 C394.27456,432 396.05601,432 397.83747,432 C399.61892,432 401.40037,432 403.18182,432 C404.96327,432 406.74472,432 408.52617,432 C410.30762,432 412.08907,432 413.87052,432 C415.65197,432 417.43343,432 419.21488,432 C420.99633,432 422.77778,432 424.55923,432 C426.34068,432 428.12213,432 429.90358,432 C431.68503,432 433.46648,432 435.24793,432 C437.02939,432 438.81084,432 440.59229,432 C442.37374,432 444.15519,432 445.93664,432 C447.71809,432 449.49954,432 451.28099,432 C453.06244,432 454.84389,432 456.62534,432 C458.4068,432 460.18825,432 461.9697,432 C463.75115,432 465.5326,432 467.31405,432 C469.0955,432 470.87695,432 472.6584,432 C474.43985,432 476.2213,432 478.00276,432 C479.78421,432 481.56566,432 483.34711,432 C485.12856,432 486.91001,432 488.69146,432 C490.47291,432 492.25436,432 494.03581,432 C495.81726,432 497.59871,432 499.38017,432 C501.16162,432 502.94307,432 504.72452,432 C506.50597,432 508.28742,432 510.06887,432 C511.85032,432 513.63177,432 515.41322,432 C517.19467,432 518.97613,432 520.75758,432 C522.53903,432 524.32048,432 526.10193,432 C527.88338,432 529.66483,432 531.44628,432 C533.22773,432 535.00918,432 536.79063,432 C538.57209,432 540.35354,431.99999 542.13499,432 C543.91644,432.00001 545.69789,432.00005 547.47934,432 C549.26079,431.99995 551.04224,431.99981 552.82369,432 C554.60514,432.00019 556.38659,432.00072 558.16804,432 C559.9495,431.99928 561.73095,431.99731 563.5124,431.99934 C565.29385,432.00136 567.0753,432.00738 568.85675,431.97718 C572.41965,431.91679 575.98255,431.71155 579.54546,431.61343" id="hemCurvature" class="data density"/>
	</g>
	<g id="axis titles" class="layer">
		<text font-size="12" class="axis title" text-anchor="middle" x="606" y="426">Normalized Curvature</text>
	</g>
	<g id="legend" class="layer">
		<g id="hemCurvature row">
			<line id="hemCurvature" class="data legend" x1="550" x2="600" y1="19" y2="19"/>
			<text font-size="12" class="legend label" text-anchor="start" x="603" y="22">hemCurvature</text>
		</g>
	</g>
</svg>
