<?xml version='1.0' encoding='UTF-8'?>
<!DOCTYPE svg PUBLIC "-//W3C//DTD SVG 1.0//EN" "http://www.w3.org/TR/2001/REC-SVG-20010904/DTD/svg10.dtd ">
<svg height="480" viewBox="0 0 640 480" width="640" xmlns="http://www.w3.org/2000/svg" >
	<defs>
		<style type="text/css">
			<![CDATA[
				.data {
					fill: none;
					stroke: black;
					stroke-linecap: round;
					stroke-width: 1.5;
				}
				[class~="density"][id="hemPerimeter"] {
					fill: none;
					stroke: rgb(67, 0, 246);
				}
				[class~="legend"][id="hemPerimeter"] {
					fill: none;
					stroke: rgb(67, 0, 246);
				}
				line.axis {
					stroke: dimgrey;
					stroke-width: 0.75;
				}
				line.colorbar.tic {
					stroke: black;
					stroke-linecap: butt;
					stroke-width: 0.5;
				}
				line.scalebar {
					stroke: black;
					stroke-width: 0.75;
				}
				line.tic {
					stroke-linecap: round;
				}
				rect.colorbar {
					fill: none;
					stroke: black;
					stroke-width: 0.5;
				}
				rect.plot {
					fill: none;
					stroke: none;
				}
				text {
					font-family: Times;
				}
				text.axis {
					fill: dimgrey;
				}
				text.colorbar.label {
					fill: black;
				}
				text.label {
					font-weight: normal;
				}
				text.title {
					font-weight: bold;
				}
			]]>
		</style>
	</defs>
	<g id="axes" class="layer">
		<g id="x-axis">
			<line id="x-axis" class="axis" x1="24" x2="606" y1="432" y2="432"/>
			<g id="x-axis tics">
				<line id="tic at 0" class="axis tic" x1="37.119658" x2="37.119658" y1="429" y2="435"/>
				<line id="tic at 500" class="axis tic" x1="98.810689" x2="98.810689" y1="429" y2="435"/>
				<line id="tic at 1000" class="axis tic" x1="160.50172" x2="160.50172" y1="429" y2="435"/>
				<line id="tic at 1500" class="axis tic" x1="222.19275" x2="222.19275" y1="429" y2="435"/>
				<line id="tic at 2000" class="axis tic" x1="283.88378" x2="283.88378" y1="429" y2="435"/>
				<line id="tic at 2500" class="axis tic" x1="345.57481" x2="345.57481" y1="429" y2="435"/>
				<line id="tic at 3000" class="axis tic" x1="407.26584" x2="407.26584" y1="429" y2="435"/>
				<line id="tic at 3500" class="axis tic" x1="468.95687" x2="468.95687" y1="429" y2="435"/>
				<line id="tic at 4000" class="axis tic" x1="530.6479" x2="530.6479" y1="429" y2="435"/>
				<line id="tic at 4500" class="axis tic" x1="592.33893" x2="592.33893" y1="429" y2="435"/>
			</g>
			<g id="x-axis small tics">
				<line id="small tic at 250" class="axis tic small" x1="67.965173" x2="67.965173" y1="430.5" y2="433.5"/>
				<line id="small tic at 750" class="axis tic small" x1="129.6562" x2="129.6562" y1="430.5" y2="433.5"/>
				<line id="small tic at 1250" class="axis tic small" x1="191.34723" x2="191.34723" y1="430.5" y2="433.5"/>
				<line id="small tic at 1750" class="axis tic small" x1="253.03827" x2="253.03827" y1="430.5" y2="433.5"/>
				<line id="small tic at 2250" class="axis tic small" x1="314.7293" x2="314.7293" y1="430.5" y2="433.5"/>
				<line id="small tic at 2750" class="axis tic small" x1="376.42033" x2="376.42033" y1="430.5" y2="433.5"/>
				<line id="small tic at 3250" class="axis tic small" x1="438.11136" x2="438.11136" y1="430.5" y2="433.5"/>
				<line id="small tic at 3750" class="axis tic small" x1="499.80239" x2="499.80239" y1="430.5" y2="433.5"/>
				<line id="small tic at 4250" class="axis tic small" x1="561.49342" x2="561.49342" y1="430.5" y2="433.5"/>
			</g>
		</g>
		<g id="x-axis labels">
			<text font-size="12" class="axis label" text-anchor="middle" x="37.119658" y="450">0</text>
			<text font-size="12" class="axis label" text-anchor="middle" x="98.810689" y="450">500</text>
			<text font-size="12" class="axis label" text-anchor="middle" x="160.50172" y="450">1000</text>
			<text font-size="12" class="axis label" text-anchor="middle" x="222.19275" y="450">1500</text>
			<text font-size="12" class="axis label" text-anchor="middle" x="283.88378" y="450">2000</text>
			<text font-size="12" class="axis label" text-anchor="middle" x="345.57481" y="450">2500</text>
			<text font-size="12" class="axis label" text-anchor="middle" x="407.26584" y="450">3000</text>
			<text font-size="12" class="axis label" text-anchor="middle" x="468.95687" y="450">3500</text>
			<text font-size="12" class="axis label" text-anchor="middle" x="530.6479" y="450">4000</text>
			<text font-size="12" class="axis label" text-anchor="middle" x="592.33893" y="450">4500</text>
		</g>
		<g id="y-axis">
			<line id="y-axis" class="axis" x1="37.119658" x2="37.119658" y1="432" y2="24"/>
			<g id="y-axis tics">
				<line id="tic at 0.0005" class="axis tic" x1="40.119658" x2="34.119658" y1="377.2396" y2="377.2396"/>
				<line id="tic at 0.001" class="axis tic" x1="40.119658" x2="34.119658" y1="322.4792" y2="322.4792"/>
				<line id="tic at 0.0015" class="axis tic" x1="40.119658" x2="34.119658" y1="267.7188" y2="267.7188"/>
				<line id="tic at 0.002" class="axis tic" x1="40.119658" x2="34.119658" y1="212.9584" y2="212.9584"/>
				<line id="tic at 0.0025" class="axis tic" x1="40.119658" x2="34.119658" y1="158.198" y2="158.198"/>
				<line id="tic at 0.003" class="axis tic" x1="40.119658" x2="34.119658" y1="103.43759" y2="103.43759"/>
				<line id="tic at 0.0035" class="axis tic" x1="40.119658" x2="34.119658" y1="48.677193" y2="48.677193"/>
			</g>
			<g id="y-axis small tics">
				<line id="small tic at 0.00025" class="axis tic small" x1="38.619658" x2="35.619658" y1="404.6198" y2="404.6198"/>
				<line id="small tic at 0.00025" class="axis tic small" x1="38.619658" x2="35.619658" y1="404.6198" y2="404.6198"/>
				<line id="small tic at 0.00075" class="axis tic small" x1="38.619658" x2="35.619658" y1="349.8594" y2="349.8594"/>
				<line id="small tic at 0.00125" class="axis tic small" x1="38.619658" x2="35.619658" y1="295.099" y2="295.099"/>
				<line id="small tic at 0.00175" class="axis tic small" x1="38.619658" x2="35.619658" y1="240.3386" y2="240.3386"/>
				<line id="small tic at 0.00225" class="axis tic small" x1="38.619658" x2="35.619658" y1="185.5782" y2="185.5782"/>
				<line id="small tic at 0.00275" class="axis tic small" x1="38.619658" x2="35.619658" y1="130.81779" y2="130.81779"/>
				<line id="small tic at 0.00325" class="axis tic small" x1="38.619658" x2="35.619658" y1="76.057394" y2="76.057394"/>
			</g>
		</g>
		<g id="y-axis labels">
			<text font-size="12" class="axis label" text-anchor="end" x="31.119658" y="381.7396">0.0005</text>
			<text font-size="12" class="axis label" text-anchor="end" x="31.119658" y="326.9792">0.001</text>
			<text font-size="12" class="axis label" text-anchor="end" x="31.119658" y="272.2188">0.0015</text>
			<text font-size="12" class="axis label" text-anchor="end" x="31.119658" y="217.4584">0.002</text>
			<text font-size="12" class="axis label" text-anchor="end" x="31.119658" y="162.698">0.0025</text>
			<text font-size="12" class="axis label" text-anchor="end" x="31.119658" y="107.93759">0.003</text>
			<text font-size="12" class="axis label" text-anchor="end" x="31.119658" y="53.177193">0.0035</text>
		</g>
	</g>
	<g id="hemPerimeter" class="layer">
		<path d="M 50.454545 430.77103 C54.017447,430.6896 57.580348,431.15001 61.14325,431.45822 C62.924701,431.61232 64.706152,431.72838 66.487603,431.74508 C68.269054,431.76179 70.050504,431.67914 71.831955,431.10958 C73.613406,430.54003 75.394857,429.48356 77.176308,426.01489 C78.957759,422.54622 80.73921,416.66535 82.520661,403.7198 C84.302111,390.77425 86.083562,370.76402 87.865013,340.18697 C89.646464,309.60993 91.427915,268.46606 93.209366,223.60254 C94.990817,178.73903 96.772268,130.15586 98.553718,93.172421 C100.33517,56.188982 102.11662,30.805268 103.89807,24 C105.67952,17.194732 107.46097,28.967911 109.24242,51.750649 C111.02387,74.533386 112.80533,108.32568 114.58678,142.04087 C116.36823,175.75606 118.14968,209.39415 119.93113,237.65075 C121.71258,265.90735 123.49403,288.78247 125.27548,306.85056 C127.05693,324.91866 128.83838,338.17973 130.61983,348.77155 C132.40129,359.36337 134.18274,367.28594 135.96419,373.50003 C137.74564,379.71411 139.52709,384.2197 141.30854,387.55093 C143.08999,390.88217 144.87144,393.03904 146.65289,394.87719 C148.43434,396.71534 150.21579,398.23476 151.99724,399.93154 C153.7787,401.62832 155.56015,403.50244 157.3416,405.36184 C159.12305,407.22123 160.9045,409.06589 162.68595,410.4843 C164.4674,411.90271 166.24885,412.89488 168.0303,413.46276 C169.81175,414.03064 171.5932,414.17424 173.37466,414.31583 C175.15611,414.45741 176.93756,414.59698 178.71901,415.01401 C180.50046,415.43103 182.28191,416.1255 184.06336,416.90873 C185.84481,417.69196 187.62626,418.56395 189.40771,419.22416 C191.18916,419.88438 192.97061,420.33281 194.75207,420.71973 C196.53352,421.10665 198.31497,421.43206 200.09642,421.946 C201.87787,422.45994 203.65932,423.16243 205.44077,423.82581 C207.22222,424.4892 209.00367,425.11348 210.78512,425.52075 C212.56657,425.92803 214.34803,426.11828 216.12948,426.28746 C217.91093,426.45665 219.69238,426.60476 221.47383,426.85199 C223.25528,427.09922 225.03673,427.44557 226.81818,427.84767 C228.59963,428.24977 230.38108,428.70762 232.16253,429.16119 C233.94399,429.61477 235.72544,430.06407 237.50689,430.44624 C239.28834,430.82842 241.06979,431.14347 242.85124,431.3704 C244.63269,431.59733 246.41414,431.73615 248.19559,431.82339 C249.97704,431.91064 251.75849,431.9463 253.53994,431.96578 C255.3214,431.98526 257.10285,431.98854 258.8843,431.98319 C260.66575,431.97784 262.4472,431.96385 264.22865,431.92977 C266.0101,431.89569 267.79155,431.84152 269.573,431.76566 C271.35445,431.6898 273.1359,431.59225 274.91736,431.51509 C276.69881,431.43793 278.48026,431.38115 280.26171,431.38029 C282.04316,431.37943 283.82461,431.43447 285.60606,431.5109 C287.38751,431.58733 289.16896,431.68514 290.95041,431.76161 C292.73186,431.83809 294.51331,431.89323 296.29477,431.92824 C298.07622,431.96326 299.85767,431.97815 301.63912,431.98666 C303.42057,431.99517 305.20202,431.99731 306.98347,431.99847 C308.76492,431.99963 310.54637,431.9998 312.32782,431.99989 C314.10927,431.99998 315.89073,431.99999 317.67218,432 C319.45363,432 321.23508,432 323.01653,432 C324.79798,431.99999 326.57943,431.99998 328.36088,431.9999 C330.14233,431.99981 331.92378,431.99964 333.70523,431.99852 C335.48669,431.99739 337.26814,431.99532 339.04959,431.98699 C340.83104,431.97866 342.61249,431.96409 344.39394,431.92957 C346.17539,431.89506 347.95684,431.8406 349.73829,431.76456 C351.51974,431.68853 353.30119,431.5909 355.08264,431.51394 C356.8641,431.43697 358.64555,431.38067 360.427,431.38028 C362.20845,431.37989 363.9899,431.43541 365.77135,431.51205 C367.5528,431.58868 369.33425,431.68642 371.1157,431.76273 C372.89715,431.83904 374.6786,431.89392 376.46006,431.92873 C378.24151,431.96353 380.02296,431.97826 381.80441,431.98637 C383.58586,431.99448 385.36731,431.99596 387.14876,431.99384 C388.93021,431.99172 390.71166,431.986 392.49311,431.96786 C394.27456,431.94972 396.05601,431.91917 397.83747,431.86359 C399.61892,431.808 401.40037,431.72738 403.18182,431.64127 C404.96327,431.55515 406.74472,431.46355 408.52617,431.41738 C410.30762,431.37121 412.08907,431.37048 413.87052,431.41565 C415.65197,431.46082 417.43343,431.5519 419.21488,431.63805 C420.99633,431.7242 422.77778,431.80541 424.55923,431.86155 C426.34068,431.91768 428.12213,431.94874 429.90358,431.96729 C431.68503,431.98583 433.46648,431.99187 435.24793,431.99512 C437.02939,431.99837 438.81084,431.99885 440.59229,431.99803 C442.37374,431.99722 444.15519,431.99512 445.93664,431.98661 C447.71809,431.9781 449.49954,431.96319 451.28099,431.92813 C453.06244,431.89307 454.84389,431.83787 456.62534,431.76135 C458.4068,431.68484 460.18825,431.58702 461.9697,431.51064 C463.75115,431.43426 465.5326,431.37932 467.31405,431.38029 C469.0955,431.38126 470.87695,431.43815 472.6584,431.51535 C474.43985,431.59256 476.2213,431.6901 478.00276,431.76593 C479.78421,431.84177 481.56566,431.8959 483.34711,431.93019 C485.12856,431.96447 486.91001,431.9789 488.69146,431.98714 C490.47291,431.99538 492.25436,431.99743 494.03581,431.99854 C495.81726,431.99964 497.59871,431.99981 499.38017,431.9999 C501.16162,431.99998 502.94307,431.99999 504.72452,432 C506.50597,432 508.28742,432 510.06887,432 C511.85032,432 513.63177,432 515.41322,432 C517.19467,432 518.97613,432 520.75758,432 C522.53903,432 524.32048,432 526.10193,432 C527.88338,432 529.66483,432 531.44628,432 C533.22773,432 535.00918,432 536.79063,432 C538.57209,432 540.35354,432 542.13499,432 C543.91644,431.99999 545.69789,431.99998 547.47934,431.99989 C549.26079,431.99981 551.04224,431.99964 552.82369,431.9985 C554.60514,431.99736 556.38659,431.99526 558.16804,431.98689 C559.9495,431.97852 561.73095,431.96388 563.5124,431.92916 C565.29385,431.89444 567.0753,431.83963 568.85675,431.76365 C572.41965,431.61168 575.98255,431.37499 579.54546,431.38028" id="hemPerimeter" class="data density"/>
	</g>
	<g id="axis titles" class="layer">
		<text font-size="12" class="axis title" text-anchor="middle" x="606" y="426">Path Length</text>
	</g>
	<g id="legend" class="layer">
		<g id="hemPerimeter row">
			<line id="hemPerimeter" class="data legend" x1="550" x2="600" y1="19" y2="19"/>
			<text font-size="12" class="legend label" text-anchor="start" x="603" y="22">hemPerimeter</text>
		</g>
	</g>
</svg>
