<?xml version='1.0' encoding='UTF-8'?>
<!DOCTYPE svg PUBLIC "-//W3C//DTD SVG 1.0//EN" "http://www.w3.org/TR/2001/REC-SVG-20010904/DTD/svg10.dtd ">
<svg height="480" viewBox="0 0 640 480" width="640" xmlns="http://www.w3.org/2000/svg" >
	<defs>
		<style type="text/css">
			<![CDATA[
				.data {
					fill: none;
					stroke: black;
					stroke-linecap: round;
					stroke-width: 1.5;
				}
				[class~="density"][id="allAspectRatio"] {
					fill: none;
					stroke: rgb(67, 0, 246);
				}
				[class~="density"][id="hemAspectRatio"] {
					fill: none;
					stroke: rgb(255, 147, 0);
				}
				[class~="legend"][id="allAspectRatio"] {
					fill: none;
					stroke: rgb(67, 0, 246);
				}
				[class~="legend"][id="hemAspectRatio"] {
					fill: none;
					stroke: rgb(255, 147, 0);
				}
				line.axis {
					stroke: dimgrey;
					stroke-width: 0.75;
				}
				line.colorbar.tic {
					stroke: black;
					stroke-linecap: butt;
					stroke-width: 0.5;
				}
				line.scalebar {
					stroke: black;
					stroke-width: 0.75;
				}
				line.tic {
					stroke-linecap: round;
				}
				rect.colorbar {
					fill: none;
					stroke: black;
					stroke-width: 0.5;
				}
				rect.plot {
					fill: none;
					stroke: none;
				}
				text {
					font-family: Times;
				}
				text.axis {
					fill: dimgrey;
				}
				text.colorbar.label {
					fill: black;
				}
				text.label {
					font-weight: normal;
				}
				text.title {
					font-weight: bold;
				}
			]]>
		</style>
	</defs>
	<g id="axes" class="layer">
		<g id="x-axis">
			<line id="x-axis" class="axis" x1="24" x2="606" y1="432" y2="432"/>
			<g id="x-axis tics">
				<line id="tic at 0.5" class="axis tic" x1="47.321368" x2="47.321368" y1="429" y2="435"/>
				<line id="tic at 0.75" class="axis tic" x1="103.10351" x2="103.10351" y1="429" y2="435"/>
				<line id="tic at 1" class="axis tic" x1="158.88565" x2="158.88565" y1="429" y2="435"/>
				<line id="tic at 1.25" class="axis tic" x1="214.66779" x2="214.66779" y1="429" y2="435"/>
				<line id="tic at 1.5" class="axis tic" x1="270.44994" x2="270.44994" y1="429" y2="435"/>
				<line id="tic at 1.75" class="axis tic" x1="326.23208" x2="326.23208" y1="429" y2="435"/>
				<line id="tic at 2" class="axis tic" x1="382.01422" x2="382.01422" y1="429" y2="435"/>
				<line id="tic at 2.25" class="axis tic" x1="437.79636" x2="437.79636" y1="429" y2="435"/>
				<line id="tic at 2.5" class="axis tic" x1="493.5785" x2="493.5785" y1="429" y2="435"/>
				<line id="tic at 2.75" class="axis tic" x1="549.36065" x2="549.36065" y1="429" y2="435"/>
				<line id="tic at 3" class="axis tic" x1="605.14279" x2="605.14279" y1="429" y2="435"/>
			</g>
			<g id="x-axis small tics">
				<line id="small tic at 0.625" class="axis tic small" x1="75.212439" x2="75.212439" y1="430.5" y2="433.5"/>
				<line id="small tic at 0.875" class="axis tic small" x1="130.99458" x2="130.99458" y1="430.5" y2="433.5"/>
				<line id="small tic at 1.125" class="axis tic small" x1="186.77672" x2="186.77672" y1="430.5" y2="433.5"/>
				<line id="small tic at 1.375" class="axis tic small" x1="242.55887" x2="242.55887" y1="430.5" y2="433.5"/>
				<line id="small tic at 1.625" class="axis tic small" x1="298.34101" x2="298.34101" y1="430.5" y2="433.5"/>
				<line id="small tic at 1.875" class="axis tic small" x1="354.12315" x2="354.12315" y1="430.5" y2="433.5"/>
				<line id="small tic at 2.125" class="axis tic small" x1="409.90529" x2="409.90529" y1="430.5" y2="433.5"/>
				<line id="small tic at 2.375" class="axis tic small" x1="465.68743" x2="465.68743" y1="430.5" y2="433.5"/>
				<line id="small tic at 2.625" class="axis tic small" x1="521.46958" x2="521.46958" y1="430.5" y2="433.5"/>
				<line id="small tic at 2.875" class="axis tic small" x1="577.25172" x2="577.25172" y1="430.5" y2="433.5"/>
			</g>
		</g>
		<g id="x-axis labels">
			<text font-size="12" class="axis label" text-anchor="middle" x="47.321368" y="450">0.5</text>
			<text font-size="12" class="axis label" text-anchor="middle" x="103.10351" y="450">0.75</text>
			<text font-size="12" class="axis label" text-anchor="middle" x="158.88565" y="450">1</text>
			<text font-size="12" class="axis label" text-anchor="middle" x="214.66779" y="450">1.25</text>
			<text font-size="12" class="axis label" text-anchor="middle" x="270.44994" y="450">1.5</text>
			<text font-size="12" class="axis label" text-anchor="middle" x="326.23208" y="450">1.75</text>
			<text font-size="12" class="axis label" text-anchor="middle" x="382.01422" y="450">2</text>
			<text font-size="12" class="axis label" text-anchor="middle" x="437.79636" y="450">2.25</text>
			<text font-size="12" class="axis label" text-anchor="middle" x="493.5785" y="450">2.5</text>
			<text font-size="12" class="axis label" text-anchor="middle" x="549.36065" y="450">2.75</text>
			<text font-size="12" class="axis label" text-anchor="middle" x="605.14279" y="450">3</text>
		</g>
		<g id="y-axis">
			<line id="y-axis" class="axis" x1="24" x2="24" y1="432" y2="24"/>
			<g id="y-axis tics">
				<line id="tic at 0.5" class="axis tic" x1="27" x2="21" y1="378.6165" y2="378.6165"/>
				<line id="tic at 1" class="axis tic" x1="27" x2="21" y1="325.23299" y2="325.23299"/>
				<line id="tic at 1.5" class="axis tic" x1="27" x2="21" y1="271.84949" y2="271.84949"/>
				<line id="tic at 2" class="axis tic" x1="27" x2="21" y1="218.46598" y2="218.46598"/>
				<line id="tic at 2.5" class="axis tic" x1="27" x2="21" y1="165.08248" y2="165.08248"/>
				<line id="tic at 3" class="axis tic" x1="27" x2="21" y1="111.69897" y2="111.69897"/>
				<line id="tic at 3.5" class="axis tic" x1="27" x2="21" y1="58.315468" y2="58.315468"/>
			</g>
			<g id="y-axis small tics">
				<line id="small tic at 0.25" class="axis tic small" x1="25.5" x2="22.5" y1="405.30825" y2="405.30825"/>
				<line id="small tic at 0.25" class="axis tic small" x1="25.5" x2="22.5" y1="405.30825" y2="405.30825"/>
				<line id="small tic at 0.75" class="axis tic small" x1="25.5" x2="22.5" y1="351.92474" y2="351.92474"/>
				<line id="small tic at 1.25" class="axis tic small" x1="25.5" x2="22.5" y1="298.54124" y2="298.54124"/>
				<line id="small tic at 1.75" class="axis tic small" x1="25.5" x2="22.5" y1="245.15773" y2="245.15773"/>
				<line id="small tic at 2.25" class="axis tic small" x1="25.5" x2="22.5" y1="191.77423" y2="191.77423"/>
				<line id="small tic at 2.75" class="axis tic small" x1="25.5" x2="22.5" y1="138.39073" y2="138.39073"/>
				<line id="small tic at 3.25" class="axis tic small" x1="25.5" x2="22.5" y1="85.007221" y2="85.007221"/>
				<line id="small tic at 3.75" class="axis tic small" x1="25.5" x2="22.5" y1="31.623716" y2="31.623716"/>
			</g>
		</g>
		<g id="y-axis labels">
			<text font-size="12" class="axis label" text-anchor="end" x="18" y="383.1165">0.5</text>
			<text font-size="12" class="axis label" text-anchor="end" x="18" y="329.73299">1</text>
			<text font-size="12" class="axis label" text-anchor="end" x="18" y="276.34949">1.5</text>
			<text font-size="12" class="axis label" text-anchor="end" x="18" y="222.96598">2</text>
			<text font-size="12" class="axis label" text-anchor="end" x="18" y="169.58248">2.5</text>
			<text font-size="12" class="axis label" text-anchor="end" x="18" y="116.19897">3</text>
			<text font-size="12" class="axis label" text-anchor="end" x="18" y="62.815468">3.5</text>
		</g>
	</g>
	<g id="allAspectRatio" class="layer">
		<path d="M 79.260435 431.34263 C82.629357,431.2093 85.99828,431.13458 89.367203,430.94103 C91.051664,430.84425 92.736125,430.71776 94.420587,430.53402 C96.105048,430.35028 97.789509,430.10928 99.473971,429.78991 C101.15843,429.47054 102.84289,429.0728 104.52735,428.58325 C106.21182,428.0937 107.89628,427.51233 109.58074,426.85921 C111.2652,426.20608 112.94966,425.4812 114.63412,424.76629 C116.31858,424.05137 118.00305,423.34641 119.68751,422.70122 C121.37197,422.05602 123.05643,421.47059 124.74089,420.79249 C126.42535,420.11439 128.10981,419.34362 129.79428,418.14914 C131.47874,416.95465 133.1632,415.33644 134.84766,412.95483 C136.53212,410.57323 138.21658,407.42823 139.90104,403.10562 C141.5855,398.78301 143.26997,393.2828 144.95443,385.86536 C146.63889,378.44791 148.32335,369.11324 150.00781,356.98377 C151.69227,344.8543 153.37673,329.93003 155.0612,312.12924 C156.74566,294.32845 158.43012,273.65114 160.11458,251.63087 C161.79904,229.61059 163.4835,206.24737 165.16796,184.12616 C166.85242,162.00495 168.53689,141.12577 170.22135,123.586 C171.90581,106.04623 173.59027,91.845883 175.27473,81.835577 C176.95919,71.82527 178.64365,66.005005 180.32812,64.260374 C182.01258,62.515743 183.69704,64.846745 185.3815,70.407474 C187.06596,75.968203 188.75042,84.75866 190.43488,95.410615 C192.11935,106.06257 193.80381,118.57602 195.48827,131.69494 C197.17273,144.81386 198.85719,158.53825 200.54165,172.1377 C202.22611,185.73715 203.91057,199.21165 205.59504,212.13484 C207.2795,225.05803 208.96396,237.4299 210.64842,248.86529 C212.33288,260.30069 214.01734,270.7996 215.7018,280.13246 C217.38627,289.46531 219.07073,297.63209 220.75519,304.7773 C222.43965,311.92251 224.12411,318.04615 225.80857,323.49811 C227.49303,328.95008 229.17749,333.73038 230.86196,337.96477 C232.54642,342.19916 234.23088,345.88763 235.91534,348.9244 C237.5998,351.96117 239.28426,354.34624 240.96872,356.18408 C242.65319,358.02192 244.33765,359.31253 246.02211,360.55487 C247.70657,361.79721 249.39103,362.99127 251.07549,364.60986 C252.75995,366.22846 254.44442,368.27159 256.12888,370.72015 C257.81334,373.16872 259.4978,376.02271 261.18226,378.91975 C262.86672,381.81679 264.55118,384.75688 266.23564,387.46076 C267.92011,390.16464 269.60457,392.63233 271.28903,394.75581 C272.97349,396.87929 274.65795,398.65856 276.34241,400.1015 C278.02687,401.54444 279.71134,402.65104 281.3958,403.57642 C283.08026,404.5018 284.76472,405.24597 286.44918,405.98906 C288.13364,406.73216 289.8181,407.47419 291.50256,408.2603 C293.18703,409.04641 294.87149,409.87662 296.55595,410.74042 C298.24041,411.60421 299.92487,412.5016 301.60933,413.45021 C303.29379,414.39881 304.97826,415.39863 306.66272,416.39753 C308.34718,417.39644 310.03164,418.39443 311.7161,419.2413 C313.40056,420.08817 315.08502,420.78392 316.76949,421.24721 C318.45395,421.71051 320.13841,421.94135 321.82287,422.04342 C323.50733,422.14548 325.19179,422.11876 326.87625,422.14379 C328.56071,422.16882 330.24518,422.24561 331.92964,422.46324 C333.6141,422.68086 335.29856,423.03932 336.98302,423.50559 C338.66748,423.97187 340.35194,424.54596 342.03641,425.14744 C343.72087,425.74893 345.40533,426.37783 347.08979,426.96698 C348.77425,427.55613 350.45871,428.10555 352.14317,428.57993 C353.82763,429.05431 355.5121,429.45365 357.19656,429.77107 C358.88102,430.08848 360.56548,430.32397 362.24994,430.48108 C363.9344,430.63818 365.61886,430.71691 367.30333,430.72555 C368.98779,430.7342 370.67225,430.67277 372.35671,430.58122 C374.04117,430.48968 375.72563,430.36802 377.41009,430.2892 C379.09456,430.21039 380.77902,430.17442 382.46348,430.21921 C384.14794,430.26401 385.8324,430.38955 387.51686,430.55513 C389.20132,430.7207 390.88578,430.9263 392.57025,431.10588 C394.25471,431.28546 395.93917,431.43903 397.62363,431.53764 C399.30809,431.63624 400.99255,431.6799 402.67701,431.67682 C404.36148,431.67374 406.04594,431.62393 407.7304,431.55321 C409.41486,431.4825 411.09932,431.39088 412.78378,431.31066 C414.46824,431.23045 416.1527,431.16164 417.83717,431.11988 C419.52163,431.07812 421.20609,431.0634 422.89055,431.05602 C424.57501,431.04864 426.25947,431.04859 427.94393,431.02712 C429.6284,431.00565 431.31286,430.96276 432.99732,430.90704 C434.68178,430.85132 436.36624,430.78275 438.0507,430.7436 C439.73516,430.70444 441.41962,430.69469 443.10409,430.73586 C444.78855,430.77703 446.47301,430.86912 448.15747,430.98533 C449.84193,431.10154 451.52639,431.24187 453.21085,431.36394 C454.89532,431.48601 456.57978,431.58981 458.26424,431.65602 C459.9487,431.72222 461.63316,431.75081 463.31762,431.74991 C465.00208,431.74901 466.68655,431.71862 468.37101,431.68264 C470.05547,431.64665 471.73993,431.60508 473.42439,431.58174 C475.10885,431.5584 476.79331,431.55329 478.47777,431.57074 C480.16224,431.58819 481.8467,431.62818 483.53116,431.67482 C485.21562,431.72145 486.90008,431.77472 488.58454,431.81954 C490.269,431.86436 491.95347,431.90074 493.63793,431.92668 C495.32239,431.95262 497.00685,431.96811 498.69131,431.97781 C500.37577,431.98751 502.06023,431.99141 503.74469,431.99212 C505.42916,431.99283 507.11362,431.99035 508.79808,431.98171 C510.48254,431.97307 512.167,431.95827 513.85146,431.92832 C515.53592,431.89837 517.22039,431.85328 518.90485,431.78613 C520.58931,431.71898 522.27377,431.62979 523.95823,431.53239 C525.64269,431.43498 527.32715,431.32938 529.01162,431.25158 C530.69608,431.17378 532.38054,431.12378 534.065,431.12268 C535.74946,431.12158 537.43392,431.16938 539.11838,431.24359 C540.80284,431.3178 542.48731,431.41842 544.17177,431.5043 C545.85623,431.59018 547.54069,431.66131 549.22515,431.69431 C550.90961,431.72731 552.59407,431.72218 554.27854,431.67965 C555.963,431.63713 557.64746,431.5572 559.33192,431.46011 C561.01638,431.36302 562.70084,431.24876 564.3853,431.14936 C566.06976,431.04995 567.75423,430.96539 569.43869,430.92099 C572.80761,430.8322 576.17653,430.90405 579.54546,431.09989" id="allAspectRatio" class="data density"/>
	</g>
	<g id="hemAspectRatio" class="layer">
		<path d="M 50.454544 431.04024 C53.522642,431.02933 56.590739,431.24521 59.658836,431.44694 C61.192885,431.5478 62.726934,431.64513 64.260982,431.72079 C65.795031,431.79645 67.32908,431.85044 68.863128,431.88321 C70.397177,431.91598 71.931226,431.92752 73.465274,431.91584 C74.999323,431.90416 76.533372,431.86924 78.06742,431.79364 C79.601469,431.71804 81.135518,431.60175 82.669566,431.42152 C84.203615,431.2413 85.737664,430.99714 87.271712,430.69351 C88.805761,430.38989 90.33981,430.02679 91.873858,429.65737 C93.407907,429.28796 94.941956,428.91223 96.476004,428.59593 C98.010053,428.27964 99.544102,428.02278 101.07815,427.8421 C102.6122,427.66141 104.14625,427.55689 105.6803,427.48498 C107.21435,427.41307 108.74839,427.37377 110.28244,427.30168 C111.81649,427.2296 113.35054,427.12472 114.88459,426.93973 C116.41864,426.75475 117.95269,426.48965 119.48673,426.12981 C121.02078,425.76997 122.55483,425.31539 124.08888,424.74103 C125.62293,424.16667 127.15698,423.47254 128.69103,422.55552 C130.22508,421.63851 131.75912,420.4986 133.29317,418.96944 C134.82722,417.44027 136.36127,415.52184 137.89532,412.99372 C139.42937,410.4656 140.96342,407.32779 142.49746,403.07305 C144.03151,398.8183 145.56556,393.44662 147.09961,385.89598 C148.63366,378.34534 150.16771,368.61574 151.70176,355.48741 C153.23581,342.35908 154.76985,325.83203 156.3039,305.75073 C157.83795,285.66943 159.372,262.03388 160.90605,236.68624 C162.4401,211.3386 163.97415,184.27886 165.50819,158.6926 C167.04224,133.10634 168.57629,108.99357 170.11034,89.014439 C171.64439,69.035309 173.17844,53.189828 174.71249,42.332406 C176.24654,31.474984 177.78058,25.605622 179.31463,24 C180.84868,22.394378 182.38273,25.052495 183.91678,30.589989 C185.45083,36.127484 186.98488,44.544355 188.51892,54.451414 C190.05297,64.358473 191.58702,75.755719 193.12107,87.614869 C194.65512,99.474019 196.18917,111.79507 197.72322,124.11804 C199.25727,136.441 200.79131,148.76588 202.32536,160.98784 C203.85941,173.20981 205.39346,185.32887 206.92751,197.16247 C208.46156,208.99607 209.99561,220.54421 211.52965,231.60988 C213.0637,242.67554 214.59775,253.25873 216.1318,263.43146 C217.66585,273.60419 219.1999,283.36647 220.73395,292.74021 C222.268,302.11395 223.80204,311.09915 225.33609,319.31812 C226.87014,327.53709 228.40419,334.98982 229.93824,341.36509 C231.47229,347.74037 233.00634,353.0382 234.54039,357.51374 C236.07443,361.98928 237.60848,365.64254 239.14253,368.97127 C240.67658,372.3 242.21063,375.3042 243.74468,378.18093 C245.27873,381.05766 246.81277,383.80692 248.34682,386.31763 C249.88087,388.82835 251.41492,391.10051 252.94897,393.06058 C254.48302,395.02065 256.01707,396.66864 257.55112,398.1411 C259.08516,399.61355 260.61921,400.91048 262.15326,402.22138 C263.68731,403.53229 265.22136,404.85718 266.75541,406.22512 C268.28946,407.59306 269.8235,409.00406 271.35755,410.3457 C272.8916,411.68734 274.42565,412.95964 275.9597,414.08204 C277.49375,415.20444 279.0278,416.17695 280.56185,417.0208 C282.09589,417.86464 283.62994,418.57981 285.16399,419.23422 C286.69804,419.88863 288.23209,420.48228 289.76614,421.07656 C291.30019,421.67084 292.83423,422.26576 294.36828,422.88051 C295.90233,423.49525 297.43638,424.12982 298.97043,424.74247 C300.50448,425.35512 302.03853,425.94585 303.57258,426.44915 C305.10662,426.95244 306.64067,427.3683 308.17472,427.66478 C309.70877,427.96125 311.24282,428.13834 312.77687,428.20968 C314.31092,428.28102 315.84496,428.24661 317.37901,428.14585 C318.91306,428.04509 320.44711,427.87797 321.98116,427.70254 C323.51521,427.5271 325.04926,427.34335 326.58331,427.21672 C328.11735,427.09008 329.6514,427.02056 331.18545,427.03544 C332.7195,427.05031 334.25355,427.14959 335.7876,427.29436 C337.32165,427.43913 338.85569,427.62939 340.38974,427.80557 C341.92379,427.98175 343.45784,428.14385 344.99189,428.26711 C346.52594,428.39037 348.05999,428.4748 349.59404,428.52149 C351.12808,428.56818 352.66213,428.57715 354.19618,428.55075 C355.73023,428.52435 357.26428,428.46259 358.79833,428.37749 C360.33238,428.29239 361.86642,428.18395 363.40047,428.0785 C364.93452,427.97306 366.46857,427.87061 368.00262,427.79165 C369.53667,427.7127 371.07072,427.65724 372.60477,427.6219 C374.13881,427.58655 375.67286,427.57132 377.20691,427.56418 C378.74096,427.55704 380.27501,427.55798 381.80906,427.58181 C383.34311,427.60564 384.87716,427.65235 386.4112,427.7574 C387.94525,427.86246 389.4793,428.02585 391.01335,428.25454 C392.5474,428.48323 394.08145,428.77722 395.6155,429.09745 C397.14954,429.41769 398.68359,429.76419 400.21764,430.08569 C401.75169,430.4072 403.28574,430.70372 404.81979,430.94789 C406.35384,431.19206 407.88789,431.38389 409.42193,431.52699 C410.95598,431.67009 412.49003,431.76447 414.02408,431.82916 C415.55813,431.89386 417.09218,431.92888 418.62623,431.95123 C420.16027,431.97359 421.69432,431.98329 423.22837,431.98914 C424.76242,431.99499 426.29647,431.99698 427.83052,431.99813 C429.36457,431.99928 430.89862,431.99958 432.43266,431.99975 C433.96671,431.99992 435.50076,431.99996 437.03481,431.99998 C438.56886,431.99999 440.10291,432 441.63696,432 C443.171,432 444.70505,432 446.2391,432 C447.77315,432 449.3072,432 450.84125,432 C452.3753,432 453.90935,432 455.44339,432 C456.97744,432 458.51149,432 460.04554,432 C461.57959,432 463.11364,432 464.64769,431.99999 C466.18173,431.99998 467.71578,431.99996 469.24983,431.99986 C470.78388,431.99976 472.31793,431.99958 473.85198,431.99888 C475.38603,431.99818 476.92008,431.99696 478.45412,431.9933 C479.98817,431.98964 481.52222,431.98353 483.05627,431.96946 C484.59032,431.95538 486.12437,431.93334 487.65842,431.89434 C489.19246,431.85533 490.72651,431.79936 492.26056,431.72257 C493.79461,431.64578 495.32866,431.54818 496.86271,431.44715 C499.93081,431.24511 502.9989,431.02941 506.067,431.04024" id="hemAspectRatio" class="data density"/>
	</g>
	<g id="axis titles" class="layer">
		<text font-size="12" class="axis title" text-anchor="middle" x="606" y="426">Aspect Ratio</text>
	</g>
	<g id="legend" class="layer">
		<g id="allAspectRatio row">
			<line id="allAspectRatio" class="data legend" x1="550" x2="600" y1="19" y2="19"/>
			<text font-size="12" class="legend label" text-anchor="start" x="603" y="22">allAspectRatio</text>
		</g>
		<g id="hemAspectRatio row">
			<line id="hemAspectRatio" class="data legend" x1="550" x2="600" y1="34" y2="34"/>
			<text font-size="12" class="legend label" text-anchor="start" x="603" y="37">hemAspectRatio</text>
		</g>
	</g>
</svg>
